<mxfile host="app.diagrams.net" modified="2024-02-19T04:55:58.330Z" agent="Mozilla/5.0 (Windows NT 10.0; WOW64) AppleWebKit/537.36 (KHTML, like Gecko) Chrome/121.0.6167.161 Safari/537.36 NetHelper70" etag="RumDo3x--3k_YDVgNa6I" version="23.1.5" type="github">
  <diagram name="페이지-1" id="6smUFEKWVkIZyXx7Bukp">
    <mxGraphModel dx="1793" dy="945" grid="1" gridSize="10" guides="1" tooltips="1" connect="1" arrows="1" fold="1" page="1" pageScale="1" pageWidth="827" pageHeight="1169" math="0" shadow="0">
      <root>
        <mxCell id="0" />
        <mxCell id="1" parent="0" />
        <mxCell id="J-4PL1bRExIhTpd28Z0a-74" value="" style="html=1;shadow=0;dashed=0;shape=mxgraph.bootstrap.rrect;rSize=5;strokeColor=#6C767D;html=1;whiteSpace=wrap;fillColor=#ffffff;fontColor=#212529;verticalAlign=bottom;align=left;spacing=20;spacingBottom=0;fontSize=14;" vertex="1" parent="1">
          <mxGeometry x="1390" y="40" width="590" height="720" as="geometry" />
        </mxCell>
        <mxCell id="J-4PL1bRExIhTpd28Z0a-75" value="Services" style="html=1;shadow=0;dashed=0;shape=mxgraph.bootstrap.topButton;rSize=5;perimeter=none;whiteSpace=wrap;fillColor=#0050ef;strokeColor=#001DBC;fontColor=#ffffff;resizeWidth=1;fontSize=18;align=left;spacing=20;" vertex="1" parent="J-4PL1bRExIhTpd28Z0a-74">
          <mxGeometry width="590" height="50" relative="1" as="geometry" />
        </mxCell>
        <mxCell id="J-4PL1bRExIhTpd28Z0a-77" value="&lt;span style=&quot;font-size: 20px;&quot;&gt;&lt;b&gt;Roles&lt;/b&gt;&lt;/span&gt;&lt;br style=&quot;font-size: 14px&quot;&gt;&lt;div&gt;- Manage Container&lt;/div&gt;" style="html=1;shadow=0;dashed=0;shape=mxgraph.bootstrap.rrect;rSize=5;strokeColor=#6C767D;html=1;whiteSpace=wrap;fillColor=#ffffff;fontColor=#212529;verticalAlign=bottom;align=left;spacing=20;spacingBottom=0;fontSize=14;" vertex="1" parent="J-4PL1bRExIhTpd28Z0a-74">
          <mxGeometry x="15" y="144" width="270" height="130" as="geometry" />
        </mxCell>
        <mxCell id="J-4PL1bRExIhTpd28Z0a-78" value="Docker" style="html=1;shadow=0;dashed=0;shape=mxgraph.bootstrap.topButton;rSize=5;perimeter=none;whiteSpace=wrap;fillColor=#1ba1e2;strokeColor=#006EAF;fontColor=#ffffff;resizeWidth=1;fontSize=18;align=left;spacing=20;" vertex="1" parent="J-4PL1bRExIhTpd28Z0a-77">
          <mxGeometry width="270" height="50" relative="1" as="geometry" />
        </mxCell>
        <mxCell id="J-4PL1bRExIhTpd28Z0a-80" value="" style="shape=image;verticalLabelPosition=bottom;labelBackgroundColor=default;verticalAlign=top;aspect=fixed;imageAspect=0;image=https://www.ibm.com/content/dam/adobe-cms/instana/media_logo/Docker.png/_jcr_content/renditions/cq5dam.web.1280.1280.png;clipPath=inset(17.7% 28% 18.14% 27.67%);" vertex="1" parent="J-4PL1bRExIhTpd28Z0a-77">
          <mxGeometry x="220.14" width="45.86" height="50" as="geometry" />
        </mxCell>
        <mxCell id="J-4PL1bRExIhTpd28Z0a-54" value="&lt;span style=&quot;font-size: 20px;&quot;&gt;&lt;b&gt;Roles&lt;/b&gt;&lt;/span&gt;&lt;br style=&quot;font-size: 14px&quot;&gt;&lt;div&gt;- Store Structured Data&lt;/div&gt;&lt;div&gt;- provide Data Relation&lt;/div&gt;" style="html=1;shadow=0;dashed=0;shape=mxgraph.bootstrap.rrect;rSize=5;strokeColor=#6C767D;html=1;whiteSpace=wrap;fillColor=#ffffff;fontColor=#212529;verticalAlign=bottom;align=left;spacing=20;spacingBottom=0;fontSize=14;" vertex="1" parent="J-4PL1bRExIhTpd28Z0a-74">
          <mxGeometry x="305" y="144" width="270" height="150" as="geometry" />
        </mxCell>
        <mxCell id="J-4PL1bRExIhTpd28Z0a-55" value="MariaDB" style="html=1;shadow=0;dashed=0;shape=mxgraph.bootstrap.topButton;rSize=5;perimeter=none;whiteSpace=wrap;fillColor=#1ba1e2;strokeColor=#006EAF;fontColor=#ffffff;resizeWidth=1;fontSize=18;align=left;spacing=20;" vertex="1" parent="J-4PL1bRExIhTpd28Z0a-54">
          <mxGeometry width="270" height="50" relative="1" as="geometry" />
        </mxCell>
        <mxCell id="J-4PL1bRExIhTpd28Z0a-58" value="" style="shape=image;verticalLabelPosition=bottom;labelBackgroundColor=default;verticalAlign=top;aspect=fixed;imageAspect=0;image=data:image/png,iVBORw0KGgoAAAANSUhEUgAAAoAAAAFpCAYAAAAMbpn0AABC5ElEQVR4Xu3dB3QTV973cZOQnuxutj27+27vT3Y32UWig0TvPfSELmFMM7333lvovXdCCb2GXkLvYMBUA8bGuHffd67Y7JOdq4Qysj0jfe85n5OTv21ppJHu/JiZe2+QECIIAAAAgUMpAIAVJCamBC1bvuuN5at3/njZ6h2/WLZq5++Wrd71+6f/3flLrfbT5St2vX379sM8+r8FgECnFADAjKZMX/3D3oNnOTSNNf279J4y017UvcrudG3SbLc53HtsTveX2n+/1P5/p2aLvZh7javNyHna74/QuDVleg+c8evU1HTl8QEgkCgFAMhNaWnpQTFP4l/XfK9hs0H2Gg169dJsLFy6VZjd6X6oidEkazI04jlkalI0sZpIu8N1u3r9nl9qjzm0ZsPepc9duPFj7bneTEpO4UwhgIChFAAgN1y6evvV/YfP/mbanHUVbU7XKJvTffoFQt5L057ntvZ807v1m/qx9vx/PXby8hv6bQMAf6MUACAnRTyIyjttztq/1Wk6oKMWxjZqoSxaH9JySLz2/AcdlUKHaCG00MmzV9/UbysA+AulAAA5ZeSEJT9vEjx0jM3pOqWFr3gthGV5CWY5StuOVG17Ltb6pPfstl3H509N435BAP5HKQBAdrp9+0HeRcu3/aFEpXY9C5RseUsLXWl2EwQ/Hbk98vJznLadk/oPnff3m7fuv5Wamqa8HgCwIqUAANnh5MmIoLUbjvzcUTo42O5wnbA/HZyhD15mlKlt7/UCxZv3m7tw09+2bbumvDYAsBqlAAC+Fnbtzls1642s+mHB4BV2p0te6tWHLAtwpdgc7n2FnX2bfLn/1Pv61wgAVqIUAMAXMjOzgjIyMvN07jnpNzUa9Jxjd7gjtCCVrgYrS8nSXkdU+Zqd1jYJHlIkKjr21czMTOW1A4DZKQUAMCohITnvmPGr/mAv1qqnzel+5CVI+YNUm6Pl9NZtJ/0jMjKGEcMALEUpAIARW3YceX/0xGUt7Q73PvvTCZj1wcmfZGiv83zHHp91X7Ji+x8zMjgbCMAalAIAvIzjJ6++1q3fzBIlq4Qu04LRYy9hyZ/J+xr3d+s3vc7q9fs5GwjA9JQCALyI2LjEvDU/7vbH0lU7TrU53BG2HFi9w6SytNcfVbxCu9UVqnYofOZsGEEQgGkpBQB4HnIAxJcHTv2+oWtQO7mcmpdAFMgeFynbeqz2/vz9xs2I1/XvHQDkNqUAAM8yf9n2d7v3n97U5nBtsztdiV4CEJyuTJvTdbRZmxEdP5u1+pcJicnK+wgAuUUpAMC3OXz4cFDH7qPyFSrbZpnN6X5oN98KHmaTpb1PT/I5W+xpGTqi8qpVq5T3FAByg1IAAL279yLzbtt17IPCZVqNsztdD23WWcXDLLSg7IorVKrlsqmzPi90Pfze21lZWcr7DAA5RSkAwNdu3Y3Ms3bTwd9Uq9fDrYWYS16CDV6Uw33b7nAN//yLfR+cOn/9Ff17DgA5QSkAgNS1W883W4aOqfsvp3uDzemOU4IMjMjQ3tO9HzfuH9KpS98fR0REKO8/AGQnpQAgcMllzVLT0l8ZOnbRn/5RqO4Su8Ml7/ML1Gldslum9v7G/KNA/W0NXQNLpqamvZqRkaHsEwDIDkoBQGC6dOn6qwuXbv1bfqd7iN1/l28zqzRbcdesPoNnFzh1+vLbaWnpyv4BAF9SCgACz/5DZ35WoWo7t93hPqqFkXQvAQXZL9PudF0u6Gw+YPGKbX/W7yMA8CWlACBw3Lrz4PXu/aZXrFy72xqb0xVoy7eZks3pTi5Wvs2XXftObbz34On39PsMAHxBKQDwb8nJqUGRkTGvt+k89vdla3RapIWOKLuD+/xMJtPmcMWWqNR+c4WPOzvvP4h+Ky4uUdmXAPCylAIA/5WYlPLqmAnL/2Ir4u6hhYxbXoIHzCfJVtw1pl2HCfm0IMj6wgB8QikA8E/rN+//3tDRC+V8fns1yV6CBswrTXM6tPukXjPnrP+1ft8CwItSCgD8y9mL119xhY4sUqpq6Eq708XoXmuLL1gy+EDLDqOrr99y4DX9vgaA56UUAPiHBw+j32gZ0umvhUuHzLQ5XTH2p8u3sXav9cn1hRMKlgre8Ovf93CeOn3jHf2+B4BnUQoArO1xTNwra7/Y94emIcM6aEHhopcAAf8RWaZap+Ha/v7o2vV7nBEE8NyUAgDrmrV0fd5OvSY31YLBDjvLtwUE29P7A480CxnWacDYOT/NzMxSPhcAoKcUAFiLPOCvW7chb9nKn/6raPlWS21OV5SdS72BRtvfrth8zhaHq9YJLTVo8JDXWFYOwHdRCgCs40rY7bybtx/60F68xXi7wx3tJRgg4LiSNEsnz1jjPHkm7G39ZwYAJKUAwPwiIiKDFi7e9Ktan/RubXe2OKGGAAQ4eUbwRpGybYfOXrrlf4+du5ZH/xkCENiUAgBzS0pKebVF62G18jtdm7UDvRzdy+VeeGVzulPzOd37azTuF3zx8s3v6z9LAAKXUgBgPmlp6UFyFYiBI+Z/VE4u3+ZwxdqfTuuiHPQBHc+0MaUqh+5r1HJoSe1z9E5CYrLyGQMQWJQCAHM5efJG0LwlWz7SDuKD7A73HXlA93KQB57J5hkZ3nLqwJELiu7ec45l5YAAphQAmMeXB07/pEqtvi4t+B22P53uQzmoAy8oXQuCFwo62w9Ztnrnr/SfOQCBQSkAyH2PHsW86m49smTFWl3XawdrObqXs37wKe1zleyo0HZfi7YjGxz+6vxb+s8gAP+mFADkjtjYlKBz5+6+Fdx5zN8LlQ6eb3e4kzUEP2SnLJvTlVqwZPCOchW6lrpw8fZ7ERFxymcTgP9RCgByXlpaep7Bw1f/9Q9/a9tLOyhftTPAAznN4Yr+my1kdFP3zPz3H0a/rv+MAvAvSgFAzvp80753eg+e1cTucB/QDsSJyoEZyDmpNqf7dOvO4/pMmrbmJ/rPKgD/oRQAZL+EhISg8+dvvF67fr8iJSq1W/vv5dv0B2MgtyQUKt3qUO1P+lVft27/23FxXBYG/I1SAJC9bt1+8EbhYmX/lq94i2k2pzvey8EXMIskzdqf/uJvZc9fvMGycoAfUQoAskdcfGLQnIWbf9eizcgudqfrpIb7/GAJNof7XqWPuw2es3DjR9fD776q/2wDsB6lAMD3Ji/d8kpwx7F1tYPpXpvTLVfxYHQvrER+XlO0f7R89al7UKfuPSa9p/+MA7AWpQDANzIzM4PuRjx6e/rc9UUKlmm9Sgt+T/59INUfXAGrkJ/fJLvDdaRzrykVtc/395JTUvPoP/sAzE8pADDu/Pnrr27YfOBDm8M9RjtYPvByIAWsTp7Jnj955prSBw+eeUP/HQBgbkoBwMuLjIwNmvDZ+p/Xa9SvnRb85PJt3OcHfybPCIaVrth+8ITP1vzp7NlbyncCgDkpBQAv71PX0Ip2Z6ud2kEx5t8HR/0BE/BHSfmdwYerN+jTPPzmfUYLAxagFAA8v7S09KALF2++03fo7IL5S7ZcrB0I020EPwQm+bnPzO90H23YrH/Ji5fCfxAbG698ZwCYg1IA8Hw2bboaNGPOxr/nLxo8RDvw3ZAHPy8HRSDQyCAYlb94iymDhs0tPm/+8df03x0AuU8pAHi2vQdPv1+8TF93vmKe5dtSvRwEgQDnStNc+Fu+jgMXr9j+c/13CEDuUgoAvEtKSgmKfBTzZs0GfUqXrtZxK9O6AM/B4U4qXr7Nkdqf9G54+Oi57yckJCvfLQA5TykA+G+xsbFBu3bve6tN+wl2W3H3VDtn/ICXkab9o2lr1Rp9S4Vdv/M9/fcMQM5SCgD+29BRc/70h7+V66cdwC5oMrwc2AA8L4f7bsPmA8fOnLch/6OomLz67xuAnKEUADy1YfP+N9t3m1A/f4mWR7SDVoJyIAPwslI055q3HtFnzKTV7+i/ewCyn1IAAt3Zc9feLV4quGTRsq032Z2uODv3+QHZIcvmcKcUKBl8zFmude0Vq3b8MD09g2XlgByiFIBAdT383hubtx/5V8nKoePsTydy1h+wAGSPeJvTvWLJyh1lj5+6/Jb+uwnA95QCEGjkZM5jxi35ZfM2I3poB6ITmnQvBygA2czmcF2vWq/HiJETl/w9/FbEK/rvKgDfUQpAoMjKygpauHBvnibu4RXtxV1HtAMQl3uB3JVlc7qTbU7X6VqN+rQbO278a/J7qv/uAjBOKQCB4PylG+9OnrmmpHbAWWt/ekO6/kAEINe5jnXoMbH6uQvXf5SUlML9gYAPKQXAn505c/WV5at2/KNgmVaj7A73HfWAA8BkouwO19wJU1eV2brnxKv67zSAl6MUAH8UHZ0Y5Gq59Md1G/Vtrx1MDtm5zw+wkkyb032lVLVOg9qE9vnd4cOHle84gBejFAB/kpySGhQTE/dWY/eQch8VbinX7Y23c58fYEVZ2j/ekv5ZpPGpUlXbua5dv/N+fEISl4WBl6QUAH+QkZEZdODg+bcHjphb3O50zdMOHsleDigALMrmcG1vEjy0wsFDp99/8iRO6QMAfDelAPiDZat2/Dl/sZDh2oHiqiZTf/AAYHlZ2j/uIgo4W0zrN3R28bS0dM4GAi9AKQBWdvDI2ffadh7X3FGhrbzcy+hewM/ZnO40eX9gqw5jei9avu3H+j4BgHdKAbCa6OjYoPCbEe+VrtqlXNFyIXvkfUJ27vMDAorN4UopVKrVaUfFto33Hjz10/v3o5W+AsD/UQqAlUQ8iHqzbcexhfMVbTZROwgk6A8KAAJOis3pWlerbp8yFy+Hf0/fZwB4SikAVjFl1ue/atd1wiCb031OXgbyciAAEJjkFYDwhi0GTRgxZvG/YuMSWFYO0FEKgFnJJaEyMjKC1m0+9EZD15CPC5ZuddTucCd66fwBQErR+ogr9ZoN6Dhu2sq309MzPP2Ivm8BApFSAMzq/MUb7xZxdqlgc7q32p2uVC+dPQB4k6H1GSd+/cfQBnPn7/9pZmam0r8AgUYpAGZz7cadvIuXb8tXoVaXkVpH/shL5w4Az6T94/GJ3eFeNm/J5lJHjp1/Q9/XAIFEKQBmMnTYqu81Dh4Sane4vtI6cM76ATDM5nRdrla/5+ChIyb9KjIyUul3gECgFIDclpycHBQZGfVat35T/16gRKsdNpZvA+BbWVq/klSgRIvjNer2rPIo6vEbcXGsJoLAohSA3JSSmhY0cuy0H/3+f0u30jrpcNlRe+m8AcBXkj6w1erX1NXxN5GPnrCaCAKGUgBy0/R5a3+Rz9liqtYpR3vpqAEgOyTmc7hXd+kzzR6fkMSUMQgISgHILTPnf/G7wmVC1mqdcbKXDhoAspNcUu5Epz5Tiun7JsAfKQUgpyUlp+SdMnNtsYIlgw/bHHK6BqVjBoCckGUv4Y7o2HPSxzFP4t/U91WAP1EKQE6S83F9NmNNOe1f3nKUL/f7ATCDm937TW/+KOrJ2/o+C/AXSgHISbPmf/EvrbM956UDBoDcdKtjj88ap6VnMDAEfkkpADkhIyMzaNaCLz4oWrb1Pi8dLwCYgOt+tz5TS6UTAuGHlAKQ3ZKTU4Imz1zzV5vTtUPrZDPVThcAzEHrp8JDe0wq8SjqCaOD4VeUApDdZsxa/aP8Tvcc1vMFYAEZWgjc3a33tH88fsxk0fAfSgHIbiUrte2qhb8ELx0tAJhRiq2Ye27Y9bvv6/szwKqUApBdEhKS8nTpO7WYvYT7kZcOFgBMy6aFwKp1u4fGPInnUjD8glIAssvUOWt/b3e65KAP7vsDYD0Od3TrjmML6vs2wIqUApAdrodHvNMsZPgArRONVzpVALAChzuzSp1uqw8eOfcTfR8HWI1SAHwtLi4hqFHTvkVtDneY0qECgKW4oivW7xJ84txlLgXD0pQC4Gunzl59T+s0V9pZ6QOA9WXZHK6jS1Zu/zA9PUPp7wCrUAqAr1Wp17Wc1mkme+lIAcCK0vMVb9E38lHM6/r+DrAKpQD40tq1X77uKN9mo5cOFACs7MbICct+o+/zAKtQCoCvpKVnBHXrM6283eF66KXzBAAry6pYu2u31NQ0pe8DrEApAL4yb/Wudz8q0XKJ1lFmeOk8AcDS8jlcYZ36zfiZvu8DrEApAL6yeMX24jaH+5K+0wQAv+BwxXXvO82t7/sAK1AKgC+E34zIW69xvy52hztF6TQBwD9kVqjVZcXuvSff0/eBgNkpBcAXTp8N+5XN4drqpcMEAL+h9XNXFizdWkLfBwJmpxQAo7KysoJmL9hYVOscH+s7SwDwMyl9h8zp9Dgm7lV9XwiYmVIAjMrIyAyyO1xdvHSUAOCPFp88c5Xl4WApSgEwSguAebQAuN1LJwkA/uiCFgA/0PeFgJkpBcCoLt36vGN3uBO9dJIA4I/SCzvaV0xLS1f6Q8CslAJgVCP3YHn/n76DBAB/1k8LgHn0/SFgVkoBMEoLgO29dI4A4L8c7vVaAGQgCCxDKQBGaQFwhtI5AoAfszndYU9iE17T94eAWSkFwIjwWxGv1mzYe7++cwQAP5fR4NOB7+v7RMCslAJgxMjxi39sc7jOeukcAcCvNWjR/0N9nwiYlVIAjBgxdvGftQB4Wd8xAoC/a9B8UDl9nwiYlVIAjBgxbnERLQCG6ztGAPB3DVoMaqbvEwGzUgqAESPGLyljc7rv6DtGAPB3DVwDO+j7RMCslAJgxIjxiyvbna57+o4RAPxdg+aDeur7RMCslAJghBYAa9qcrvv6jhEA/F3DFgMH6vtEwKyUAmDEiPFLPrY53Q/0HSMA+LtPXAMH6/tEwKyUAmAEARBAoCIAwkqUAmAEARBAoCIAwkqUAmAEARBAoCIAwkqUAmAEARBAoCIAwkqUAmAEARBAoCIAwkqUAmAEARBAoCIAwkqUAmAEARBAoCIAwkqUAmAEARBAoCIAwkqUAmAEARAwl5KV24v6zQeKtl0miD6DZ4vh4xaL0ZOWeQwetcBT69Jnqvbz8SI4dIwipNM40a7rBNGx52TRTfu9XgNnev5m2JiFYsLUVWLqrLVi0vTVYujohZ7fKVO1o7INgYIACCtRCoARBEAgdxUo0VJUq99TDNHC3ZYdh8Xlq7fErTsPxIPIx+JxTJyIi08UCYlJHrFxCZ5aVPQT8VD7ecSDKMWDh9Gen0VGxXh+L/px3NPHiUsUSUkpIiUlVSQlp3j+X/7OvMWblW0KFARAWIlSAIwgAAI5r1j5NqJ2o76es3DnL4WL9PQMkVvt7IXryvYFCgIgrEQpAEYQAIGck79ES9Gk1VAxZ9FGcf3GPZGRkXvB7+t27MQlZTsDBQEQVqIUACMIgEDOKF+zs+feuytht3P1jJ++rV6/V9nWQEEAhJUoBcAIAiCQvQqWChbBHcaI4ycve+69y8rKEt/W0tLSPff83b0XKU6duSoOHT3vOUN36/Z9z8983eS2DBwxT9nmQEEAhJUoBcAIAiCQfUpX7SBGT1wm4rVQ910tIzNT3L7zUMxbvEXUa9rfExq/+ThyZLAMgr5uMTFxokHzgcp2BwoCIKxEKQBGEACB7FGlTnexaPk2kZCYLL6rZWrh79zFG6J9t4lK8PumVWv36P/UcJOhslLtrspzBQoCIKxEKQBGEAAB3ytXs7PYsPmgSEz67vAn28OHj0XHHp99Z/iTtuw4ov9TQ01e/p2/ZLMoVq618lyBggAIK1EKgBEEQMC3SlRqL/bsO/ncI3znLtwkCpRsqTzON9X6tI9n1LCvmgx/8j7DNp3HKc8VSAiAsBKlABhBAAR8p1TVDmLpqp0iM/PbB3ro27PuwStbvZNYsWa3SE5J1f/pS7fU1DSx8vPdwlGxnfJ8gYQACCtRCoARBEDAN+Sl1PFTVnpW63iRNnvBRk/I0z+eVLdJP7Fh0wHxJPbFHvNZ7cKlcFFHe2z98wUaAiCsRCkARhAAAePkcm5yfV65DNt3TfPirclBIidOX/XMEehqO1LUazpAtO08XsxbslmE34zw6fQvctseRT0R7najlNcQiAiAsBKlABhBAASMc7Ub6Vm718xNBsnT58JE01bDlO0PVARAWIlSAIwgAALG1GjQS5w+GybM3OT9gxs2HxANWwwS+UuoryFQEQBhJUoBMIIACLy8MtU6ivUbD/j0Mq2vW8yTePHZjDWepej02x/oCICwEqUAGEEABF5OsXJtxNTZa0VCQvIL3/eX3U1uT0pqmjh5+qpnqpfCZUKU7QcBENaiFAAjCIDAi8tfoqXoN3SOeBwTJ8zW5BQ09+4/EjPnbxDlangfXYynCICwEqUAGEEABF6cnLvv5u37wmwtNjZBbN5xRHTsMemZk0uDAAhrUQqAEQRA4MWUrNRefLn/lDBbO3nmqujad6rnrB8DPZ4PARBWohQAIwiAwPMrXqGNWLRsm0hO9t2qHEaaHHxy7cZdMXzsIlG8fFuC3wsiAMJKlAJgBAEQeD6FSrfy3PcX+ShGmKElJaWItRv3eS5HE/xeDgEQVqIUACMIgMDzqd9sgLh89ZYwQ5NTu0ye+bkoXbWDsp14fgRAWIlSAIwgAALPJpd62/nlcZGZmSlys8npXe4/iBaDRszzrD2s3068GAIgrEQpAEYQAIHvJi/9jpm0XGRk5G74k+3ajXsitPskZRvxcgiAsBKlABhBAAS+W3DoaHH7zsNcn+w5OjpWdOhB+PMlAiCsRCkARhAAgW9XuU43z6Xf9IwMkZstISFJjJqwlMEePkYAhJUoBcAIAiDgXZEyIZ6BFqmpaSI3m1zSbe7izcJRsZ2yjTCGAAgrUQqAEQRAwLuQTmPFk9gEkZtN3ncoJ52uUre7sn0wjgAIK1EKgBEEQEBVqXY3z8oaud0eRcWI1p3GKdsH3yAAwkqUAmAEARD4b0XLtRFLVuzwrLKR2235ml2eUcj6bYRvEABhJUoBMIIACPyfImVDxJhJy8ST2PhcH/X74GG0qFCri7KN8B0CIKxEKQBGEACBp+QI2449PxN37kWK3G5ywunpc9eLQqU4+5edCICwEqUAGEEABJ6q0aCXuHTFHEu93bn7UDQLGaZsI3yLAAgrUQqAEQRAwC3KVu8k9h44neuXfWWT27B+0wFRskqosp3wLQIgrEQpAEYQABHoKtbqIjZtOyzS0nN3suev25Mn8WLAsLnKdsL3CICwEqUAGEEARCArVSVULFm1QyQmJguztCtht0X9ZgOUbYXvEQBhJUoBMIIAiEA2d9EmEZ+QJMzS5OXf/YfOiKJlQ5Rthe8RAGElSgEwggCIQFS8fFsxfc56kZycIszU5NyDsxZ8oWwvsgcBEFaiFAAjCIAINKWqdhCzF24U8fHmOfP3dUtMShHtu05QthnZgwAIK1EKgBEEQAQSZ8V2Yt7izZ6Jns3YYrTtKlO9o7LdyB4EQFiJUgCMIAAiUBQu00osXblDJJhowIe+nTl/TdluZB8CIKxEKQBGEADh7/KXaCmqN+gltuw8Yor1fb+rzZy3Qdl+ZB8CIKxEKQBGEADh75q1Hu4ZWWv28JeZmSXadhmvbD+yDwEQVqIUACMIgPBXX6/tK5d3y8jMFGZvjx7FiGr1eyqvA9mHAAgrUQqAEQRA+KPS1TqIKTM/F/cfRAurtIOHz2nbzQCQnEQAhJUoBcAIAiD8SeEyISKk0zhx6Nh5kZFhjqXdnqfJCaCnz10vipRhAuicRACElSgFwAgCIPxFjQY9xWczrHXW7+uWmJQsevSfrrwmZC8CIKxEKQBGEABhdfKsX9+hs8VXJy+JpKQUz9k0q7Ub4fc8g1X0rw3ZiwAIK1EKgBEEQFiRnNqlZOVQEdJxjDh6/IJISrZm8Pu67Tt4RlT6uKvyOpG9CICwEqUAGEEAhNVUqNVFdO8/XezYc1wkJJpvObcXbfJexSUrd4iCpVoqrxXZiwAIK1EKgBEEQFiBPOMnp0gZNmaR2PXlcREbmyD8pcXGJYihoxcqrxnZjwAIK1EKgBEEQJiZnMuvXpP+YtGyreJK2G0RF5fomTDZn9q9iEjRnPv/cgUBEFaiFAAjCIAwE7leb/manUXDFoPEpOmrxcXLNz0reMj7+6x8j993Nbn+b7FyrZX3AtmPAAgrUQqAEQRA5LZCpVuJ6vV7elbtmDLrc7Fn/0kRFR0rAqUtX71TeU+QMwiAsBKlABhBAERuKFqutWjeZoQYM2m5WL9pvzh+6rKIfBRjqcmbfdW69ZumvD/IGQRAWIlSAIwgACK7FCjZ0rOyRfEKbUWZqh1ECy3wjZ+6UmzbdVRcu3FPREU/8UyAnGmBdXqzq6WlZ4gy1Vn+LbcQAGElSgEwggAIX5CDNRxa0Ktar4f41DVYtOk0Tgwfu0h8vmGfOHPummfwhr/ew2eknTobpryXyDkEQFiJUgCMIADiZcj79uTExfKsXt8hs8XkGWvEqrV7xKGj58XNW/ctPzFzTrUZc9cr7y1yDgEQVqIUACMIgHgecnTux436iF4DZoiFy7aKPftPec7shWth73FM3H9G6tKev6WkpoqQDmOU9xo5hwAIK1EKgBEEQHxNTrZcrFwbUbZ6J1GjYS/Rtst48dmMNWLvgdMi4n6UiE9IEskpqSI9PYOw54N27uINUb1BL2U/IOcQAGElSgEwggAY2AqWChYVP+4q3O1Gif5D54gFS7eKoycuiid+tNKGGZuczHrpyu2e+yb1+wQ5hwAIK1EKgBEEwMAk593rM2iWWLh8m9h38Iy4c/ehSE1NE7ScaXIpO3nvpH6/IGcRAGElSgEwggAYOMpW7yh6D5opNm874pmGRd67Jy/n0nK2ycvnFy6HiwbNByr7CDmLAAgrUQqAEQRA/1WySqio17S/GDB8rjhw+KxISU0XtNxvcrLrdRv3ey6/6/cZchYBEFaiFAAjCID+RU6+LC/v9hwwQwsZ+8TtOw+1wBG4Ey2bscXGJYheA2cq+w45jwAIK1EKgBEEQP8hz/bNmv+FZ1m1mCdxgmbOdj38nihdrYOy/5DzCICwEqUAGEEAtDY5bUvjlkPE6nVfigeR0SIlNY0pWkze5i7erOxH5A4CIKxEKQBGEACtqWTl9iI4dLTYtO2QiI9PFDRrNLn2cZ0m/ZT9idxBAISVKAXACAKgtRQu3Uq42o4Uy9fsEg8jowXNWm3PvpOes7b6/YrcQQCElSgFwAgCoHXISYMXLNkibt154Fl6jWatlpSc6hn8IVdc0e9b5A4CIKxEKQBGEADNz1GhnejaZ6q4fPUm8/ZZtMn7MvcfOiOq1Omu7F/kHgIgrEQpAEYQAM2tdqO+YumqnSImNl7QrNvi4hLEsDGLOPtnMgRAWIlSAIwgAJpT/hJu0bL9aHHk+EXO+lm8ybN/J89cFVXqcvbPbAiAsBKlABhBADSfwmVCRL+hczzzxWVmMqWL1ZtcY3n0xKWeUK/f18hdBEBYiVIAjCAAmkupqqFizsKNIjEpRdD8o4Vdv8PIX5MiAMJKlAJgBAHQPMpW7yQWLd/GCF8/avLs38AR85R9DXMgAMJKlAJgBAHQHMrV6CyWrNwhkpKSBc1/2qEj50T5mp2V/Q1zIADCSpQCYAQBMPeVqdZRLF+9SySnpLKMm580uR8fRT/xTN/DyF/zIgDCSpQCYAQBMHcVLddaLF6xnZG+ftZSUlM9Z3SdFdsp+xzmQQCElSgFwAgCYO4pWCpYDBu7SAsLaYLmX+3S1VuibpP+yj6HuRAAYSVKATCCAJh7OvSYJO7ce8hlXz9svQax5JsVEABhJUoBMIIAmDsatxwizl+8QfjzsyYv5a9at0cUKBms7HOYDwEQVqIUACMIgDmvZOVQ8cWWQyIzM1PQXrzJwTJmbHJ/HjtxSdRo0FPZ5zAnAiCsRCkARhAAc97QMQtFEhM9v1STZ9g2bD6gL5ui3bz9QLTrOlEUKMmlX6sgAMJKlAJgBAEwZzVsPkhE3I8StBdv8nL5ka8uiJ4DZuh/lOstLj7RE+wLlw5R9jnMiwAIK1EKgBEEwJwhBwQ0aD5QnDl3jfv+XrI9inoiuvSeIjr1mqL/Ua42eUl6xtz1yj6H+REAYSVKATCCAJgzGrYYKA4cOst8fy/Znl76PShKV+0gho5eqP+xT5oM5knJL3ZpPkULf59v2Mt8fxZFAISVKAXACAJg9vvUNVicOnuV8GegPYx8LFq2H+15P2cv3Kj/sU/a/QfRYsOW57+/UK7ZvHXnUVG1Xg9ln8MaCICwEqUAGEEAzB7ykm+pKqFi8KgF4m5EJJd9DTT53i1cuvU/U6ts00KXr1tGRqYYPXGZ6DdkznPtKxnmd+45roW/7sq+h3UQAGElSgEwggDoe+VqdPLcq7bvwGmRksIqH0bbnbsPtfe0s+e9LVS6lbh45ab+Vwy3s+evi0ofdxUtQ0eL5OTvnmZGnvnboYW/UpVDlX1fpEwIo4AthAAIK1EKgBEEQN8oUKKlqPVJb88ZP3lZMOZJvKAZb/Ieu1ETl4r8JZ6+z9Ub9BK3tUDoyyYHcYz9bLknXH7qHizuRTzS/8p/mgyHm7YdFlXrqpd9a33ax3N5um2X8crPYE4EQFiJUgCMIAC+PBlKKtfuJnr0n66FgkPi6rU74klsgsjMfPYlRNrztUNHzv3XPXah3SeJqOgn+l8z1C5eDteCwCDP49dp3Fdc+pYzjMkpKWLVui9F5TrdlM+C3MZDR8951nXevP2w8nOYEwEQVqIUACMIgP9H3rcnL+EVr9DWs1pH2eqdRMWPu4pq2sFdnt1p2GKQ6KAFkAlTVoqNWw+J8JsRnjNU8n6wzOe4b4z2/E3ehxfxIEp07Dn5v/bRtNnrPEHMV03uv9kLvvjPZdvq9XuKYycu/tfvyG15HBMnJkxdKQqXafVf2yP/rn6zAZ7w//W9g3K6msKl//v3YE4EQFiJUgCMCMQAWKxcG1GlbnfxiRboWnccJ7r1nSb6D5vrudQo53NbvGK7WL9pv9i994Q4fvKyuBJ2WzyIfCzS0sw1ilcGjsSkZPHgYbS4Hn5PnLt4Qxw/ddkzWfKBw2fFvoNnxP5DZzxnpuQSZafPhnnObt28dV9EPooRyckpzzXgITdaalqaWKTth6Lavvp6v8mpVrbsOOrTsH3j5j1Rv/nA/zxHhVpdPPv965aWnu5Zs7n3oJnK50gOSnG3GyXOXbiuLOtXr+kA5fdhPgRAWIlSAIwIhABYsFSwqNmwtyfozV24UQsRRzwh6eLlm+LuvUfiyZN4kZqaZtow9M12516kJ9wtXbnDM2pVrooh7zlr3nqEqN9soKj5SW/P5Uh55rJ8zS6eQCMvWcp75+o07qcd8AYLV9uRon23iaLXwJli5IQlYu6iTWL7nq/E+UvhnnsX9WEmN9olbd/IM6/f3I/yTNu5Czf0v2qozZ7/hefM79fPUbx8G7Fo+TaRnpHhCchrNuz13BcoP0P6z1Wz1sM9E3vLEcT6NnzcYuX3YT4EQFiJUgCM8NcAKAdllKwSKnoPnCUOHjnnmYpFXsazStCT2ygvLSckJnvOMM1ZsFG06TxeVKvf0zPK2FGh7X+mRTFCXsIsWq61Z4LlSrW7iVqf9PEEyqmz14rd+06KiPuPPJMjp6ala0EnI9vfO/n4MU8SREjHscq2ygAvw7qvmjwLWq7m09HF31S1bncxfOxi0anXZM+tAPqfSzUb9hJh1+9+a1jetuuY8jcwHwIgrEQpAEb4YwB0auFo0Kj5nsui33aANmuTZ5PuP4jynKGcNH21+FgLZPrXl9NqNOjlGegizxTuPXDKM2ji9p0HIvpxrGdKFF81Gf7uP4wSvQbNVMKtDLxLV+3U/8lLNzmad+T4Fz9L9/WSft82UOTrdu3GPVG+Vhfl72EuBEBYiVIAjPDHAChv1o+NSxRWavLs2o2bEWKZFnLk5dlSVTsor8sMZACS90+62o0UvQfPElNmfu5ZCk3ebygvqUdFx3pey4s2Gf7Cb94X/YfO9dyjqX9eOeGyvBfTF00+194Dpz2XyfXP8yx1G/cTBw6fe+aqLnLlEqaDMT8CIKxEKQBG+FsArPBxF/EoKkZYqcnL01NnrRNNgoeKYuXV8GN28uycvM9Q3qMnJ1Lu3m+amDhttRYM94lTZ8M807Z8VyiUAy3kZfoWbUaKwmVClMeXuvad6rOzjXLJt659pnpuE9A/z3eRk1HLOR7lbQTPaomJyZ5/iOgfA+ZCAISVKAXACH8LgPLALlffyO571Yy0r+/vk6N35Yjjilpo9bdpQ+SkyvJMXolK7UWZah1F7UZ9tX0zRUybs15s3HLQM5BFjrads3CTZyRtiW+5106SZx33a7/viybn6VuwdMu3Bs1vI+d8XPvFvmee+fu6yX38hfY6i5dvqzwWzIMACCtRCoAR/hYA5Vx9q9ftEdt3f+UJGXL6E3kWSg6kkNN5SBcuhXv+X06LcvnqLZHTTV4mldPMNGo55L9GoMI7ec/ds5Zne94mPw8ykOqf41nkIBk5Nc2LtFNnwkTtxn2Vx4J5EABhJUoBMMLfAuDXCpYM9px9kvd5yUEM8gxU3Sb9POo1G+CZEkWO5Jw5/wuRU01eBj197proM3iWKFG5vbLNUMlRyktX7/Q61cqLNjlBs7xErX+O5yHnIHzRFUjkfYBtOo9THgvmQQCElSgFwAh/DYDPo33XCZ7LsDnRYmMTxPwlm7Ug2o+zfi/gU9cgce3GXcOX9OWcfvKePHlpWv8cz2vIqAWekc/P22TgHzZm0X9WGYH5EABhJUoBMCKQAqC8z67Sx11Fu24TxM4vj3tu1DcaLL6rybNW8nLv9t3HRJ0mBL8XVaxca7Fk5fbnvu/u25oMf/K+P3kWT/8cL0LeB9g0ZJjn1gL52Xmetn7zQc+ZaP1jwRwIgLASpQAYEQgBUB6Ag0NHi0nTVoujxy96JjbO7ibPLG7eflh06TvVM9GyfpvwbM1bD/dMjWOkyXkgt+86JqrU6a48/suSo4EnTFvpWTlFriX8Xe1q2O2Xmm4GOYMACCtRCoAR/h4AGwcP9Sz9duvOA59NI/JtTZ5NjIyK8QzwkKt2lH6JwQZ4Sobmpat2GL737/yF657VTfSPb5S8rCsHp4wcv0R8uf+UiI1L0D+1p8mzj3J5Pv3fwxwIgLASpQAY4c8BsF3XCd+5XJfR9vV0LvIgfzXsjhg/eYWo17Q/l/x8oEmrYSIu/uUn887U9k3Y9TuiqfY4+sf2JblGsBxVXKdRX9F74Ewxf8kWsW3nMc9o469OXhIrPt8lSlf99ilukLsIgLASpQAY4a8BUN7rd+joeeHrJsNkfEKS54zikeMXxZyFG4Wr7UhPENBvA16ODNBHT1zUv/XP3eRZwwuXwz3zC+ofG/gmAiCsRCkARvhrAKxev6dYve5Lz5qsRgZ7yDDxOCbOM1/g7n0nPRM3y5Gd7vajRMkqnNnxNXlpVV5Wfd5BFt6aXKu4dadxjL7FMxEAYSVKATDCXwOgPCMnb77/xDVItNHCQL+hs8WUmWvFqnV7PCOAjxw7L06fCxNnL1z/D3nZTt7PtW7TfjFv8WYxYvxi0bn3ZC3sjfYscyaXmStSlgEd2UnesynXFH7ZwH7j5n3RNGT4Cy/zhsBEAISVKAXACH8NgHpyChY5B5wMcHK9Xbl+rZwW5Jtkrbj2s6La78ilwgqU5LJuTipbo5Nn+bSMF7xnU4bF1LR0z/Qs9ZsOUB4X+DYEQFiJUgCMCJQACHOTAX3c5BUvteRbQmKyWL1+r6hWr6fyuMB3IQDCSpQCYAQBEGYg10WWS6e9aHug/c3EaatE2eqdlMcEnoUACCtRCoARBEDkNhneDh49J16kyel3jp+6LNp2Gc99mXhpBEBYiVIAjCAAIjeVrtpBrNu477kn6U5OSRU3wu+JQSPns8IKDCMAwkqUAmAEARC5RQa4CVNXithY76tofLOlpaeLS1duidkLNnrWVdY/FvAyCICwEqUAGEEARG7p1GvyM+/7kxNvXwm7LcZPWakdrAd7RmjrHwd4WQRAWIlSAIwgACI31G3aX9yNiBTfbHI6FzkFTEpKqmfy7R17vhJd+0wVlet080zho38MwCgCIKxEKQBGEACR0+SciwePnn8a+DIyRGxcgrh996E4eeaqWL9pvxgwfK6oWKur8neArxEAYSVKATCCAIicJifbllO3rPx8t5g2e51nQEdw6BhRvmZnz3yA+t8HsgsBEFaiFAAjCIDIDXIASPEKbQl8yFUEQFiJUgCMIAACCFQEQFiJUgCMIAACCFQEQFiJUgCMIAACCFQEQFiJUgCMGDF+cVWb0xWh7xgBwN81dA3sp+8TAbNSCoARI8YvKa91hHf1HSMA+LsGLQZ10feJgFkpBcAILQAWtzndN/UdIwD4uwbNB4Xo+0TArJQCYIQWAD/SAmCYvmMEAH/XsMXAOvo+ETArpQAYMWLc4v9nc7gu6DtGAPB3DV0Di+r7RMCslAJgxMq1u950Vmx3VN8xAoCfy6rXuN8v9X0iYFZKATCqkXvIKi+dIwD4s+gVK7a/oe8PAbNSCoBRWgAc5KVzBAB/djgtLT2vvj8EzEopAEZ96h5S3UvnCAB+y+Z0T01NS39F3x8CZqUUAKOq1Br9c61DTNN3kADgpzJtRd2NUlPTlf4QMCulABi1cuX5V+wO9yUvnSQA+B+H+9G4CSsLZmRkKv0hYFZKATBK6wTz2BzuqUonCQB+SOvv9pw8ffW3+r4QMDOlABgl/xVcv8nAClrHmKLvKAHAz2T8PX+9oceOn39T3xcCZqYUAF84fe7an+wO90kvnSUA+BHXg7oN29S5fv260g8CZqYUAF84ffbau7bi7olaB5mldpgA4CccrgMLl239o74PBMxOKQC+kJqaFjRtzrqPtQ4yQukwAcAP2JzulPbdJo5KSEhi+hdYjlIAfGXRsi2/yFesxWato8zUd5wAYHU2hzuiW58Zdn3fB1iBUgB85ezZsKB6jfuGah1lvL7jBACrK1Gp/ao9e06z+gcsSSkAvtSrz5xf2Iu7r+o7TgCwuIyqdXuU1vd5gFUoBcCX5Mz4lev2aCc7Sy8dKABYUabN4Vpx917ke/o+D7AKpQD42vBJK35iczIlDAB/4bob0nFshbi4xDz6/g6wCqUA+FpU1JNXPyrQyK11nHFqRwoAlpJmL9Zy5p69p36o7+sAK1EKgK+lp2cErVi18xcFSwavsjMvIADryspfwn1x6JhFhePjk5S+DrASpQBkl6mz1zm1DvSi7ES9dKwAYGo2hzspOHRMa33fBliRUgCyy+GvLuStWr9nJztrBAOwoIKlgtetWb/vHX3fBliRUgCy06mzYd8vWrb1Bn3HCgAmd2n557sK6Ps0wKqUApDdqtfq/YHN4RkVzAohAMwuy+5w3StTsd0nN29GMOkz/IZSALLbg4ePX2nYYkg5rWO97Olc1Q4XAEzB5nDFVK3bvevRry68qe/LACtTCkBOuHb97htNQ4Y30zrYB/oOFwDMonyNzuMPHT33vr4PA6xOKQA55dadB2/XatirtZ1LwQBMyOZ0rzpz7tpP9H0X4A+UApCTkpNTX6nRsHdXu8MdbedyMAATkNO9VKjVeb4W/n6RlZWl9FuAP1AKQE67fffhu81aDQ/VQuBdOyEQQO5Krlqv5/RDR8//Rt9XAf5EKQC54dr1u+81ajlU3hMoQ6C+QwaAnJBaskr7CcdOXPqFvo8C/I1SAHLLg4fRr1dr2KNsPqcrTOuIM7x0zgCQHbJsTndU4TKte5w6G8aADwQEpQDkpiex8UHuLiM/qFqvx3K70xUrO2YvnTUA+ErGP4s0Plimakj1k2evMs8fAoZSAMzg8LHzP6tSr0dXrXO+7aXDBgBfiCtYsuXicZMW/GPLli1KPwT4M6UAmMXp89fe+NUfbOVtTvcWraNO89J5A8DLyNT6lYu2Iu5WK1bv+h993wMEAqUAmMnDh5F5Pv9i748q1+0WXLB0qwt2pyvVS2cOAM8jQ97rV6VO9wljJy7/bVRUbN709Ayl3wECgVIAzGr85OW/+fOHlSbZHe5rWkee7qVzBwBv5CCPR/mdIatadhhXLjUtPY++fwECjVIAzCo9PT1o0mfT3wrtNbFcPmeL+VoQjPfS0QPAN2Xana599ZsNarx0xZf/8/DhE6VvAQKRUgDM7uGj6KBTZ6/+uEKNLnW0zv2slw4fAKT7Nod7wO69J/8Yfuv+K/q+BAhkSgGwioyMjKCjxy++X6JSt47/LNrytN3BQBEAnrXFI4pUbDdt8codf0rPyMjDcm6ASikAVrNu3aWgAUNW/L1AKfdUreO/ZWfuQCAQad97V4zN4V7Xo//0WnM+380ZP+A7KAXAqjbtOPTeoJHzqtqdLVZrB4IkLwcIAP7K0eK4u+1I9xdbDv3ySWwCgzyAZ1AKgJXFxSe+En4r4kefugfXtTncV7UDg5w2hjOCgP+RZ/wybE7X/eLl2owqWrzMrx9FPXlN3ycA8E4pAP4gNTU9qE3bCT+t2bBPPy0InrMzbQzgV2xO971y1TvNCek2+p+Xrt3kjB/wgpQC4E9OnA57bers9QWdFdtOsztdD/UHEQCWk2B3uLeMnrSs3rYdx97Wf+cBPB+lAPijY8cv/mDyzM9r2pzuHfanl4X1BxUA5iZv5bjyhw/atRk+6ovfJqekMsgDMEApAP4qNS39lVmzt3y/ev0+jewl3JftTleyl4MMAHNJtzvcEZVqd53Qpf+0n0VHx+dNSUlXvt8AXoxSAALBoBHzftskeOhI7eBy2XOAUQ86AHLfw+r1ey7oM3BW8XsRj/Lqv8cAXp5SAALFtRv33qr+8QTnh4WCZ9idrgQvBx8AuSNV+05+WaVm//pHvrrwI/13F4BxSgEIJNevPw46dvzKDwsWbV7H7nAdsz9dRUB/MAKQM7LsDvddm9PddfmaXX+4du0+o3uBbKIUgEAjl4mSNm458G6TlkNbFirV6ox2IErxcnACkD3StX+A3W3QfMBn4yav+NnX30n9dxWA7ygFINCN/WzlBwWdbSdoB6Tr2oEpw8vBCoBvyJG90QWcLZaFdhlf6UlsPBM5AzlEKQCBLjk5NWjb9pPvdew6sYy9uGuhnUEiQDZxfVWjQa/6W7cf/tn9+4+U7yKA7KMUADwVExOX5/adhz+oUKtz/eLl25ywOzyXhVlWDjDElZ6vePPwoqWD++w7ePq3Dx5GM58fkAuUAgDVwSNnf1qheudutuKuk3YuCwMvI1MLf3eLVgyZ3qxl179u3LhR+Z4ByDlKAYB3u3cfyzN5+hpb/hKuqdrB7K6ds4HA84rN73Sv6T90Tu1l63e8of9uAch5SgHAt8vIyAw6dPTc9weMmFvJ5nR9oR3Y0rwc7AD8m83pvtwkZFiTQ0fP/7+YJ/Fc7gVMQikAeLaU1LQ8wa1av1WpVodPbMXdZ7SDXKKdM4KAJL8Hadp34nr5ml2GOktO/VliUjLBDzAZpQDg+cXExAf17T/nN7Ub9xtgc3iCIBNJI8C5HpSp3mFG32Fz8p+5cP1V/XcGgDkoBQAv7vTZsNdXfL67UP6SLWdrB8Fo9aAI+L0kzZaJ01Y12LX3q3f13xEA5qIUALy8tRuOv/+rP3Sult/p3m93uuT9gVwWhj+Tn2+N61b+4u6QSZPX/DIpOYXLvYAFKAUAxs1esun1Jq2GNrU73Oc08v5A/YETsDaHO83mcN2o07jf2O79p/1I/x0AYG5KAYBvpKamBY2btPx/m7UZMczmdF+xc38g/IT2eY6uVq/HnDGTlpcMvxnxuv6zD8D8lAIA37oWfu+dZu7xRbUD5yJNsv5gClhIut3p2l+mYuv6J05f4awfYGFKAYDvRUfHB50+d+0HZap3qlm0bOuDNoeLaWNgGTaHO71gqeCwMtU6dFi1bs8vHzyI4j4/wOKUAoDstfaLfe936DGpXX6nZ9qYVP3BFjCRdE34Xz6qOn3CtFW/0n+WAViXUgCQM0aPX2Iv6Gw+Vo6gtHN/IMwnLl+JFova95xQaeSocW/pP78ArE0pAMgZCQlJQce+Ov+91h3HlrA5XGu8HICB3HK2Uq0u9Q8fv/A/9x9G5dF/dgFYn1IAkLNSUlKDIqNi3qrwcad6HxX69JDd4Uqwc38gcprDnZbf6bpYvkZoj0PHzv8sKSmF4Af4MaUAIHecP38+qEPnfr+sULtbd5vTfdrOZWHkjCwt/N0pVDp4xrBRsz88duyY8tkE4H+UAoDcte/I+VdnL9xYxO5wTdEOzg+9HLABH5Gj0Vt8PnDEvJrrNu9/T/9ZBOC/lAKA3JeWlh50+eqt7/cbOresvYR7h+3paEwuC8MX5Ocow+Zw327YYlBD7XP2P7GxCUzrAgQYpQDAXGbOnJmnQYtBLfI53Ee1IMj9gTAi3eZwXaxev+fAFu5RP9F/1gAEDqUAwHzuP3ycZ+yU1X+q3bhff7t2APdyYAe+m8MdWbJy6IzxU1YWPnnmSl79ZwxAYFEKAMzr/MUbb36x5WDhfE73ApvTHacc5AEd7XOSYnO6tk+esabOwSPnfqD/TAEITEoBgLllZmYGbdt+5HtlKrWrWLhMyG67wxVv57IwVKn5nS2vVajevfmMmRt/nJKSyn1+AP5DKQCwjhnzNr3dptO4djaH+4R2wE/yEgIQeNJtTtfVT92Dx/QfOufX+s8MAEhKAYC1xMYlvhLaZdiHf/mo6lC7wx1u52xgIEv4sGCDGTXqBpcMu3GX5dsAfCulAMB6Hjx4EHTw0PF36zUcWsDucK3XgkCal3AA/5Vhc7qPfugMrn/46JkfXblyRfmMAMA3KQUA1pWSkhZ08XL4W/Wb9q9aonL7PXani4Ei/i21UOlW5+s1HdBm/cb9P0xKTs2TlZWlfC4AQE8pAPAPazfu++lHBbp2sTs8y8pxRtC/yDN+14uVaTp53ORlf9XvewB4FqUAwH+sXHnu1TETlhe0Fw0eq4WG+3buD7Q8Oa1LPmeLRe17TCy/Zduud1NTU5X9DgDPohQA+JeEhOSgq2F332vVaXSRwmVDttoc7jQbQdBqsuRygIVKB58tXbVDw6vX7vwoKvpJHv2+BoDnpRQA+K+HkY9fr9NoQAO7M/hLLVTI+QP1QQPmk2Er3uJ0+Rqduh06dv7H+n0KAC9DKQDwb1evRgRNmb7hdxU/7tbN5nRfsnM20Kzkfrnzr+LuGeMnr/jXzp1HOeMHwGeUAoDAcPz0lbzzl2wpZnO4p9sdrsdeAghyjStVs2HgiHlVdn558geM7AXga0oBQOBIS0sPinwU8/agkQuc+Uu12mF7elmYM4K5Q97nl2x3uC986h7yibZfvpeYlMzybQCyhVIAEJgGTln5VvM2I1rbHa6DdqcrUQYSLyEF2UALfpnaf8/WbtR3YI/es38ZF5ek7B8A8CWlACBw3b0X+erCpVs/qPVJ7z5aELyhDyrIFlGFyrSauXDZ1sKnzoa9pt8nAJAdlAIAhF2/89Zvfv/PwnaHe5kWUOTZQH1ogXHpmr2/+K29xvqNO3+o3wcAkJ2UAgBIcoLh3QePv17f1a9ssbJttmlhhWXlfMDmdCfZHa6LnzTt32Tu3PVvp6SkBmVmZirvPwBkJ6UAAHrzF2/5fufeU7pqAeaYXIlCH2rwXDJsDtflpiHDRgwbteAvGRmEPgC5RykAgDfRMbF523ZY8NFf/tlmiN3hWVZOH3DwrVxJdmfwvOYtxzuuXb/7jv69BYCcphQA4NtERSUGXQ27/06NT3vmL1q29RdPg42L0cLeONxZdocrpVDpVkcKl29f68SZsPcjI58o7ykA5AalAADP4+yFa2+GdBxTq1TV0O12lpX7L/IyeYESwWdCOo5ts27j/u/r3zsAyG1KAQBexIbNB/5fYWdIDy34nLY/HdmqBKIAkmlzuMP/Wajp+BHjl/xL/14BgFkoBQB4UQcOnnt99MQV+f9VzD1eC0ExXoJRIMiyOVzLQzpNLLXnyxPfS0hgMmcA5qUUAOBlpKSkBUVFx77ZrusEe/maneWycrH2pytc6IOSP5H3+SWWrBJ6tGrdbvUePHz8bnxCUh79ewMAZqMUAMCom7fvv9uw+ZBmdkfLXZ5579Tg5A8y7A73qcq1enTfd/D0z/XvAQCYmVIAAF+4dOlOniXLd/6pTLWOPe1OV5iXAGVhrvv5na7JM+duKHTgwPlX9K8dAMxOKQCAL126cvONBUu3FtKC0zy79UcLy7N+W/sNmV3+zLmw76elpSuvFwCsQCkAgK9lZWUFTZ589JVa9UcWKVjCvcPucMmBIlaZP1De55dgd7T4qnajfo2Cgze8wtJtAKxOKQBAdpr02fIftuowpo0WqvY8nUhaCVxmooVU14k6jfr1HT120e8fPYphgAcAv6AUACC73b77MO/GrYf+XLVe93ZayLr4NGgp4Ss3ye25rRmzduM+25lz11/XvwYAsDKlAAA5JeJ+1Gvbdx/7g7Nyu9YFS7c6aXO6E+zyPjs1kOWETO35k+0lWt7StqfflNlr/37z1v13MrOylO0GAKtTCgCQG+Yu3vJmmy4TqjZ0DVpgc7rOaGEsyp4DZwa154nXnu9itfo91rTpMt7Vd+i8H+q3DQD8jVIAgNwUfivi9Wlz1v1D07RI6ZDJWkjbq4mw+/bMYLTmiGbe0DGLQrXnKnT4q/Pv6LcFAPyVUgAAszh89MK7+w+f/bOmaPV63T/VAptcam6D/el9g887pUyKJlyzTTPFXrx5m917T5TQHvODA4fPvp+QmMzADgABRykAgBnFxSW+EvMk/g3NO5rvh4dH/LBGrd6/q9mgZ+EaDXuUqV6/V/XqDXvX0v5bo0aDnuW1WrGatXv/efuO4z/Rfv8H//67NzWvymlp9I8PAIFEKQAAAMC/KQUAAAD4N6UAAAAA//b/AZrBcbi8y0VWAAAAAElFTkSuQmCC;clipPath=inset(0% 24.67% 0% 21%);" vertex="1" parent="J-4PL1bRExIhTpd28Z0a-54">
          <mxGeometry x="223.79999999999995" y="3.9230769230769225" width="38.58" height="40" as="geometry" />
        </mxCell>
        <mxCell id="J-4PL1bRExIhTpd28Z0a-61" value="&lt;span style=&quot;font-size: 20px;&quot;&gt;&lt;b&gt;Roles&lt;/b&gt;&lt;/span&gt;&lt;br style=&quot;font-size: 14px&quot;&gt;&lt;div&gt;- Store unstructured Data&lt;/div&gt;" style="html=1;shadow=0;dashed=0;shape=mxgraph.bootstrap.rrect;rSize=5;strokeColor=#6C767D;html=1;whiteSpace=wrap;fillColor=#ffffff;fontColor=#212529;verticalAlign=bottom;align=left;spacing=20;spacingBottom=0;fontSize=14;" vertex="1" parent="J-4PL1bRExIhTpd28Z0a-74">
          <mxGeometry x="305" y="324" width="270" height="130" as="geometry" />
        </mxCell>
        <mxCell id="J-4PL1bRExIhTpd28Z0a-62" value="MongoDB" style="html=1;shadow=0;dashed=0;shape=mxgraph.bootstrap.topButton;rSize=5;perimeter=none;whiteSpace=wrap;fillColor=#1ba1e2;strokeColor=#006EAF;fontColor=#ffffff;resizeWidth=1;fontSize=18;align=left;spacing=20;" vertex="1" parent="J-4PL1bRExIhTpd28Z0a-61">
          <mxGeometry width="270" height="50" relative="1" as="geometry" />
        </mxCell>
        <mxCell id="J-4PL1bRExIhTpd28Z0a-64" value="" style="shape=image;verticalLabelPosition=bottom;labelBackgroundColor=default;verticalAlign=top;aspect=fixed;imageAspect=0;image=data:image/png,iVBORw0KGgoAAAANSUhEUgAAAOEAAADhCAMAAAAJbSJIAAAAolBMVEUAHisA7WQA8GUAHSsA8mYAACcAHCsAGioA9GYAGCoAACYADikAGSoAFyoADCkAFSoAESkA5GIABigAkEkAzlsA32AAt1QAqFAA1F0AJS0AMTAArFEAUjgA6mQANTEAok4Ax1kAaz4AnE0AXDoAOzIAQDMAKi4AiEcAdUEAzFsAv1cAgEQAYTsATDYAVzkAckAAACEAlksA/2oAf0YATjcARTQMLnchAAAHqklEQVR4nO2dWXuyPBCGIQQIoCzuG261q3b73vb//7WPgFRUYFDbiwlX7oMecZCnk0xmJpOoKBKJRCKRSCQSiUQikUgkEolEIpFIJBKJRCKRXIfma3UP4W/R3K7bbIl6979Hve5B/CXuTiXqnVP3MP6O1mREVDKatOoeyF+h6QOqqiod6E1divojFxhJbOpS9F8TgZHEV7/uwfwF1jxahAnRUrTqHs7vo7kDpqawgWPUPaBfx/6k6gHatese0G/TWanHrDp1D+l38TYBORJIgo1X96B+E9Po0RMb0p5h1j2s38Pwp0w9hQ0bFIPr3XOBkcRuYzZ+/YnkCIx4b4hE/y3IV0iCWSNiG9PsF5hQJf1WA7yN4S5P3WjGob644sc2+jrPy/x4m7XwmVTnvURf7G0Ej228+8JFmC7FTbvuQd6CoZcswv1SXAo9T/O3+pOlKHLG789AfdyK4u6K5sOofBHul2JvLOiuqOlDeI7G8/RT0HTYv6ukLyIUc54abqU5Gs/TkSdiaKN/QhvFAfopoD9tb6paMLbiXLh9X/MH1U3IQ3DhzhXdXTU/msJ2gp1IVdwKM9N0NBbL2VQJ146hYlVtWnMgpcgxYn8j0rGivrjEzSREyXDdw66ONb90jsYo4oSnnenlJoxW4lqYdN+aX7oIE8IHUYzYGV5jQp5jCGJE6z64SqCqBnMx3Onle+GPEcVwp+bkwnDmgCCBjfN03Srk0H8CRKeafrUJIyMuBZim3tvV+jgz/Gff+pVbRQIdojeipl+7VSSE6Cvg/oWZ7ylshbzsprkXFS/OoVPk/Qvm5LZJGsU1E9zBqb+6bZLin6b6VXlTFjpF7U0NuAAF/QeiyA3zNPXuwHimC1rxDfOm7z6Cy/Af9AF7dOuWUYL+Ai7DFfQBeUG8EDUDLiKCx8Kkb+DdEb23EBq/eg9+ESJeiO4W3ivG4Bd0izdJ1NewQh1WuMC7EO0lnPza4BeY0+AqmdMH/EmItnHBGIMmJP2PCmc2D1jrUd4MVjj6gMs45AvrkbcPV9nI88czrPAda3rhdmGFy48XUCHtYq3ud+BTQzr4gIsAdIFWIZwc0ulHhY+GSBVWqdHQhV3F0EhrNZoDZxZ0XUmhg1ShDzsR9ml/gikkwdo+pPlw0Ma6Npwkkxe0NuzBCh+rKHxGa0N4M2dbewsrXGJV6FTYzJ8Kr3llFOKdpbBCdaVDV0wwK6xyZrHTd2ClA+1+qLhwuBK+uXAth06x1hMr9NEEM3cGpsloozalA5dpgnsf7rbB2/7lwKW2/sab90GFaDsy4FML0n9oT8AyBkFbMG2B7fmkr7QUuFCD9pBUA2uhpG8ZPqwQb7eCDVWZyKhjuJBC0kNbTYR7acjIhv8NmHtqwONDbh4bykAo4gNED4rIeMFeh7LI8A6rK+XH+MAao4NIIRC9RjsK1pJ3BGQf3mgBLVayxOto4IXID86guxi4z/G9XbkNea96BypFoY1oOFA/Deu6ilveBk5GmJehArkRPgOBmcydEWa88uZL9uQozlP5J4j3Cg6wX7AnX/HfyxTi3isUXqsprWTwxsPy9kU6xZr9pniz0udodh4wkdk31vPfH+yyaRorLMuTeWiOnfKD4GivK72ugDnqTintgw5e20r7q+wDES7olbUJB6+WYn0XK8ScGh7wZoUpVHybuVXysFL4it7PcIrjGjKam4o5L4zs6KCDtkKTxfsqMiIZTQzFKL69R5DHMymaU2RE0htHCsdFZQxxHsdo3xfs6eTZjBQqRQrJtxgm5HXTAndKlp5WfNyP/KbFEdY8fyWSZeRJtE5RqUOk1+gLmoWTNvyCYo5Y7wwZSq6/LFMoyC3nH9xVnopkpeWvUrbCH5FmiXaMHH+a9KjnFtvY1BZkp0hpnz7gHcuID3fzim0kmAv30r6bU47hpbb8oqpoczTGPu9UZNtY4XlXFHvBn/ieY1hnOQQvtfF28FOFovnRFGd1Phd5i7p3VooKRXvKLEU/LWjwMg1vaDhRKO5PQZjWyVJk8ZGE93askL1YQs5RTuukK4HFKbz1faSQ9DsC1GaK8O7DrER2zzc96yi5inZCISoXRdhP2SyDxY/OtTZZhaHoD3rrjxkjhnM+H8151oRbkTKKPLTsq/PBhLsUc3KwK1uLFo6eYxwk7s+VMudTbK0L60YPGD/Z0j50Mcdp8kiHTRAYSWzva2+kp8Q2TEtRdOA3QmDkPK0kWSRLI1aoJUk+G1gCb4THmH78djnp+bEvTe5lsIXbGIF8LS5Y7FgiUaYbux620BskUOGyCOEd3G7b5XU4QtYN+P2VIwx9ywM4uvB50xcJt83wolk0fRdE2mjy5w5vG/ANOP5+HyQjRdCMFyItI2J++OI20hsneG+M3EpaKE2Kik3E2e7XIdo7MbfirfYpBfJH564n7dIIBXik9Dpam71CoV7QvwRNSXqFArNx8cye9PXWoJEBTUxyIQjzvaZbSZ7ko5gf1buR5DKJGO1519GJLyI0N6RJz0ZZY0MaZd+mz9A+dHU7ycuRmF9+vBXrO6CUBt/CtV1UxngYDgaDIfI7Izeh+Y7jNKXQnY/GqXsQEolEIpFIJBKJRCKRSCQSiUQikUgkEolE0lT+B4h2dnif2MTUAAAAAElFTkSuQmCC;" vertex="1" parent="J-4PL1bRExIhTpd28Z0a-61">
          <mxGeometry x="225" y="5.25" width="36.75" height="36.75" as="geometry" />
        </mxCell>
        <mxCell id="J-4PL1bRExIhTpd28Z0a-34" value="&lt;span style=&quot;font-size: 20px;&quot;&gt;&lt;b&gt;Roles&lt;/b&gt;&lt;/span&gt;&lt;br style=&quot;font-size: 14px&quot;&gt;&lt;div&gt;- Service Discovery&lt;/div&gt;" style="html=1;shadow=0;dashed=0;shape=mxgraph.bootstrap.rrect;rSize=5;strokeColor=#6C767D;html=1;whiteSpace=wrap;fillColor=#ffffff;fontColor=#212529;verticalAlign=bottom;align=left;spacing=20;spacingBottom=0;fontSize=14;" vertex="1" parent="J-4PL1bRExIhTpd28Z0a-74">
          <mxGeometry x="15" y="294" width="270" height="130" as="geometry" />
        </mxCell>
        <mxCell id="J-4PL1bRExIhTpd28Z0a-35" value="Zookeeper" style="html=1;shadow=0;dashed=0;shape=mxgraph.bootstrap.topButton;rSize=5;perimeter=none;whiteSpace=wrap;fillColor=#1ba1e2;strokeColor=#006EAF;fontColor=#ffffff;resizeWidth=1;fontSize=18;align=left;spacing=20;" vertex="1" parent="J-4PL1bRExIhTpd28Z0a-34">
          <mxGeometry width="270" height="50" relative="1" as="geometry" />
        </mxCell>
        <mxCell id="J-4PL1bRExIhTpd28Z0a-40" value="" style="shape=image;verticalLabelPosition=bottom;labelBackgroundColor=default;verticalAlign=top;aspect=fixed;imageAspect=0;image=data:image/png,iVBORw0KGgoAAAANSUhEUgAAAoAAAAFoCAYAAADHMkpRAABKhElEQVR4Xu3dB3gUyZ0GfLE5eb1r+7w+r+/sCz7fOdzZPtuffd/nO58v+WyvbWYALezCwrIwrUgUOecMM8oJRZCEBAgBIkcRJYFQQhHlnLNmpBnV19V4fbtds6AwPVM985af38P6z2i6W9JUv3R3VbkRQtwAAAAAwHUwBQAANSqpyX/pUs6pv7qUc/r/Ff+cLJor8hH5PoWX6APRr8Wv/aH451fbupqflb8/AIAzYQoAAGpx5m7K65Fn9v8q8uz+1etivOMFvfaqqFBn0DaKBgSDdkREnsIsvrZXp9fWiF97T3R+b8q6CPE9vSLP7PtRQeW9l+TbBQBQO6YAAMAj07DRrXeg+4Wmjvo310R7/HpNtGe4T+D0AkGvaRUehz2LlXA3XmZRj/jejUvCZmeK29oVeGLLP4rbf030nMViZvYPAEBNmAIAAE9GRkbc8iqz34y/GPhzwaDZIAazQiuBzR4GRZcFw2Sf63nn/qmyqfRF+b4CAKgFUwAA4EVeRdZrJ24d+o0YvKIEvaZSsO1VvvEyi/tyb22M56a02wn/T1NH3Qvy/QYA4B1TAABwtLbulmcOHN/005UH58eKgatKGN2zfPZE98coerg1Ycmug+cMX5UfAwAAz5gCAIAjGI1Gt+a2xhf3Jq39pm/gjDCdXtslPH4Wj7fw90l034Y99FOqfAPfW5B649DXWlqbn6W3reXHBwDAE6YAAGBvpmHTpGOXDn/Td8/spYJBUyzwcat3rEzivl9dslOYlVue+ab8GAEAeMIUAADs6XrBhVeizhtmCnrtFTFE9VkJVmrTsTR0TtThS6H/9qi+5Hn58QIA8IApAAAojd4irW4se3bHIb8fLQqdlajTa1qsBCn10muHRRWrDgq79Ylr/9xsMU+Sfw8AAByJKQAAKKmls/GF4pr8vxcDUpAYlrqZ8ORs9Nr6bQnLdGV1D7/WN9CDFUYAgAtMAQBACb0D3ZPO56R+Y1fSygViKLrPBCXn1i8c0KbHnA+YkVF4/nPy7w0AgL0xBQAAW0u+mvyM/vhGd8Ffc1F4fNWP55G9ShmhS9T5BE+PCTyx55+zirNwWxgAHIYpAADYgsVicevqa38p7dbhH3n5ux/W6TUdgjpH99qUTq8dFlUuCpm5Nb/y3jd6BrpxWxgA7I4pAABMVGVT+bM3Cy7+o7B/8k4x9DTIQxD8SfGqaGH2g/I7X2vvbsYVQQCwG6YAADBeTb1NbknZ8X++Pm6Bp6DX3BJwxe/p9NpeD/3kowEnNmuP5CW+Iv+eAgAogSkAAIzHsHnIbUvCkl/PC9SeEQz0dq/GFZ/zGyeNWWfQ1M8LmRqTnBH9N/LvLQCArTEFAIDRGho2udW1Vb0Sdnb/D32CpscIeg1dHxfBb/wsHoYp9d6B09dfyk3/ZmNHHZ4PBABFMAUAgNE4RU65pWUmfk/w124Ug0sFDS9WAg2Mj1kwaDKXhH0wJ7069Su5JJf5/gMATARTAAB4mvtlt9589+Kv5873n3xTDCv0qp88wIAN6AzazhlRv0pcelH438aO+hflPwcAgPFiCgAA1gyZh9zaulte2Bi7+BdLwmafxnN+dkOnjWlcHe0REXZq29eMQ8ZnzBYz8/MBABgLpgAAINfW0/Ly9rRNP9AZtOFiIDFZCSlgH/XzAqctO3Ir/pvGoUE8HwgA48YUAAA+ZjYPu53JOvotQ+qmNTqD5qEgPZvGhBKwL3rL/WrStci5d4uuvyH/mQEAjAZTAACgruWeeSkwbdt7YvC7LRg0fVaCCDiSXtu6JHT24ZCTO35e0VDynPznBwDwJEwBAFxbUW3hq35R3r/wDZp+SgwaXQKmdeHViBgCzTq9tmlx6MzAjUlr/6ZnoPt5+c8TAMAapgAArqm2terF7NKb3/cKcA8Qw0WnlcABHNPpNeXbE5f7ZJfd/OuegS48HwgAT8QUAMC19A/2uR27dvDr2xOWLxf02nsC5vNTsz6dQXMuLH3P7HMP0l6S/6wBAD7GFADAdRzKPTRp25FlGg+95oYY/noE3O51BvRn2OITNOOQ4dCOfyouLmZ+7gAATAEAnJtlxOJW3Vz+uaSrkf8mGKac0D0eVYrg52z02hGdXtvmYZiyP6s44ztNHXUYKAIAf8IUAMB5FVYXPnPh/snvCwcm7xVDQh0TGsA56TV5a6M8dJcfnPvL5s7mSfLfCwBwPUwBAJxPFalyW1m75K3VUT4LdXrtHQHz+bmaETEEds87MOXknqPrpi4bWPqC/HcEAFwLUwAA5zE0bHIbMPa9uCre851ZEb+5LgYBPOfn2sTgr2mbGf3r+EMXg/9B/N14HsvKAbgmpgAA6mcSg19+be5rYad3/lwwTI59fOJnwgC4LvqPgCbBX7v5XPbx7z1qKHxG/jsEAM6NKQCA+p24k/jdj4Lcd9K54QRM6wKfbVh0d1n4zPm5FZlfkf8eAYDzYgoAoF7ZxTc+739i63yvAPe7wuPRvfITPoA1HSsPzk/1T9v2q5auRqwmAuACmAIAqEtfX4dbXUvl64uD5v7GN3D6VZ1e26/Dc34wdmbx96Z7UcjMeP3x9d9q7Wh4yWQaYH7fAMA5MAUAUI/mzvpXAuOX/szjwB9CxJP3oJWTOsBY0X88VPrueWf1sYsh/2AcGsTzgQBOiCkAgDokXY/8271H120WT9YPhcfPcslP5AATMSDKiDkfMD+j4MLn5L9/AKBuTAEA+HYx79QL24+scBdPzrk6g7bfyokbwJbaFoXOOrorafXPqprKcTUQwEkwBQDgU35ZzhtLdnj8RjwhXxFwxQ/sr19n0ETvDNjy3Zauxhflv58AoC5MAQD4UtlU+sKlnFM/8Q2cESiehNusnJgB7Ean1z7cnrh8qfg7+c3u/i5cEQRQKaYAAHwwDg26RVzY8/bmQ4vWCgZNjoDJnIEbml4xCF7Rp27+MC3r8HPy310A4B9TAADHMg2bJi0dWPyq79FZU3UGTZ6g19Dn/DCtC/BmRAyBnd6B7kfdb77z06MDKS9aLBbm9xkA+MQUAMBx8ivvff7Q5dD/FYNfqmDQYCJnUIvW+QbNgRsFF35Y0VSKK4IAKsAUAMD+CiozJ6XdPvxPHv5T6HN+tQKu+IH6jOj0mntrYjwXpFxP+MvG9kbm9xwA+MEUAMC+imvzvrgqat5SwaDJFjC6F9RN/IeLpnvefu2FLYeXTjGaMIk0AK+YAgAor2ege1Jje+2bK6KEqT5B0+kAD9PjkydzQgVQI4sYBAcWhLyfHHl2308a2uteNQ2bmM8BADgOUwAA5QwPD7ll5557LTBt53/NP6CJFfR4zg+cGv1HTd38A9rtabcTf1haenuS/DMBAI7BFABAOak34v7ed887ep1eUy5gWhdwHUM6gzZrTeD7HtmlN/9M/rkAAPtjCgBgW2bzsNvd4uuf35a4VOcd+G6ueDLEVT9wRdK0MUvD55zdemjpf7d2NT1vtpiZzwsA2AdTAADbaG9vdyuvK/6Cl8F9ms6gvStIz0UxJ0UAVzQ8X69J2HrI758rasteHRgYYD4/AKAspgAAE9fQVvuy4dDOX3judw8RT3Z0Imf5CRDA1dGBImW+ez7YmHAu8rtDwyY8HwhgR0wBACYm+kLg13ckLd+t02tLBEzrAvA0A4Jemxl0cvu8iw9Ovyr/PAGAMpgCAIyNhVjcmoabnjmZlfDFFVHz53gYppRgFQ+AsdHpNd2+QTPOro0U/rOoOhdBEEBhTAEAxuZOdcYbP7r17SmCXntBwAAPgInqET9LkTnld39Y11L1kvzzBgC2wRQAYHTK6h8+d+xG7M8Whs6kz/m1WDmRAcD4jIghMG97wrI1x2/F/m3vYDeeDwSwMaYAAE82MjLitjlu/ZfXxnhu1Ok1DwU85wegBDqJdK9g0NzZlrBiZvyFeCwrB2BDTAEArOs39j5T11r15W2JfjN0em2VeGKiwQ/LtwEoi84fOOhhmHIm8WrEf4ifwdctmD8QYMKYAgCwbhZefT32YuBk8WR0XNBjWhcAB2kWDkwOuHT/5I9La/KelX9OAWD0mAIA/J+iooxJCecM/+RhcA8TTz61Aq74ATiaRdBr7q2L9lgWfjP47cbeRuZzCwBPxxQAgLiZhk2TCqsevLU8dPYKjwOTCwW9dsjKiQgAHEIzojNoeucFaG+ujvGcYjQNPj9sHmY+xwDw2ZgCgCtr726dVFST95ZfxJwZ4ommkD3xAABvdAZtcuCpnb8ors1/3TRkZD7XAMBiCgCuiI7svXrz8iuG1C2/mb9/8iGdNPqQPdEAAJfosnLV4p97E29F/nMCSWA+4wDwaUwBwBWlXIv+hs/emWHiSaRSPImYrZxgAIB/pnn+k+/POvU7n8zi61+Uf84B4P8wBQBX0dnT9uyVvDNv+0XMXewVMK1cPHngOT8A9RsR/yHXvyD4vRsrImb/oba18vM9gz3M5x/A1TEFAFdQWlfwZ4sCZrynM2hvCbjiB+CsTDrDlOjtqRt+3tRZ/5q8HwBwZUwBwJnVt9W8mJIR/R+ronRROoOm08oJAwCcC/0HXuneo2t3pFyP/o7FYmH6BQBXxBQAnFXo2V1vbYjzPSCeDCoFLN8G4GI0A4JeU7D7yKrZl+6nvSzvHwBcDVMAcCaDQ4PPHroU/bWP9rl76/R0ImeNRcBkzgCuii4rZxL/vOEZ/MHvcx5lvSnvMwBcBVMAcBb3Sm68npwR/b7Y2Z8XDVo5GQCA6+r0CXw34mremX+paCx5Ud5/ADg7pgCgdmX1Rc9GXwj42ZKQWZFiJ99ipeMHAKAsOoMmf9OhRZuiLvn/1YCxj+lPAJwVUwBQK+PQ4DMBEcLXlkV8tEOgz/np8ZwfADwVfSSkX2fQ5q8/uGDWqfS0V4bNQ5Pk/QuAs2EKAGrT09/5TGF1zte2JCz+UDBoKqx08AAAozGk02vOxl8M/m1Bdc4blhGMGAbnxRQA1OTWnaMvRJzd93vBMPm4gOXbAMA2GuYZNEGpmYnfvddwj+l3AJwBUwBQizOZKV9afEC7S6fX0jVA6eheeScOADBe5vn+2tvL4nRzHlbnviLvfwDUjikA8GxkZMTtfGf6i/995+e/9Apwvy7oNXRKB3nHDQBgCyM6g7bHN/i96J9V//PfdfZ14NlAcBpMAYBnueWZr3kdmLxE7JhrrXTWAABKub/x8JL/qGmpwJQx4BSYAgCvskpuvLU0dM5WsSPusdI5AwAoiY4WLt6W6De3rrXqVXn/BKA2TAGARw8eZb3tFz4nTOyA+6x0zAAA9kBDYPO6WO8lvQPdL8j7KQA1YQoAvMkqyfi22Omm/7HzlXfIAAB25xcxd3tzZ/0b8v4KQC2YAgBP7pfd/rpXwDQa/pgOGADAcTT9Ww4v3lLdXP5Feb8FoAZMAYAXmSUZX/ML/zBa7GyxogcA8EevbdtyeMnKxvba1+T9FwDvmAKAo9HZ9++V3vrSotCZgWInOyjg1i8A8GlEZ9B0Lo/8SOju73pW3pcB8IwpADhaZvmdl4X92g1i5zpgpcMFAOBN75oY4X9q2yoxTyCoBlMAcLSlsZ5TxQ613UonCwDAJZ1Bkx13OfAH8v4MgFdMAcCRTt898rfege658s4VAIBzpuWR86IKKnO+LO/XAHjEFAAc5cL9tC96+E9JEAwaDPoAANXRGbT9Pv4zljW01WC1EOAeUwBwhO6+jhfCz+zxFMNfm7xTBQBQkaqzWcd+Ju/jAHjDFADsbdg87GY4t5dO9pxppTMFAFAVD8PUo2eyzjwn7+sAeMIUAOxtwDTw7Hz/KdsEzPcHAE5Ap9f07k5Z9zuLxcL0dwC8YAoA9rY9bgG9+tcv70QBAFRqxMOgvZF6M/6r8v4OgBdMAcCeCiofPLcsfG6YlQ4UAEDNOvYdW+/Z3NmACaKBS0wBwJ5iLwT9SKfXPrLSeQJwx9N/qkReB7CCrmB0Mqf8zl/K+z0AHjAFAHvJKr7y/IIg992CXmu00nkCOMAU4hM0nSwJm022JfiRxCvh5EruGfKwOpfUtVaTtu5m0t7TKv3Z0tlAqpsfkYKqHHI17ww5dDmUbE9aTvzC50jv4SG+F/v+4Ep0Bm3P0og5U7v6O7FCCHCHKQDYS0b++e8Lek2WvNMEsDcP/6lkbYwnCTu9m1wVA19jRx2xWCxkrM0yYiHt3S3kWt45Epa+l6yP8yVeAdOY7YEL0WuPdfa2v06s9IEAjsQUAOyhq7fjWUPq5g8Fg6aX6TAB7IRepVsX402Sr0eTh9UPiHFokNiqDZoGSVl9EUm7k0jWx/oy2waX0ZF649C3iZV+EMCRmAKAPdS1VH1B/JdxnJXOEsAuaPhLuBJGKhpLxbA2QEZGRogSbWjYJG6jjCRdiySLQmYy+wHOb2XkfD9ipR8EcCSmAGAP98rvfEdn0DbIO0oApXkHupPtictJXmU2MVuGFQt+n2x0G2aLmZTVFZIdSSuJpz9uC7sSv/AP77V1tzxPrPSFAI7CFADswStw+gfyThJAad6B75Lo8wbS2F5nl+BnrbV2NZHQU7ulfZHvHzgnnUHTGnJ654+Ilb4QwFGYAoA9+AS+myDvJAGU5n9iK2nvaSGObDR4NnbUk6CTO6TBJ/J9BOejM2j7Qk7vWkys9IUAjsIUAJQWdDfwGbFTrJV3kgBK8gyYRioaSwgPjY4WrmoqIxviFjD7CU7JvDjo/UN38i9hfWDgBlMAUNq+I+v+SdBrB610kgCK2Z64TBrswVO7W3yNeAW4M/sKTkivvXku+/jfECt9IoAjMAUApe1NWTNb0GtMTAcJoKDdyau5C4DDw0Nk55GVzL6CE9Jry8QA+EtipU8EcASmAKC0vUfX7BQMGjPTQQIoaEnoB6Sjp53w1s5mH2f2FZxSmxgA3yNW+kQAR2AKAErqH+ydtCNpeZrweJ1MeQcJoKikq5HENGQkPDV6G1i+n+CUzL6hc5eVN5ZjWTjgAlMAUFJyRtQbOv3k21Y6RwDF+Qa9R1JvHZJGAtOBGDy09KyjzH6Ckzqg3V9Sm/8qsdI3AtgbUwBQUkpGzF/p9JocpmMEsJMFwe+RgLRt5MGjTOLoZho2SpNSy/cRnNXk6JK6/C8SK30jgL0xBQAlHc2I/aFOry1iO0YA+1oROY/0DfYQR7Vh87D0/J8n5gJ0IZoTJXUFbxMrfSOAvTEFACWJAfBfxQBYznaMAPZX1lBE7N0sFgtpaq8nhy6HEJ+g6cw+gRPTay6V1BZ8g1jpGwHsjSkAKEkMgP8l6LWVTMcI4AB3iq8Te7ah4SFyv+w22ZuyFquAuCK99oYYADEXIHCBKQAoSQyAvxY7wWqmYwRwgPSsFGKv1t3XSU7fTSErI+cz+wEuQq+9KwbAvyNW+kYAe2MKAEoSA+A7YieIZeCAC3GXgog9Gl3/N/dRFlkT7cnsA7iUrJK6gm8RK30jgL0xBQAlIQACT/Yf2yCGM/tMB2OxmMm57OPEO+BdZj/AZSAAAjeYAoCSEACBFxvifKRAZjYPE3u1mpYKsih0FrMv4DIQAIEbTAFASQiAwIuw03vI0LBJuj1rr0bnHvQNfo/ZF3AZCIDADaYAoCQEQODF4tBZ0m1Ze7aH1blkYfD7zL6Ay0AABG4wBQAlIQACT7r7Oog9W2dvG1kS9gGzH+AyEACBG0wBQEkIgMCTxvZaYs/W2deOAOjaEACBG0wBQEkIgMCT2w+vEHu2opo8sgC3gF0ZAiBwgykAKAkBEHiyPXEZae1qsstAkAFjP4k8e4B4GKYw+wEuAwEQuMEUAJSEAAg88Q58l0SdN5CG9hppjV4l2oj4v34x/J2/d4L4hc9h9gFcCgIgcIMpACgJARB44xM4nexJWUMqGkuJEm3IPERSbx0myyLmMtsGl4MACNxgCgBKQgAEXkWf9ydKtObORuITNJ3ZHrgkBEDgBlMAUBICIPBq06FFRIlWVv+Q2Ra4LARA4AZTAFASAiDwyi/8Q2JWYGLoisYSZlvgshAAgRtMAUBJCIDAq4UhM0l3fxexdWvpamK2BS4LARC4wRQAlIQAqG5Lw+aQC/dPfMqR6wfJish5zGvVxjdohiIDQXoHe5htgctCAARuMAUAJSEAqtv6OB8ib9Utj8i2BD/mtWrjHehObhRckB/ehFtNSwWzLXBZCIDADaYAoCQEQHVz5gBIJ2iOueBPzOZh+SFOqNH5/+TbApeFAAjcYAoASkIAVDdnDoDUpviFpLKxzCYrg9D36OrrIFud5HsDNoEACNxgCgBKQgBUN2cPgFTk2f2ko7d9wiGQLv126HII8QqYxmwDXBYCIHCDKQAoCQFQ3Zw9AHr6T5Ou2NG5+0ZGJrY0XHd/Jzl5NwkrgMAnIQACN5gCgJIQANXNmQPgruTV5PKDdGkk8KBpYMJXAGmj75NTfpdsPrSI2R64JARA4AZTAFASAqC6OVsA9AyYJu377YdXpOf1bD0AhDaLxUKaOupJ8vUo6WogHWwi3w9wGQiAwA2mAKAkBEB1c6YAuCD4PXL4Shhp7WqWH5IijQbBsrqHJPDkdmnSafn+gEtAAARuMAUAJSEAqpuzBMCVB3XkTNZRYhwalB+O4o0+G3jhfhrZGL8QVwNdDwIgcIMpACgJAVDdnCEAbohbQLJLbxLTkFF+KHZrQ8MmUl7/kOw6sprZP3BqCIDADaYAoCQEQHVTcwCk07EYUjeTxvY6YpngCF9bNDrIpKe/i+xOpiEQVwJdBAIgcIMpACgJAVDd1BoAF4XOJLEXA6SBHry1ysZSsjF+AbPP4JQQAIEbTAFASQiA6qbGAOgX/iFJz0yRrrbZYmoXWzd6O/hSzimyMOR9Zt/B6SAAAjeYAoCSEADVTW0BkIY/+ryfIwZ7jKV1i+E0/mIw8Q2czhwDOBUEQOAGUwBQEgKguqklAHoFuJOdSStJZVOZfHe5bWaLmWSWZJDV0QJzPOA0EACBG0wBQEkIgOqmhgDoEzidhJ/ZS2pbKqW599TU6P7mlN8h62K9meMCp4AACNxgCgBKQgBUN94DIJ1X79iNWNLe08Ll836jaaZhEzmXfZwsDMYzgU4IARC4wRQAlIQAyD/vwOlk79G15GLOSXKv/BZJvXWIbDm8RFo5g9cASIMfXWbtyoN0MUA5bn4/W7W27hayJ2UNc5ygegiAwA2mAKAkBEC+0SAl/ozIgLGffLLRQQrX88+Rw5dDP1WnzdEBkM7vtzdlLcmvvEeGFVjL11Ht+M146djkxwuqhgAI3GAKAEpCAOTb2hgv0jPQTT6rDRj75CVpbr3z906Q2IuBJDBtO1kX60M87RRc6HbiLgaRutYqMsLB5M62bAWV93Eb2PkgAAI3mAKAkhAA+RZ4cseYr6LRZ+3osmp9g72ks7eN1LdVk7tF18jOIyuZ97cl36Dp0u1penXSGRuduubYjTjMD+hcEACBG0wBQEkIgHzbkbTCJmvk0lBIAwx9Jm/VQZ10a1m+rYlYE+1BbhRclAZMqHWwx2iaxWImzZ0NJOqcnngHuDPfB1AdBEDgBlMAUBICIN/oM2e5j7JsNn3KsHlImtZkfZwvs63x2pG0nORWZEnz5rlKa+1qIruTMSjECSAAAjeYAoCSEAD5t+/oetLe3UJs1czmYXK3+DrxDnyX2dZYePlPIyGndpGKxlL5Jlyinb57xOZXUsHuEACBG0wBQEkIgPzy8J9K9h1bT2paK8mQeYjYstErgdHn/Zltjhad4oWu59vZ2676W750/8dzDIXVD4hXIG4DqxwCIHCDKQAoCQGQX/4ntkgTKCvVasVguSJyHrPdJ1kUMpPsF0NpdXO5/O1U24aGTdISdR29bWO61U5DY+TZ/bgKqG4IgMANpgCgJARAPvkETZcGbIwlkIy1DZoGpat4C8VQJ9++HL0auTXBj1y4d0K66udMjY5aNqRuJsGndpKCqvtjuhpIl7fDMnGqhgAI3GAKAEpCAOTT0rA5JKvkBlGy0aDTI4af89knyPInXAlcHSWQU3eSSG1rFRkats2t6MGhQdLa1czFwJH+wV4SIoY/eqxroj3Jo4Zi+Us+sw0aB8iRaweZ7xmoBgIgcIMpACgJAZBPXgHu5Gz28THPATjWRkMg3UZ7bytJzoiWJp72DZpBvAPdpVvQtx5eluYSpK8Zy5Wxz2r0iiadJPrg2QPSaiW9gz3yl9i90VVWYi74/+l7f+DYBmIZ5STW9Hty++FV6Yqt/GcIqoAACNxgCgBKQgDkF73lWlSTZ7cVNWjoae1ultYcPnojRpo30JaNvt/9sttk86HFfzpGesvV0a29p/VTS+eFpe8ZdQCkLfdRJvGL+JD5+YEqIAACN5gCgJIQAPm2LdGPXM09Q5o664nZ7PjbpeNt9CriqbtJZHnkR586vlN3j8hfavdGl83z9J8q7Q+dd7G0rlD+kie2+2V3yJLQ2czPDlQBARC4wRQAlIQAyD868nZ74nLysDqXqK3RW6R0Kbqgk9vJguD3mGM7mhEj/xK7t/WxPn/aH7qfY3nOkd7SvpZ3TgyQ9llrGWwOARC4wRQAlIQAqA6b4heSRw0lRC2NBj+6FvGdoqtPHGVMr246stGwtzR8jrQvy8LnkvL6ojE969jd10lCTu9ijgtUAwEQuMEUAJSEAKgO62N9SVn9Q6KG9vFAj4TL4WL4e585lo/RgS7VzY/kX27XZhwySgHQw38KOXQphPQN9Mpf8sSWXXqLLAz+7GME7iEAAjeYAoCSEADVgY7MpVfLlB4VbIv24FEm2Z28ingHPHmVjAPHN5JB04D8y+3aPg6Aq6J0JK8ye0xX//oGesiWw0uY4wJVQQAEbjAFACUhAKrH6mhPkl95j5jE0DKWoGKPRkcq9w50SxNLLw1/+ohYugJJfuV9RSe6Hk2jAZAuaxd1zjCmMErnLzx2Iw6rgKgfAiBwgykAKAkBUF3oVTW6hm9lY+mYBivQEcR0wmM65Ulrd5Oku79TmpplLFOeWGtm8zAprskj/ie2Es+Ax6Npn4QOBqFzHI5l/5VqNABuiFtAyupHP/KXhu+HVQ/IqoM65thAdRAAgRtMAUBJCIDqQ686bT68mFx9kP7Eq1Z0jVv6jN2domvkxK3DJOZCAAk8uZ3oUzdJ6Hx3CVfCyZmsYyS79AapbCqV5gGkS8SN5gojvR1NR/ieFb9+fdz/jaR9GnrbtL6tRv52Dmk0AO47up4MmUcfRmmQps8Lfjx1DKgaAiBwgykAKAkBUL2WhH4gBRGTGPTkjS4jF3BiK9kYv1BaVo6u5Sv/+o/RwRjLIj4kG+J8yfbEZWT/sQ2kpqVC/pZ/avSKYVFNLjl0OUQKc75jXAUjMG07N88y0gAYL34Px9LKG4qkFVPkxwWqhAAI3GAKAEpCAFS35RFzSc9AF5E3Ggzlrx0L+izfJ9ugqZ80tteSq7lnyc4jK6Slz54UKp8k4sz+T723Ixt9BpGufDLaRm9bn848whwTqBYCIHCDKQAoCQFQ3eiVO2sBMP5SMPPasaC3mB81FEu3aulybQlXwsiqKIF53XgEnNgmDaLgpRVUjn45up6BbrIzaSVzTKBaCIDADaYAoCQEQHVTKgDSefHo4IhdR1Yxy7dN1N6UtdIUKrw0Onp5tI0GYnr1U35MoFoIgMANpgCgJARAdVMqACqJPmfY0tko32VVtMySDOZ4QNUQAIEbTAFASQiA6qbGALj50OInDjLhqdHR0HTqnNrWSmmfD57TM8cDqoYACNxgCgBKQgBUNzUGQDqCtrSuQL7LXLae/i5iSN1MVkcL0q1w78B3meMBVUMABG4wBQAlIQCqmxoD4OOJoI9J8xTy3jIKLjL7D04FARC4wRQAlIQAqG5qDIDUuhgvUtFYMqoJpx3Vuvo6yNYEP2bfwakgAAI3mAKAkhAA1U2tAZC6/CBdWqKOx0bXNqYrpPgEzWD2G5wKAiBwgykAKAkBUN3UHADpEnK8rAgib3SC6KzSmyTuYjBJyYiR1l9ecXA+cwygegiAwA2mAKAkBEB1U2sAXBj8PsmrzJaWleO10XBK1/01DRtJ70APya/IJn7hHzLHAqqGAAjcYAoASkIAVDe1BsCw9D2ks6+DjBB+nwGUN/q84rnsVOId6M4cD6gWAiBwgykAKAkBUN3UGACXhH1AbhVe5vrq32c1Oi1M9IUA4hOI1UCcBAIgcIMpACgJAVDd1BgA96SskSZXVmOjVwErm8qkyazlxwWqhAAI3GAKAEpCAFQ3tQVA7wB3cvH+SWmUrVqb0TRIjt2IFY8Fk0I7AQRA4AZTAFASAqC6qS0Aro3xlgZWqL0NGPtI8vUo4uE/hTlGUBUEQOAGUwBQEgKguqktAKZnHpXvqmpb32Av2RC/gDlGUBUEQOAGUwBQEgKguqkpAK6M0pGG9lr5rqq6JV2LZI4TVAUBELjBFACUhACobmoJgPRW6fGb8cQ4NCjfVVW3YzfimGMFVUEABG4wBQAlIQCqm1oC4PpYb1JeXyTfTVU345CRbE9azhwrqAoCIHCDKQAoCQFQ3dQQAD39p5JDl0JIv7FPvpuqbXQC69tFV8Vjm8YcL6gKAiBwgykAKAkBUN3UEACXR3xEcisypTn0nKVVNpWSrQlLmGMF1UEABG4wBQAlIQCqmxoCYPCpHdK6ujw2eiXv8oN0UlKbT0xDxqcuTTdsHiIPa3LJ9kTc+nUSCIDADaYAoCQEQHVTQwC8kpsu3z1uGg18a2O8yKoogZzOTCY1LY+I2WKWv4yYxQDb1FEvTWJNXy8/RlAtBEDgBlMAUBICoLqpIQBmlmTId4+rlnj18VQuPkHTybYEP3L4Shi5mnuW3Cu7Re6X3RH/+4z4mgiyJ2U18Q2awRwfqBoCIHCDKQAoCQFQ3dQQALNKb8h3b8KNXrl72u3a0baWriYp+H28v3TQysLg98mSsA9Es6X/pjX5cYFTQAAEbjAFACUhAKqbGgJgRUOJfPcm3OizeLYaVGIZsZDimjyyPtaH2XdwegiAwA2mAKAkBEB14z0ALgmbQwZN/fLdm3Br7WqyWQCkbWjYRO4WXyMrD+qYYwCnhgAI3GAKAEpCAFQ33gPgocsh8l2zSbtfdtumAZA2kxgC6fsuCf2AOQ5wWgiAwA2mAKAkBEB14zkAbj60iNS1Vct3bcKNBr+kq5Hinxb5X02oWSwW0j/YR7JLb5LV0QJzPOCUEACBG0wBQEkIgOrGawBcHDqLZOSfV2T+P6NpkASkbZWe3bNlGzD2kdSbh8nOpJW4Cug6EACBG0wBQEkIgOrGYwD08J9CQk/vJl297fLdsknr6e8i2xL9iGnYKP+rCTUaVmMvBjHHA04NARC4wRQAlIQAqG48BkA6dYqSS7+1dTWTjfELSWt3s/yvJtzyK+8TD8MU5pjAaSEAAjeYAoCSEADVjccASCdLDj61U1pibcBo+xHAda1VZF2sNymuyZf/1YQbXQVkWcRc5pjAaSEAAjeYAoCSEADVjccA+LHjN+Ok9XVt3SoaS8maaE9yp+iq/K9s0gJPbmeOBZwWAiBwgykAKAkBUN14DYD0KuDNwos2H6lLW3FtvjRf35msY/K/skmjg1fkxwNOCwEQuMEUAJSEAKhuvAZAuqpGaV2hfLds0vIqssnyiHnSmr1KtObOBrI9cRlzTOCUEACBG0wBQEkIgOrGawAMTNtOevq75btlk5ZVkkGWhs2RpoJRopnNZmlVEL9wPAvoAhAAgRtMAUBJCIDqxmMA9A58l5y6k6TYKOCbBRfJotBZZHvicmnQhhKt39gnrWLiFTCNOT5wKgiAwA2mAKAkBEB14zEA0lG05Q1F8l2yWbvy4DRZEPw+2XRoEekd6JH/tc1a2u1E4h3gzhwfOBUEQOAGUwBQEgKguvEYAOntX7qsmlKNDv6gVxnpc4YtXY3yv7ZZu5Z3liwUg6b8+MCpIAACN5gCgJIQANWNtwDo4T+VPHiUJd8dm7YTtw4TT/9pZG2MF6ltrZT/tc1aW3cL2XJ4CXOM4FQQAIEbTAFASQiA6sZbANyWuIz0DfbJd8emLfl6lLSt1dEe0pyASrYzWUeZYwSnggAI3GAKAEpCAFQ3ngIgHTBxo+Ciord/6Xq9hy6HSttbFSWQRw3F8pfYtDW01zLHCU4FARC4wRQAlIQAqG78BMAp0vJv7T2t8l2xaRs0DZDo8/7SNulk0KW1ysw1+HGjcw6yxwpOBAEQuMEUAJSEAKhuvARAuvLH+XsnpCt0SjY66jf8zD5pm49vAZfIX2KzZhwykpBTu5hjBaeCAAjcYAoASkIAVDdeAiC9/bs1Yan0zFzvoHJTs3T1dpDgUzukbSr9DGBhVY40pY38WMGpIAACN5gCgJIQANWNlwD4sQXB75EL907Id8dmra27mRhSN0nbWhvtSWpbq+QvsUkbNPaT6PMG4mGYwhwjOBUEQOAGUwBQEgKguvEUAOlVwPD0PdJzekq1xo46sidljbS9x/MANslfMuFGVzChV//oIBP5MYLTQQAEbjAFACUhAKobLwHQw38K0R/fRBraahRbAo62qqbyP83N93glENuvN0z3P6f8LlmGtYBdAQIgcIMpACgJAVDdeAmAG+MXktK6h8Si0Nq8tI2I/6OjcpeEfSBtc1uiHzFblBl0MmDsk55nXBj8HnOs4FQQAIEbTAFASQiA6sZDAFweOY8UVj9Q9MofbQPGfnL4j3MAUsEnd0ihUIk2NGySrgL6YRCIs0MABG4wBQAlIQCqGw8BMOFKuHzzirTciiyyOPTx1T8q6dpB+Uts0miQrWwqJTuTVhI6v6H8eMGpIAACN5gCgJIQANWNhwC4LWEZKalTdkJmOsE0veX7ye1eeZAuf5lNGg2AXX0dUuA8cv0gWR7xEXPM4DQQAIEbTAFASQiA6sZDAKRXyfYkryF1rZWK3QY2mgbJ1j8O/vhYcU2e/GU2bfT2Mh3RXNlYSiLP7ifeAe9aOXZQOQRA4AZTAFASAqC68REAH08Bc+J2AjENmeS7YrN2s/DSp7bZ2dcuf4libcDUTw6e0xMPw1Tm2EHVEACBG0wBQEkIgOrGSwCk6LQsdGUOpa4C5lV+el3eh9UPiFnBUce00eXguvs7pfkH6RrEnv4IgE4GARC4wRQAlIQAqG48BUA6FyBdp5ferlWinbyb9KntbYxbQI7fiCOtXc02DZ10PePyhiKSkhFDAtK2kn1H15HticvJopCZzDGD6iEAAjeYAoCSEAD54hP4rrT+LB3t6hs046lXnHgKgJRnwDRy5HoU6Tf2TTiUDRgHSGZxhngsISQ9M4UsDZvDbM8rwJ2sjfEiV3LPkL7BXmKxWORvM6pGn/ejwa+rr50cuRZFlojff3pbW749cDoIgMANpgCgJARAvvif2Eoa22tJUXWuGGrSSeLVCLG2hWxPWk7WRHuShSHvf+r1vAVAyjvQXQptnb0d8t0aVTOLQayhvUYMYgdHHcLomr0HUjeS+2W3xSDYM6bwSYNjRVMpuXA/TbqNLX9vcGoIgMANpgCgJARAvhw4vlG6evbJRv9/fVuN9MwbHQiRdjtBGpCwO3m1tCwabwGQordLr+efl8LcaBsNbdUtFeRc9nGy68gq4uk/uvD3SfTqaXJGNDENGeVvzzRpzd/qHBJ93kA2xi+QribK3w+cHgIgcIMpACgJAZAv+4+tZwLgJxsNLcPmIWkN3JauRjEYVlsNWc2dDaSs/uFnOn4r/qm3lycq5PQu0tXXKd+1TzV6PC2djeRM1jESdHInWR/rQxZMcPk1euucfm+e1voH+8Rt7mC+HlwKAiBwgykAKAkBkC97j66Vbkkq3Ypq8hWf1251lId0K/dJra61SnqGj97ClX/9RFzKOSXfFNNo8NyRtJz5WnApCIDADaYAoCQEQL7QyY57B3qI0o2OnPUJnM5s35b2HVtP2nta5Jv+VDt19wjzdbYQeGLrU58DfNRYIo0kln8tuBQEQOAGUwBQEgIgX9ZEe5CefvaZPlu3IfMQWRQ6i9m+rSz8+BnAp8zTR6dakX/tRNFn+U7eSXxqACyre0jWxfowXw8uBQEQuMEUAJSEAMiXJWGzSfdTnpuzVaMDSOTbtxU6iKOxvU6+SablV92X5g+Uf/140Wlo6Iok/YNPv41On6MMTNvOvAe4FARA4AZTAFASAiBfaBhq7W4m9mgxFwKZ7dtK5Jn90mCVpzW6nNuORNs9hxeYto20dz/5tvMnW1ldIVms4JVQ4B4CIHCDKQAoCQGQP48aSog92sX7p5ht2wJdLzfxaqR8c1bbgLHfZlPW0Em0z2YfJ5an3Hb+ZKO3qPemrGXeC1wGAiBwgykAKAkBkD/ZpTeJPVpRbR6zbVugg0vS76bIN2e1DQ2byOm7ycx7jIdf+Ickq+SGfBNPbcdvHWLeC1wGAiBwgykAKAkBkD+nM5OJPVpTZz3xi5jLbH+iFga/T67lnZVvzmqjt4kv3D/BvMd4rDw4n+RVZMs38dR2Oec0816f5C0tz/ch2RDnK83TSG8z7zyyQprmhg6kseUzjGB3CIDADaYAoCQEQP5EnNlP7NG6+jqklUfk258oKYhV3pNvzmozDZtI2p1E5j3GY3nER9JScGNtJ24fZt6LohNlb03wI6fuJJHKplJxXz+9uggdrZ1ZkkEizu4jyyM/Yr4eVAEBELjBFACUhADIn62Hlz51ChNbtEHTAEnJiGa2P1503d59R9eR20VXRz2X4dDwkPTcnocNViWhV+NuFF6Ub+KpLfAkOxKYLmUXdylIDH7lZIR89s+C/l2/sVe69bxNDIvy9wHuIQACN5gCgJIQAPlDrybZYyoYy4iF3Ci4SLzGseau3NKwOSQ9M4U0dzZK7zvaRoNuW1czOXwlXFrCTf6+Y0G//vKD0/JNPLXpj2/61PusiJwnzWHYO9g96iBOB57UtlSStTHezH4B1xAAgRtMAUBJCID8oVef8kd5C3WiraQ2n6yN9mL2YSxWRQmkuCZf/tZjajRo0at3EwmBi0M/IDcLL8nf+qmN7vum+IVkfZwvSRCDKJ0fcDyNHkNpfaF0C1y+b8AtBEDgBlMAUBICIH/odCbnso8Re7S27haiT/30FbCx8A2aTm4WjP22q7VGA9REpoRZHe1Bimpy5W/71Eav3tErl3Ti6mHzsPyvx9T6jX0k8WqEzdc2BsUgAAI3mAKAkhAA+UPDQ+RZOpHyxMLIaBrdRtK1yHE/gxdwYqtNl66raCgd9xU0OqBlvFfvbNVoiL1TdI0sCZ3N7B9wCQEQuMEUAJSEAMgnOs1IU0cDsUe7W3RdDCwfMPvwNDQ0ZhRcGNPEy09r3X0dJPT0bmZbT0NvHdOBGKN9Zk/JJgYKsh5rDKsFAiBwgykAKAkBkE/LI+eRB+V3iT1aS2cjWTeOwQt0sERRTZ787SbU6Mjk5OtjH5kcnr73iaN17dkqmkqkZwrl+whcQgAEbjAFACUhAPLJ03+aNKp2NOvpTrTR5dAOHNvA7MPTrIv1IeUNxfK3m1AbNPaTpGsHmW09CX1msrh2YoNQbNnoFcB1MbgCqBIIgMANpgCgJDEA/koMgFVWOkZwsJBTO0lnbzuxR0vPHPtybHQljJK6QvlbTajRZ/iizxmYbT3J5kOLSEdPm/ytHNYKqx5IA1Lk+wk80twpqS34JrHSNwLYG1MAUJIYAH8pBsAKtmMER1sWMZdUNJTY5bm2lq5Gackz+T48yeKQWeNaeu1Jja5OMtZnAPcf22CXeRNH2x6UZ0q38OX7CRzSa66LAfCviZW+EcDemAKAksQA+DMxAJYwHSNw4Xx2KrFYRj+x8ngbvQ0clr6X2f6T0NvU2aU35W81oUYDYPCpHcy2nmR74jK7XSkdTaODUfzC5zD7CTzSnBcD4NeJlb4RwN6YAoCSjmXEflcMgPlsxwg8oOGGLpemdKNXGQuq7ksresj34UmySjLkbzWhRgNgyOldzHaehE5ETVcT4aXlPcoa91Q2YHcpYgD8CrHSNwLYG1MAUNKx67FviwEw20rHCBygV9mqWyqIPRpd0zbhShjx8B/dJMae/lNtfgWQzikYefYAs60noWsQN7TXyN/KYa1/sJckXomwyRJ7oCydQRshBsA3iZW+EcDemAKAkq7nnn1pUcj7V8TOcETeOQIfos772+UqIG1NHfXS2rhPW8nCK8BdelaPTiFjy0Ynpr758DJZOoZbqEvDZ5Pq5kfyt3JoMw0bybZEP2ZfgSsjc/drtxXVFLxIrPSNAPbGFACUtvfo2jixM7RY6SCBA34RH5IHFZnEMqL8s4C0FdcWkJUHdcx+fNLWhKWkvk2Zq24Dxn4SeyFAusIo3641dOm1QeOA/G0c3ui6wvJ9Ba4YtyWs9Wlsb2T6RABHYAoAStt7dM0awaAZttJBAgfoLdmdR1aSRw3FdhkQQoNmYNo2Zj8+id7iVHJ08vW882RB8PvMdq25cD+NmO2wbN5Y28FzemZfgSuN57KPTyFW+kQAR2AKAErbc3TtOzqDxmSlgwRO0GXX6Godt4uuSFfIlAyCxqFBsi1hGbMPn5RwVbkASN/3Wv65UQfAiDP7pcEjSu3PWBv92TS012IqGN7pNfliAPwpsdInAjgCUwBQmj5x55d1em0P00ECl/Spm8UgeFUKGbZ8NpBe+evoaSWptw4T36DpzHY/acvhJdLzgrYOXfT96KTOoad2P/U5xI/R5xEPXw4luRVZ0lVS+n1p72kh3f2dpG+wV1pezjRsktYstvX+0kbft9/YR1q7mkhlUxm5W3xdumIrjHL/wSFGdPrJ589lH/szYqVPBHAEpgCgtNzcXDdP/2kPrHSSwKkFwe+RXUdWSevm0jBY1VQuhZDxBhz6tZklGdIcfPS95duTo5NGB53cTu4UXSM1LRVkgG57nGvx0jkI6UTONLxl5J8nEWf2koUho7v690l0Sbg10Z7S9yUgbau0PnD0eQOJuxRMEq6Gk5SMaHL8Zjw5eSeJnLuXSi7mnCTX8s5K27z18Ip4LFdJdskNcq/s1p88eJRFCirvkaKaXAmdKufBo0zpdfTrzmYfI0czYknMeX8xmG8iG+J8ie8ovn/gcEMbDy8IedRUNIlY6RMBHIEpANiDeEI/YKWTBM7R5wOXhM0m68XgQa86RYmBh64hTK9CFdfkkfq2atLe0ypdDaO3Sel/N7bXkfKGImkKFxqE4sWAtCd5rbTyyFiuWtHb0nS07oa4BWRX8moSdnqPGIZiyNXcs1J4KqrOlUbn1rZU/klZfTEprM6RguOFe2lSMDOkbibbE5eTdbHeZHHorFFPQzNedHAJDYu+QTOkoLkoZKb0PVwqWhb+ofR9+NiKyHnSgJjV0YJkVZROqtHX0a8b6+opwAm9tifk1K4P5f0ggCMxBQB72BC36N91Bi2eA1S9KVLAoXPj0VujNKDQsPNJtOYt/h19DX3taG+1jgYNb3Tuwv/b/uN9+BNpu8psG2C05gX8oXbX9Q1/Ie8HARyJKQDYQ21r1dd1eu09eUcJAOBs5h+ckhZIApl+EMCRmAKAPYgB8NX5eu1uARNCA4CTW3Fw/kx5HwjgaEwBwB6Ghk1uaXcSfy/otY3yzhIAwIlUl9YVfk3eBwI4GlMAsJdruRf+fN5+baqAVUEAwDmZBcOUnZ297S/J+z8AR2MKAPZSVlc2aX3MEi+dXttlpeMEAFA1nUFbFXpqz78PGAeY/g/A0ZgCgD3FXwx9WwyAufKOEwBA5Sy6A9rY+2V3viDv9wB4wBQA7GnA2O+2IXaBF+0srXSgAABqNCLoNdUJV8Lfoc87y/s9AB4wBQB7S86Iek3sMHOsdKIAAGpkXho2++Cdomt49g+4xRQA7M00ZJr0wS7tbLHTxPrAAOAMWg8c3fgDeV8HwBOmAGBvFovF7Xz26a/oDmiOWOlIAQBUxSvQfUd9a80z8r4OgCdMAcARRkZG3NKzUn6u02vyBUwODQDqZNHptVdqWirelvdxALxhCgCO8rA657nV0Z4LxQ60z0rHCgDAN722ck/K+t919rbj6h9wjykAOFJxbf4bi0Jm4VYwAKiMpndfytpNzR0Nr8n7NQAeMQUAR1t3eMW3xM60QMCtYABQhxFBrz1x+GLYl+T9GQCvmAKAo/UOdk/akrjol2KHWiR1rGxnCwDAC7GP0tyLvxDyFXlfBsAzpgDAg4a22hd3Ja2iU8PUPe5gmU4XAMDhdAZtXtR5/S/NFjPTjwHwjCkA8KKxve7VTYcWeegMGqO80wUA4EB5zIWAKX2DPS/I+y8A3jEFAJ4MGPueXxvj5Sd2tF0CrgQCACc8/adWxl0K/r1p2PisvN8CUAOmAMCbjp7Wl3ckrfARDJpaASEQAByL9kElcReDfivvqwDUhCkA8Ki+rea1nUdWzdHptZVWOmQAAHswi31QZuzFoHeMQ4O48geqxhQAeNXa1fzi+livX4qdcI2VjhkAQEkWnUF79eD5gB/3DfY+L++fANSGKQDwbHh42G1j/Npvrjyoo5NFdwu4JQwAyhrR6bWt7vH/HXz44sFX5H0SgFoxBQA1KKrJe2tNjOdynUHzyEqHDQBgC8Oie/uPbZi/rm8Nwh84FaYAoBal9YUv/Wvuj/9b0GtPi520yUrnDQAwXkM6/ynB+05s/1FLVyOmeQGnwxQA1KTaUj3pVuGlr/iFzfb0CphWIhg0CIIAMF70kZJB38AZWUtCZk1tbK/7XM9AD9PvADgDpgCgVsdvHn57csq/68UOvEJ4fOtG3rkDAFilo32GXpOzOmy2X075nT+T9y8AzoYpAKjZgYF9Lwae3P2rjw5MjRE79E55Jw8AIEOv+tUKhskBxzJiflxYeJXpVwCcEVMAULv2nvZJ+VUPvrwmymOy2LHnWOnwAQAos/gPxbSIs/t/9bA65/PD5iGmPwFwVkwBwFkMmgYmldQVfnlZ2LzFHgemFgoYKAIA0rQumn5BP/n+5viF7w0Y+14aGjZNkvcfAM6OKQA4m7KyMrdD6RHfXhQ0wyDotVX0BGDlpAAAzm9EZ9DkrIvxXhtzbt9fdvW2Mf0FgKtgCgDOKuvh1VcOXQr9nRgC6STSvVZODgDgtDRt4p/hVx6k/6SkthAreYDLYwoAzqzf2PdMdfOjL+9OXu0ungxKRRYBVwQBnBVdxcMkGKZc+f8yfvCbk83H3xgZGWH6BQBXxBQAXMWBU3vfWBfrvUZn0BTo8HwggLPpo9O6bEtYPuvojaO44gcgwxQAXEllc9lzyTeif+wXNpfOH9hs5SQCACoi/mPOIv6j7uGOpBWbUq4d/BYdDCb/3AMAAiCApKg693Ppmcl02ph00aD8pAIAqtAvHJgStT9yx0/r26qxdi/AEzAFAFc1bB565kLm8S+uDJ87y8N/SoGg1xqtnGAAgDM6g6bXN2j6Fb+oj35TVv/w9b6+PubzDQCfxhQAgLgduhD61s6kFTt0Bm2ReIIZkp9wAIALgzq9Jifo1HbdtYJzr8s/xwDw2ZgCADzW3Nn4YmDS7p977X83UDBosKwcACf++JxfxYI9v92eeDHo+xjZCzB2TAEA/k9HR4dbaXXhm556998Leu0N8eRjlp+MAMCuzLoD2sR9yZv+pbzqwWuDg7jdCzAeTAEAWKYh46R7pbfe2BS36COfwOn3xZMQng8EsB86V2fP0vAPr4ifwd919na8iHV7ASaGKQDAk52+m/yNBXve2S/opYmkcUUQQFnDOoM2e1mMx8IHjzK/Iv88AsD4MAUAeDL6vFHm/dOvhKXv+8/5eu1BgU44y560AGDiGjwMf9ibnpn8o7zaPMznB2BDTAEARqd3oHtSXWvVm+tjvX/nHeB+XzBo6GhhLCsHMDH0M2ScHzT5ePT5gJ/XtVa+htu9ALbHFABg7CoaS95YESksmH9Amy1gWTmA8ZCe85t/YMr1rYl+0z2IB/M5AwDbYQoAMD65j3InpVyP/55XwLT9Or2m+o8nNPlJDgCs0WtzNsYt8EvOOPyNtu423O4FUBhTAICJya3Ieu3ItYO/Ek9oyeKJbYA50QHAJ3WIgu4UXf3nqqayF+SfJwBQBlMAgIkzDZsmre1b/bn5qdPf0Rk0+cLjIIgrggCPjej02i7voOknNwet/Nf84rxXRkYszOcIAJTDFADAtkLP7Xxry+Glq8UTXo6AZeUA+uik6obULXPT7x/DFT8AB2EKAGB71c0Vz5+/d+LHS8Pm7BNPgK1WTooAzo5eAS/ak7JmlfhZ+Fa/se8Z+ecEAOyHKQCAckprCl/32+H1v+KJ8LyA0cLgInQG7aBg0MRtSFz9vdauppflnwsAsD+mAADKoZNIm81mt6sF517akug31cN/6j3x5NgvP2ECOAW9pmNx6KyT2xOW/ltdS9XzZouZ+UwAgGMwBQCwn+Qb0V/ff3zDZvFkWSAaZk6gAOpE18q+HXshQHe78PKb8t97AHA8pgAA9tXa1fRSaNLqn3nt+71BZ9Bg2hhQM/qcX9W8QPcNyTfj/nHYPIT5/AA4xRQAwP56ezvcmtprP7cwcM7/+gS8e1XQ02emMG0MqIZFp9cOLAh+LyEobdM/NnTUv2wcMjK/5wDAD6YAAI6VW575Of3xTXN9g2bcEh7fSpOfbAF4MSL+Y6XzvYO/Or3iuOdvuvo6n5f/PgMAn5gCAPDhbHbqt+YFue8QT7KlIouVky+AI5l1ek320jBPIazS/6t5JI/5HQYAfjEFAOADHTH5oDrn1ehz+38uGCZHCZg2BvjRNM+g3XEx59QPSutKMZ8fgAoxBQDgi2nI6NY70P3ypsRF/zsr/DcZOoO2V8DzgWB3GnoVusMjaFpC4rXI7/cMdL+AaV0A1IspAACfmkmz28IG7y+tj/P1FU/EN0Vm9iQNYHMj4j86uj30k8/uP7p+RlxO7HPy300AUB+mAAB8K6t/+MzlB6e/p/Ofukc8OddaOWED2I5em7cpfpH3lZyT3+joacG0LgBOgikAgDpUNJa+djQj9heCXpMqYLQw2F6XKDCn/O53mzrqMboXwMkwBQBQl+SCZLfNR5b9WjxZ3xb02h4BzwfC+NHbva0Lg99P2J687ocPax8yv28A4ByYAgCoz9CwyS3pevTXdiWtWC7oNdkClpWDMdP06QyaSxFn9n14Jef0S/LfMQBwLkwBANSrvrX6hbvF136wKHTmfvGk3sGe5AFYYvAr25OyZrH4u/PNvsFeTOsC4AKYAgCoX1l9yaseB+b8wjvw3VOCQdMtwm1h+BSdnk7krG1fGDwzYs/h5X/b09/1ovz3CACcF1MAAOdx4+GFlwLStkwT/LW3xZN+nzwEgKvStPmFf3jE//i2X9Q2V2JaFwAXxBQAwPlEZPl/839O/myNzqApEDB/oCsz6gzajP+6/i9zs0tvfEH+ewIAroMpAIDz6Sbdbjd6rr8ceGzzDwWDJlDAsnKuhj4CUCdadeJ2wt9nDF9/Vv47AgCuhSkAgPOiy8p19XW8uDbO5xdLw2eni2Gw84/hQB4YwDnQq73Nq6OE6LCz+78+YOx7zmweZn4vAMD1MAUAcA25lVlvrA9dNFfQT7ku4Iqg09EZNB0fBWpTth1d+dv2npYX5D9/AHBtTAEAXEdpaanbmbvHvuOhn7pJ0GsficHBIg8SoDoW8Wd5b3X43DmXCs9+tba7lvm5AwAwBQBwLcPmYbfq5opXYi4E/tgzwD1aeHw1ELeFVYdO9TOlycswdUtG3vl/aGyrwXN+APCZmAIAuLZdicv/x2v/H87p9Hg+UCUsOr22UdBPiz5xK/7v5D9PAABrmAIAuLbu7la3kxdDv7IpfoGXoNdk0IBhJXSA49F1e3t0Bs2JwJPb3VOuJWP5NgAYNaYAAEBVNZc9e6fo6nfmG7Q7xbDRaCWAgGMVb4xdNDe77OZfdvS2Yfk2ABgTpgAA8LGRkRG39p6Wl9MzU37iE+ieKBg0dH1h3BZ2GM2woNfWLgqZuau4Nv+vu/u7sIoHAIwLUwAAsOZ8dtIzhtSNGp1ec1kMI10CgqCdaZoXBr8fHZa248fFVbm44gcAE8IUAAA+y6BpwO1M5tFv7E1Zu0gMJNkiPB+ovH7x+3w2/lLQrBv5l16T/0wAAMaDKQAAPE1LZ+OLv679z3/4KOAPBjGg9FoJLWATmup3Uv7Ve2Pt6q/3G/swrQsA2AxTAAAYjUEy6FbTUv38mphlP1kUOuuIoNe2sAEGxoE+51e96qBOvydp7VcHzYPPDJEh5vsPADARTAEAYKxuF15+NeZ8wHQxvFwT9VkJNTAqmvblkXOj4y4G/XtNcwWWbwMAxTAFAIDxsFjMbqnXkv5uwe45y8QwUyRg/sCxGBJdW777d7PyK7O/IP/eAgDYGlMAABgvk8nk1tBS91Jo6pZ/8Al4N0TQ0wEMCIJPYPbQT6n1CX5vSXr28a83tVTiOT8AsAumAABgC70DPc/sT1n/81VRuqNi0GkVMG3MJw3TAR5bE5aGxl8I/Kr8ewcAoDSmAABgS4VVOV9aGeM7W2fQXhce3+qUhyEXo+n+aJ82fteR9b9u7W5+Wf79AgCwB6YAAGBrZY1lbpcenPq2LmDyWjEIVguueTVQPGbN/aWRH7x/r/TuVxraGpjvEwCAvTAFAAAlmC1mt66+9heOXDn47ZUH54eLgYguK2e2EpScis6gGfYOfLds5UHdqqySG3/R3d+F5/wAwOGYAgCA0mgY3H903e889No0J15f2KIzaGu8DVMjTt098m359wAAwJGYAgCAPXT2tLldyj7x9ub4xfOEA9rbVgKUeum1/fP1mpSwM3s11+6fxvJtAMAdpgAAYE+N7XXPPXiU+fc6g3an8Hi0MBuo1KVyfYzP+2X1D/+8u7/zGfnxAgDwgCkAANjbyMiI26OKR5P2RW/9zoKgGQd1ek2ToKbbwnrtkLjPxcsjPlrvH7H/y8PDWLoNAPjGFAAAHOlCVtrz4el73XV67Unh8UARnoMg3bfaBUHvB8dfDPlJYeUDXPEDAFVgCgAAjtZv7Jt06+GVvzhwbN0HYsC68MegJQ9fjkT3p1MUl3z94Dv3ym5/Tn4MAAA8YwoAALzo7u98tr6t+q1FoTPdfQLcL9NJlAVpFQ0mkNkDDX0mOmp5QdCMWMOJTT9tbK9702gamCTfbwAA3jEFAAAe5ZTfft5wfONP9x5dt1/Qa7LFMEafE7RHGDSKahYGv39ef3zTMkPqhm929LQi9AGAqjEFAACeGU2Dk9JuHf6btNsJ766J8tgmhsGzYkCrFKSrc0x4G68BUb743kn64xtXi9v67bW8s2/K9wUAQK2YAgCAWlQ0lLyQV5H9DdFPA09snSoc0G4U9NpknUGbo3s8gMRiJdzJDYmvbdTptTfFr40Q32PZydtJvxXf8/t5FVlvtXY1YeUOAHA6TAEAQI3olcHege4XRK+IXhd9YXfqirdXR3v8eE2M53+sifH43doYj8mU+P9/Lf7//xD/7rvH7sS8Jb72TdHnRC+Lnhs2DzPvDwDgTJgCAAAAADg3pgAAAAAAzo0pAAAAAIBz+/8Bp5lspwRM5+8AAAAASUVORK5CYII=;clipPath=inset(0% 24% 0% 22.67%);" vertex="1" parent="J-4PL1bRExIhTpd28Z0a-34">
          <mxGeometry x="223" y="4" width="40.71" height="43" as="geometry" />
        </mxCell>
        <mxCell id="J-4PL1bRExIhTpd28Z0a-49" value="&lt;span style=&quot;font-size: 20px;&quot;&gt;&lt;b&gt;Roles&lt;/b&gt;&lt;/span&gt;&lt;br style=&quot;font-size: 14px&quot;&gt;&lt;div&gt;- Message Broker&lt;/div&gt;&lt;div&gt;- Support Kafka Streams&lt;/div&gt;&lt;div&gt;- Support Kafka Connect&lt;/div&gt;" style="html=1;shadow=0;dashed=0;shape=mxgraph.bootstrap.rrect;rSize=5;strokeColor=#6C767D;html=1;whiteSpace=wrap;fillColor=#ffffff;fontColor=#212529;verticalAlign=bottom;align=left;spacing=20;spacingBottom=0;fontSize=14;" vertex="1" parent="J-4PL1bRExIhTpd28Z0a-74">
          <mxGeometry x="15" y="444" width="270" height="160" as="geometry" />
        </mxCell>
        <mxCell id="J-4PL1bRExIhTpd28Z0a-50" value="Kafka Broker" style="html=1;shadow=0;dashed=0;shape=mxgraph.bootstrap.topButton;rSize=5;perimeter=none;whiteSpace=wrap;fillColor=#1ba1e2;strokeColor=#006EAF;fontColor=#ffffff;resizeWidth=1;fontSize=18;align=left;spacing=20;" vertex="1" parent="J-4PL1bRExIhTpd28Z0a-49">
          <mxGeometry width="270" height="50" relative="1" as="geometry" />
        </mxCell>
        <mxCell id="J-4PL1bRExIhTpd28Z0a-53" value="" style="shape=image;verticalLabelPosition=bottom;labelBackgroundColor=default;verticalAlign=top;aspect=fixed;imageAspect=0;image=data:image/png,iVBORw0KGgoAAAANSUhEUgAAAoAAAAFoCAYAAADHMkpRAABOfklEQVR4XuzdB3gUx90/cGE7dmzHsdOdvE7y2uYOA7qT7tS7EAIhIRCi9947ovduU0zvvZreezdgem8ChGhCoqj3LvH776zj/+vsHEJ3utPenr7zPJ8nyS9odtVmv9rdmbEjIjsAAAAAqDi4AgAAAADYNq4AAAAAALaNKwAAAACAbeMKAAAAAGDbuAIAAAAA2DauAAAAAAC2jSsAANiCJ8+e2c1btuzjhUuX/0PwvwuWLFMzC5cs+1r43/9cuHTpn7fu2/eu9OMAACoCrgAAoERjJ075S7su3esI+goW1G/aYl9lre6UWqu/KLii1uivi7S6a8L/viz85zmdt99h4d9uaNelxyThP5sJ7G9H3n1f2jcAgK3hCgAA1qywsNDu6vUbn125fv2b4LDwsGo6lyWC20KoyxFCXZFKqy8WvFb/jN5C/Hc/f4yuSAiIhd84OicJ/e0S9F+1dp3H1evX/xEX9/w30vMAAFAyrgAAYI0ePXr8zqIlK76cOW9B6ypa/SohsN0VgluBgVBnNkL/KUKoPNCyXacRC5ctr7Ft254PpecFAKBEXAEAwNoMHz3hi3qNmk1Sa/QXhVCWLA1q5SBPOO5jvbvvlnZdegZdvX7zA+k5AgAoCVcAALAGkXfv/3bh0mUu1Zxc5qrFO3H6YnXpHuta0muVRl9QVedytU54eONr12/8LTU17R3puQMAWDuuAAAgpwcPHlVavHTVNy7eAePUWt0jFroMBDEroMuqbK/bNnDYyMZbt+75rfTzAACwZlwBAEAunTp3/iC0YbPuanv9BbVGl8eHLqtTLJznS0cXn2VNW7T65vTp09znBABgjbgCAEB5ys/Pt7t+8+ZnvftFhKjtHc+oNPpCtdXe9TNMOOdilb3uZTVH529PnznzdWxcHNYXBACrxhUAAMrLsbNn35k+Z66XSuu4XK3VJUmDlTI5nm3aqk3HhavX/DUrJ4f7nAEArAFXAAAoD2fOnf+rV+3gUSqtPlIITkV8kFIsdvcy+WtHp32DR472ln7eAADWgCsAAFhKUnJypRu3bv/VPzikfXW9a5QQlBT3uNcIr6s4OKVrXNyXLVq23OleVBR2GAEAq8EVAAAsYeOmTR/2jhgUVlnjuFUIR7kGApOtYgH3gYuP37BlK1d9GR0dzX1tAADKG1cAADC3pavXfGnv5LpYCEJxao24np80JNk+jS5brXE8Ua9xsxZJySnYWg4AZMUVAADM4dmzZ+8cOnrsK62L56iqOpdnKtt6z89UbN/hfK2Lx/7eAwb53Lxz5xM2C1r6tQMAsDSuAABQFokZGXZzt2z9c4PGTVurNLqf1D/v4CENQhUdC4IvvtY6zp42b75+/7Vr3NcRAMCSuAIAQFl07Rfh+W9n9+1CyElkQcdA+IH/U1jZQX/dNbR+nzPnzn8m/VoCAFgKVwAAMNa9e/ffnzl3nsbR3XO2EGrS1bjrZwwWkgvsnd2vBgQHN7oTGfmHlJQU7msMAGBOXAEAoLSuXr1qt3jpsi8cnV0Hq7W6u2oEv7LKUts7ruoXMTBw6dKlWDYGACyGKwAAlEZMbOz7gXXrNfyqqv0hcYYrH2bANIVCmH4sfF2nL1215u/SrzsAgDlwBQCAN8nJybW7E3n/4049ero4uHruUWl1uUJYwV0/C1AJQbCa3uWB3tO7z5FjJ7549uwF9/0AADAVVwAAeJNpM+Y6fF3VZaoQTmLVmOBRXgpV9vpDdcNaN7h77/6n0u8JAIApuAIAgNSRo8d/36PvgK5VHZ2vCYEk30BIAct6rdLqXtRt2GTNwKEjtdLvDwCAsbgCAACTnJxsd+/+/U/da9RsoHF2P6vWsMe9uOsnJ5VGxxbTTnLy8h03c/4C1YPo6Pek3zcAgNLgCgAA8QkJ7/fs08+nila/SK3RY4KH9SkUXNW7ufc8/uPJv0i/fwAAb8MVAKBim7dwyZ9adeg8Va3RPfhP0JCGD7Ae6V41Arf36j8gMObZM9wNBIBS4woAUPE8evXKbue+/X/X+fh2rqZziRSCRYGBsAFWic3C1mXo3H3WdezTp9qdO5G/zc7O5r7HAAC/xhUAoGK5cev2Jy5t2gZX1uoPCYEijw8YoBCv1Rr9w7//+8tRk6dOU0u/zwAAv8YVAKDi6B0RYV8nrNESlVaHZV1sR04VB6dzvfsPbHbk2LGPpN9zAACGKwCA7Xr9+rXdnTt33ps6ffq/3Xz8h6q1ukS24LCBEAFKpmF3A3WZGhePQz7+ATXv3Y/6OD4+nvt5AICKiysAgO06ePjoH//yjy+6CyHhghrv+VUIKo0+7d+qatNat2/vFJ+Q8BvpzwQAVExcAQBsz72oqPf6DBzk5+pbY7MQCtKlIQFsXr5aq7vVumPnUQsWLP1Y+vMBABUPVwAA25GYlPRBs5a9VXpP35VCAEjGvr0VGnssnFdN73rJ1cun6e49e/8k/XkBgIqDKwCA8hUWFtqt37j56w7deg5RafVRBsIAVGxZao1+m/Az4nfz1u0PpT8/AGD7uAIAKNuu/fvf7x0xqJFwgT8jXuj5iz/AzzT66JAGjb7v13/YV8XFxdzPEgDYLq4AAMr08NGjj2oH1/XVunruFi7uaWos6wJvx35GCoQgGOsdULv7nLnzPs/Ozn5H+rMFALaHKwCAssTGxb23YfMWB7/aId8JF/NkAxd5gLfT6PNVGv3xCd9Na3X46PHfSX/OAMC2cAUAUI4pc+b8rkW7DoPVGt1VdgHnLuoAxkt08a6xst+w4U53o6IqSX/mAMA2cAUAsG5FRUV2q9es/Uyjc65fVedyXq3V5arxuBfMq0il1b9w9vabEVQn+F9JycnvSX8OAUDZuAIAWK+r16+/v3LNOl+VRrdBjfX8oHxc79CtZ48Nm7d9UVBQwP1MAoAycQUAsD4ZmZl2vYYN/3et0LBv1RodlnWB8pZW2V5/uNegwUHb9u9/V/rzCQDKwxUAwHpkZWW907dfvz87efp2Vmn1D1UaHXvPD497QQ6vhZ/BRAc3zzVVqlV3jnoQ/YH05xUAlIMrAIB1OHjwyCejxk1oqtboDgoX3zwDF2QAmehe+NQKHrFx6w71s7jnWDYGQIG4AgDI68qVK5UiBg1x0Lv5LBcutq/UuOMHVkil0edW1uh/atGuc7eZM2fibiCAwnAFAJBHUlLyu9eu3/yXs5ffZJVGF6PW6AqlF10AK/NardFnVdM5H5rw7ZQaT2JifsdmqUt/tgHA+nAFAChf2dnZdlu37fp7i7YdOwkX06sGLrIA1k+jT6qsdVy8cs16l2vXbmKiCICV4woAUH727NlTqXfEoNpVNE57hYtoqhqPe0HZitUa3c2g0PBhY8eN/zwzM5P7mQcA68AVAMDy4p6/eH/dxs0Ojm5eS9UafYJ44eQvpgAKpBP+iNHlVHFwutGkZZsmMc9iP8vKysaOIgBWhisAgOU8iomptHXnrq+dPf2HCxfLp/zFE8Cm5Ah/4GwZNW5iyMGDxz+U/j4AgHy4AgBYxoCIiA+btm3fXuWgP67Gsi5QcbC72zGOrr6ze/Xtrzpz5gz3uwEA5Y8rAID5sK2znsXGfTRszHgPlb3DAbVWl/GfC6L0Iglg01QafUHlag73XDx9Bl6/efPz5JQUrB8IICOuAADmcfby5XcWLVvhUtleP1e4ACZKL4gAFZfjqeZt2zfZsmfvnzKzs7nfHQCwPK4AAGUTFxdn171nr7/6BtcdoNLqrwsXvCL+AghQobHZ7glfOzptGDVhoqf0dwgALI8rAIBpMjOzKsU+f/5JUFijhl9X01xUa3XZ/7nQSS9+APCzoqo6lzj/OiFT1m/apHrx8uV70t8rALAMrgAAxtu//8CHEcNGB1a2169TafT5Bi50APBm7A+le3ov7947du3+nydPnnC/YwBgXlwBAIyzbsPG/9XonWepNfrHakzwADCdRpet1jjubtamfXh8YuL70t81ADAfrgAAb5ecnFLp3IWLn9cICent4OpxW63V4a4fgHkUq7T6FJ/AOhuGjx6nef7ixQdsNr30dxAAyoYrAMCbpaWl2e3bf+CP4Y1bh6k1+pPsYmXgAgYAZfdaCIJxX2sdJy5csdL+ZGQk9/sIAKbjCgDwZv0HD/WopnNerdboXv285RV30QIA8yqo7KA/79awSadzFy59Jv2dBADTcAUA+G8vX8W/t2zlmv+tGVJ/XBUHp+cqrb7QwEUKACyH/bGV4eYbcDSsSdPAly9ffpSVlcX9rgJA6XEFAPjZ7du37bbt2PV5Na1nL+Hic1uNx70A1iBHrXGcP3jYcI+tW7dhogiAibgCAJBdTMyzD0LDGoZ++Y39NhWbmchfhABAPoVqre7uvytXGb92w6a/SX9/AeDtuAJARZVfUGD3Mj7h/f5Dhqh8atX5Qa3RJamxiweA1VJp9bkObp4Xa4XWb3n+4qU/pqSkcb/XAGAYVwCoqGYvWlztK53zGOHCEqvGDh4ASlKg0uj31Q1rWzP60aNPpL/bAMDjCgAVzfFTp38/cvzENmoH/XnhQpJn4OICANbvtUqri2ncqs288ZO+00h/zwHgv3EFgIqAzSCMT0j4bWC9ev6uPv77VVp9KruAGLioAICy5FfROj2pXa9B32Vr1vwtMTHxHenvPwAgAEIFlJiU9H7vfgOcVRrdTLVGn2vgAgIAyseWa7rgoHduy94PlI4DABUdVwCwZctWrvlT1979xqq0+tuCAgMXDQCwJRpdmk9g0OoxEyb6PY2JeU86JgBUVFwBwNakp6fbnTx56tPgemGNNS4e51RsHTHpRQIAbJiOLRvz3K92yPx+w4f/Iz4+/r38/HxurACoSLgCgC25FxX1ccMmTf2Ei8BeNSZ4AFR0r9Ua/YPP//W//afPmPWldLwAqEi4AoAtKCgosBs94btvwpq2mCEM+k8MXAgAoOLKVml0J8ZMnFz/+MmTv5WOHwAVAVcAULL8/PxKK1eu+l3d8EatVcJf+mrc9QOANxBC4CtX34DlTl26Vk1JTcVsYahQuAKAUh09erTS97PmeggD+1YBZvcCQGk9rx0W3mbX7j1/fPnyJTe2ANgirgCgRAeOHXuvuqO+uTCQ3xQUGxjgAQBKkvzPylUWdO3W/auioiJujAGwNVwBQEmKi1/bHT3x4x9cfGqMVGl1Lw0M6gAApaJir4xodBf6RAyplp2Tg0fCYNO4AoCSHDtx8p+Vtfr1aqzpBwDmE92rX0TDxMRETBABm8UVAJTi0JFjX7r5BrDwh0e+AGBObFvIR9379G9XUFBQSTr2ANgCrgBg7YqLi+2OHj+hcvWpsUMYpPMNDN4AAOaQ1GfAoBY5OTnYQQRsDlcAsHZHjp/4p1qr229gsAYAMC+N/lWPvgPaJOBxMNgYrgBgzQ4cOfpHF58ay9U/P6LhB2sAAPNiY010tz79QvPy8/E4GGwGVwCwRuyx75FjJz5y9fEfr9LqMw0M0gAAlsJCYFSfgQNVObm53PgEoERcAcAaJSWlvPtVFfeewiCcamBwBgCwuK+1+uMTZsz4l3R8AlAirgBgjWYtWOSoxp6+ACCv7LCmLaZEPYj+vXSMAlAargBgbeYvWflpdSf3vQYGYwCAcqXS6hMCgkOaZGVl4X1AUDSuAGBNXsbHf9CpR+8RwsCbJR2IAQBkcv/HU6f/KR2vAJSEKwBYi8zMLLuOXSJchb+4Iw0MwAAAsnH3rTHl2LFj70rHLQCl4AoA1uLps2cfVbZ3WiQMtkXSwRcqnioOTvSNo/P/x/639N8AlB/d47ETJ/sWFhZyYxeAEnAFAGtRs36YjzDQ5vADL1QEju7eFFS/ITVr05669+1PI8dNoKkzZtGMOfNo2szZNGbCJOrZL4JatOso/LtwcvLy4/oAsKAilVa3/vCx43+Ujl0ASsAVAKzBoUPHf+Ps5b/VwKALNozd1Qtu0IjGTvqWtu7YRddv3qKXr15RQUEBGWpFRUWUkJgo/rtde/fT2InfUkh4E6qqc+H6BjA7jf5lz94DgnNycrgxDMDacQUAubFHKsNGjfNTafQvuAEXbFI1vSvVbdiEfti0hZ7GPKOsrCx6/fo1GdPYv88UPu5pTIwYHkMbNRX7lR4LwIxeqzW61cIfKdgmDhSHKwDIbfeePR+rqmuWq7U6vPtn475xcKKwJi1o45atlJGRSeZsmZmZQr/bqHGrtnhfECwpt36DcC0ZGMsArBlXAJDbnv0HnIRB9baBgRZsiKObFw0aPpLuRN4lSzV2V/BB9EMaPHK0eDzpOQCYQ2jDplPJwFgGYM24AoCckpKS3wkIrtdDGFTzpYMs2A4nT19avHwlJScnG/2o19jG+k9OSaWlK1eRm19N7lwAykrj7HFj2crVfyUDYxqAteIKAHJ69Sr+U7VGd0w6wILt8AmsQ/sOHCQ52o+nTpNvrWDunADKRKNPGT95SlsyMKYBWCuuACCn2fPmqYQBNYMbYMEmsPC3decuyn/DrF5LN3Y3cPe+/eQfFMKdG0AZFDVo0mL+/agHmAwCisEVAOQUWLdeZwODK9gAnbs3rVi9lnJyc0nOlpeXR2vWbyBnrBsI5qTRnTp4+GhlMjCuAVgjrgAgl1sxMXYeNYN2cwMrKB6bhTvhu2niun3W0Ni6grPnL+TOE6AMkqbPX1A7v6CAG9sArBFXAJBL32nTPv3KwSnKwMAKChfevBXFPn9O1tRS09LEJWik5wpgouIvHZ16JyWnvEMGxjcAa8MVAOQyfMw4D5VG98rAwAoK5uTlSzv27KVCM939M+es4UNHj5HOw4c7ZwBTVNboVgoB8EMyML4BWBuuACCXEWPHdVFrdenSQRWUiz36jRg2glJTU8nUJi7jkpxCkXfv0fmLl8SZvGfOnaer12/Qk6cx4jt9pjZ2F3D4mPH0jaMzd+4AxlJp9FeFn9Xfk4HxDcDacAUAuYwYO36yGuv/2RRnbz86fPQYmdJY8EtKTqZtO3ZR/8HDqFZoA9K6eor9ssDm7leTmrVpT9Nnz6FrN268cb/gkho7xrETJ8kroDZ37gBG0+hTly1f/mcyML4BWBuuACCHkz+de9/NL3C1mu2tKR1UQbEaNm8l7utrbGPBLCo6mjp060lOb5mtW03vQgHB9WjhkuVUUFho9CPitPR0at2xK9cvgAlehzZobE8GxjgAa8MVAOSwc8++P6s0eswAtjFsuRVjG7uT9/OCzXW4/krCHjcPHTWGXsXHGx0CN2/fwfUHYIrgsEYhZGCMA7A2XAFADkIA/Ldaoz8uHUxBuTTO7vTg4UMyphUXF9PV69epXqNmXH+lwR4RT50xizIyMqRdl9jYDOWqOheuPwBjCQGwIxkY4wCsDVcAkMPOPXu/UWt056SDKShX/cbNxUkWxrSMzEzqEzFIvJsn7a+02CPjEydPSbsusbHgGdKgMdcXgLGEADiYDIxxANaGKwDIYeeefVph8LwqHUxBuUaNn2j0rh9Hjp/g+jFFeLOWlJ+fL+2+xDZi3ASuHwBj1WnQaAIZGOMArA1XAJCDEAD1Kq3+pnQwBeVaunK1OCmjtI29t9er/0CuH1NU17vS9Rs3pYcosa1au57rB8BYwQ0aTSUDYxyAteEKAHIQAqCzEABvSwdTUK5de/eLj1ZL25KTk6lmcD2uH1OwZWIWLV0uPUSJ7dDR41w/AMYSAuAMMjDGAVgbrgAgBwRA22Lv7C4+zjWmsbX8PPwDub5MNWDIMOkhSmwXL18p07uHAAwCICgFVwCQAwKgbXF096bjRk7EOHv+Arn5BnB9mapzz97SQ5TYrt24SdWd3Lh+AIyBAAhKwRUA5IAAaFvYEjBHjh0nYxq7A+fmZ74A2HvAIOkhSmyXr17DHUAoMwRAUAquACAHBEDbs3vfAaMWZI57/pz8agdz/ZiCBbnps+ZKD1FiO3P+AtcPgLEQAEEpuAKAHBAAbc+yVWuMmgVcVFRErTp05voxRTW9q9GPoLfu2MX1A2AsBEBQCq4AIAcEQNszbvJ3lGvkOoBs6zhpP6bwCaxDmZnG7UE8e/5Crh8AYyEAglJwBQA5IADanvDmrSgtLZ2MaSkpqeLHSfsyBpuBvG7jJqMeP7PWpnM3ri8AYyEAglJwBQA5IADaHgc3T3ryNIaMaYWFhbT/0GHyDqjN9VcabP2/Xv0GUnxCgrTrEhu7U+ni48/1B2AsBEBQCq4AIAcEQNu0efsOMrZlZ2fTkhUrxQAp7e9tGrdqS5GR94xagJq185cuYQYwmAUCICgFVwCQAwKgbWrZvpPR7wGyxh7f7tq3n2rVDaNqOheuXyknT1/q0S+CEhITjX70y+46Dh8znuvTktjn5OpTg3xrB1Ot0DCqE9aQatcLp0Dh8/WtVYdcvP2paik+b7A+CICgFFwBQA4IgLbJ3S+Azpw7T6Y0Niv4xs3bNHna91Q3vIn4eFfaPwt+XXv3pQ2bt1Jqaqq0i1K1e1FRFNKgEde3udk7u1GDZi1pyMjRtHDpctqz/4C4+PWtO5H0IPoh3b13n27evkM/nT0nbqM3f/FSGjR8JNVr3Ezc21jaH1gnBEBQCq4AIAcEQNvEQtuocRMpM8u4Gbm/blnZ2RT1IFpcWHrRshX03fSZNHPufNqwZZu4ePSr+HgqFMKiKY19HFuuRuPizp27uTi6eVGPvhF05OhxevT4MaWnp5fqETX7N2lpaRT98BEdOnqMuvTqQ1pX4x+LQ/lCAASl4AoAckAAtF2eNWqJ+wKXJvS8qbHHur9g/TC//O+ytDuRd9kFmzvnsmLvE3rXDKIxE78VQt+T/3++pjb2seyO6IOHD2nE2PHkGVCLqhg4LsgPARCUgisAyAEB0La179qDUlJSyJoaC1VjhYAmPdeyYvsJd+3VT1yIuqCgQHrYMjfWJ7sj2EH4muLRsPVBAASl4AoAckAAtG1sZw72qNWa2rkLF8XHs9JzLYuqjs7i4+kXL1+W6Y7n2xq7GxgX95ymfj8Ls5etDAIgKAVXAJADAqDtY7NeDx4+apG7YsY0Fsxu34mkug2bcOdYFjXqhNKuvfvK9fNjx9qybQf51KrDnQ/IAwEQlIIrAMgBAbBiYLN52Z03dgdLjsYe+z6NeUZdevYxOKvYVP5BIXTgyFHKz8+XHtLiLS8vj3bv20/egQiB1gABEJSCKwDIAQGwYmCPK+s3bk737keRHC0rK5t69h8oPpKWnpup2Dt/e/cfLNc7f9LGgue2nbvNGmrBNAiAoBRcAUAOCIAVi3+dunTy9BmTFok2pbHFntl6fx279+TOpSzYO4Qr16yTNfz90tg5sLUDtS4e3HlC+UEABKXgCgByQACsePyD6ooTQ9LS0smSjT1uPnD4CDVq2dqsEybYTh2DR4yixKQk6SFlay9fvaJeAwaZ9fME4yAAglJwBQA5IABWTHpPH+o/eJi42LElWnJKCs1duFhck0967LKqERRCN27dLtP6fuZubILLuQuXxO3kpOcL5QMBEJSCKwDIAQGw4qrioCd3/5o0edoMirx7T9z5oyyhik2KiHkWS6vX/UBB9cIt9l7cspWry3SerLGPZ4/B09LTRdk5OWVePoZ9/JwFi7nzhfKBAAhKwRUA5IAACEyNOnVpwndTaf+hw+Js3aKi0oUhFqTiExLox9M/0ez5C6lJq3YWfQxaM6Q+xcfHS0+j1I29r3fz1m3atHUbTfl+Jg0dOYYGjxxNE6dOpzU/bKSLV65QTo7p70e+ePmKvAJqc+cNlocACErBFQDkgAAIv2DBzc03gMKbt6IZc+ZRSmoqva2xd/xadehMPoF1qJrOhevT3GYJIdPUiR9xz1/QhG+nUlD9huRgYG9fe2d3IWDWo4HDRop7IJvS2KSXiVOmc32D5SEAglJwBQA5IACCIS3adaTYuDh6W1uwZLm4HIv04y2BTV65ev2G0Y9/2VIt7M5mUP3wUt2dZP/GJzCI1m7YKD4WN6axc7t89Zq4D7O0X7AsBEBQCq4AIAcEQDDEGgNg7wGDKCk5WXoKb237Dx42aTKKk4ePuNSMse8Gvnr1irr06sv1B5aFAAhKwRUA5IAACIZYWwBkC0izdwyN3ckkKjqa6oQ14vorLa+AWuIOKsY09oh6+uy5FpsEA4YhAIJScAUAOSAAgiHWFgA9/APp2IkfpYcvsaVnZIrv85XmsW9J2nbuRi9evpR2/8bGHgPvPXBQ3INZ2hdYDgIgKAVXAJADAiAYYm0BsGZwPbofZdw2dmfPXyC/2iFcX8Zy9vKjXXv3GfUo+PrNWxQQHMr1BZaDAAhKwRUA5IAACIZYWwCsG96EUksxK/mXxh7DLl2xymyPYcdN+paysrKkh3lji3v+nELCG3P9gOUgAIJScAUAOSAAgiHWFgAbNm9t1OzftLQ06jtoCNePqZq2aS9u91baxmYPs+V0pP2A5SAAglJwBQA5IACCIdYWANt06io9dIktMTGJWrbvxPVjKvY49+mzZ9LDvLGxx8VNWrfj+gHLQQAEpeAKAHJAAARDrC0AdujWU3roEltCYiI1a9Oe68dUPrXq0JOYGOlhSmxNEQDLFQIgKAVXAJADAiAYYm0BkJ2PMY+Ak1NSqKsZ1+Kr16gpxcU9lx7mjY29g9i4ZRuuH7AcBEBQCq4AIAcEQJBiW6L1iRhUqnfe1qzfIM6SlfZhbmFNWlBubp708G9s2Tk5NHnq91w/purVfyAlJ6dID/PGlpiURPUaN+P6ActBAASl4AoAckAABIYttNy8XUeaNXc+HTl+QtwLl22h9rbG1sc7deYMLVu1hnoPGGixte/q1G9o1Fp87B28Hbv3kKO7F9eXsdhM4kXLVpTq6/FLexAdTbXrNeD6AstBAASl4AoAckAArLh07t4U1rQlzRRCX/TDR+Jds4KCQqMetbLG/j3boSM3N5dSUlJo97791LV3P/IJrGO2ZVhYXxcvXZYeusQW8yyW2nTswvVlLLYEzc3bt436uhw7cVJcvFraF1gOAiAoBVcAkAMCYMWjcfGgVu0709oNGyk+PpEs0fLy8unKtWs0cuwE8g8KKfNuHDoPb9q4Zav0MCW2YiGwbd+1hxzdTL8LWF3vSgsWL6X8ggJp929sLCguX7WGNM7uXH9gOQiAoBRcAUAOCIAVi3fNIFq5dj09jXlm9L66xjYWhDKzsuj8pUsUMXQEdy7GYHcSp86YRYWFhdLDlNjYenyjxk3k+iutjt16GvXuH2sZGRk0dNRYri+wLARAUAquACAHBMCKwdHdm3oPGEyPnjwxOkSVtbEgmJObS9t27qa6DZtQVZ0Ld35vwoKfZ41aNH3WXIqPTzDqMewvLSk5mUZNmCQ+8pb2/ybsLmmPvgNKNRP6142d3917URQS3oTrEywLARCUgisAyAEB0PZ5BdQSH0mmpKaRnI1NzIi8d48iho0o1SNhvYcP9Rs8lH46e56KjNiH11BLSU2l1et+EAPo244dEFyPZs9fRC9KMQta2tjnuGHLNqNCLpgHAiAoBVcAkAMCoG3zFMLf3gOHKDev9EuoWLqxRZpHjpsozjyWnu8vguqH0669+8XlVEy562eoFRQW0q07d8QZva06dhED5i/H07p6iuv2zZgzjy5duSpOaDGlsZnCzdt24D4fsDwEQFAKrgAgBwRA28TucoWEN6ZTP52hQgu/62dKS0tPp7kLl5CTp+9/nTO7+zZr/gJ6/vyFeDfN3I2FSfYIPCsrW5yx/Cw2VtzijS0cnZmZJS7gbGrgZB934PARs818BuMgAIJScAUAOSAA2qZa9RrQ6bPnLBKizNXYBJEFS5aJj0tdvP2p76AhdO3GTas+55IaWzgbd//kgwAISsEVAOSAAGh72GQHdidKCUGKhcB5i5bQrr37xMkapt59k7vl5eXRwqXLxUfJ0u8HlA8EQFAKrgAgBwRA28LWvFu5Zh3lGbFrhdyNPXa19JI0lmwsaB878SP5BAZx3w8oPwiAoBRcAUAOCIC2o5rehYaPHiveSasojb3LJ3dj2+Zh2Rf5IQCCUnAFADkgANqOwLr16d79KKoILTMzk7Zs30Gjxk+i5y9Kv0ewuVtMzDPq0rMv972A8ocACErBFQDkgABoG9hEio1btpnlvT/2ODYpKZlu3o6kNes20IAhw6hJq7ZUu14DCqoXTk1bt6dBw0fSD5s20527d8WdMsxx3Lc19n5gdnYOnT1/ntp26iou1sxm3LJ9h+9HPSiXc/ilsWPduhNJHbr2wKxfK4EACErBFQDkgABoG1q270jpGZlUlsYCFpvJunX7LmovBBu2e4j0OFI6Dx/q3KM37d53gOITTNupozSNLd0SefceTfl+lnhM6Xk0a92ezl+8VC7vEhYUFNKZc+epQdMW3HmAfBAAQSm4AoAcEACVz8HNi7bv2lOm8MM+9uz5C9Stdz+jtkz7hbOXn7h12uWr16Rdl7mxRZnZxJb6jZuXuHh0nbCGtHbDRkpPz5B2YbaWmpZGK1avpcC6YdzxQV4IgKAUXAFADgiAytehWw+KjXtu8t237JwcWicEJ1cf/7duk1YS9rFufjVphxBGc4Q+y9rYe36nz5ylNp27ksbZnTueIeyxcLsu3enCpcuUkZFhlsfCrI/09HT66dx5atm+U6nPBcoXAiAoBVcAkAMCoLKxwLNs1WqTg066EJLY1mhs+Rhp36ZiQZLtPZyVbfoMXbZDx+gJk8nJ6/92CjEGe3w9ZMRo2nvgIMWZuKsIuyv6LC6Odu3bL74H6eCGNf6sGQIgKAVXAJADAqCy+dUOFt+NM6Wx9fc2bd1Obr4BXL9l5eEfSDt275UestTtxKnTJT7uLS22w0irDp1p8rTpdPDIUYoRgmVJj8rZu4ZPY57RvgOHaOJ3U8V3K3+9XR1YLwRAUAquACAHBEBla9+le4mBpqR29foNMahJ+zQXD/+a9ODhI+lhS9XYu3bsvUJpn6Zis6TZXUEWdmuHNqA2nbpSxNARNHzMONGAIcOpVccuVKtumPhvHN29MLtXYRAAQSm4AoAcEACVjT3+NaVlZGZSh249uf7Mrf/gYeL7c6a0bn37c/0BvAkCICgFVwCQAwKgst28fYdMafsOHja4nIq5edaoRUdP/Cg9fKna0pWruf4A3gQBEJSCKwDIAQFQudj7bampqWRsS0tLpz4DB3P9WQKbGTxi7HhKM+Eu4MXLV8RHt9I+AQxBAASl4AoAckAAVK5mbdpTVlYWGdsuX7tOgaHlt44de6/uQXS09DTe2h5EPxQnuUj7AzAEARCUgisAyAEBULnYJAa2SLIxjS2Hwmbn2ju5cf1ZCruLd/zkKempvLWxpWAatWjN9QdgCAIgKAVXAJADAqByTZ46nfLz88mYlpeXR7PmLeD6srRFy5ZLT+WtjW0t16VXX64vAEMQAEEpuAKAHBAAlWv+4iXiWn7GtMysLBo2eizXl6Wx9wCNbcnJKdR34BCuLwBDEABBKbgCgBwQAJVr+eo14sLFxjS2T26fiPKZAPJrbJ09YxtbC3DQ8FFcXwCGIACCUnAFADkgACqXKQEwIyOTIoQwJu3L0gYOGyE9lbe21FQEQCg9BEBQCq4AIAcEQOWas2CR0Y+As7Ozaeykb7m+LG3SlOnSU3lrS0pOpt4DBnF9ARiCAAhKwRUA5IAAqFwTp0yjPCMngbDAuGT5Kq4vS1u3YZP0VN7aXsUnUKcevbm+AAxBAASl4AoAckAAVK6+AwdTjpHLwLx+/ZoOHztu1n1238bBzYsuX70mPZW3tphnsdSgaUuuPwBDEABBKbgCgBwQAJUrrElzysw0fiHo6EePqHGrtlx/ltKyfSeKjXsuPY23tvtRD8jDP5DrD8AQBEBQCq4AIAcEQOVydPOixMQkMraxtQAnfDu1XLZZqyYcg607yI5pbDt99my5nCPYBgRAUAquACAHBEBlO3v+ApnSbt66Td41g7j+zC2kQWO6efuO+OjZ2DZ34WKuP4A3QQAEpeAKAHJAAFS2abNmk6ltxtx5VMXBievTXL4R+l6+ao24/ZyxjQVG9uhY2qe5fOPoLL6b6OLtT87efuTg6mnRrwVYHgIgKAVXAJADAqCyNWndzuiJIL+0589fUKsOlgtZbTp2pbS0dOlhS9VevoonnYc316epquldqE5YI3FdwfmLltCW7Tto38HDdPT4CTpy7ITw3w/Rpq3bxLuOA4aOoKB64eLja2k/YL0QAEEpuAKAHBAAlc0zoBadvXCRTGnsztylK1cprGkLs979Yn01bN6Kbt+JlB6y1G3/ocPiHTpp38Zgd/VqhtSjaTNn07UbN+lVfDxlZGZSfn6BwUfSrMb2Vk7PyBAC6Cu6fOUaTZo6nWrUqUtaFw+uf7AuCICgFFwBQA4IgMrGJkl8O22GSZMsfmmXrlyhRi3bcH2booqgdacudP3GLYMhq7QtKyuLFi1dTnXDGxs9EUQjhLU2nbrSpm3bxf2Ey3Ie7GPZRJt1GzeLfdo7u3HHA+uAAAhKwRUA5IAAqHzhzVtR1INoKku7cfMWde7Zx+iw9WvsY3v2jxDPpSyh65fGFq1mE0gmfjet1HfgAuvWp2UrV4trCJqzsc/nWWwsLViyjGrUCeWOC/JDAASl4AoAckAAVD4WvNi+wMZuC/frxh4HJyQm0pr1P1BNIUTZO7tzx3kTjYu7ONv3h01bKDHJ+GVpSmoseGVlZ9PJ02eoZbuO4t096fGZanpX6tyjN0XevSc+xjVHAJU21mdeXr4YStt37SEeU3oeIB8EQFAKrgAgBwRA28DedTPXXS+2BduyVWuoW5/+7KJKek9f+sbx/94RZDNo2czZug2bUPe+A2j1uh8oJTVV2o3ZW1pamvgotl6jZuI5/HI+bFeT8d9OpYyMDOmHWKylp6fTmImTyUn42ki/FyAPBEBQCq4AIAcEQNsxfdYck5ZcMdTY3a6U1DS6ces2HThylDZu2Uor1qwTsdmyh44eo9uRkeIsX0vcbXtTKxaOxc5p3OTvyNXHnxzdvWn2/IViAC3P8xC/PikpNGPOfPEcpN8LKH8IgKAUXAFADgiAtsM7MEh8VGquEPjrxgJPUVGRqDyDlqEmPhbOyqKLl6+IdwTZI2K5WlZWNk2dMatM706CeSAAglJwBQA5IADalpbtO9PDx49lD2kVqeXm5tLAoSMRAmWGAAhKwRUA5IAAaFuq611p+Jjxst4VM7axu4pKbixs338QTU1bt+O+H1B+EABBKbgCgBwQAG0Pm8G7aNkKcTasNTcWnDIzM2nAkOG0at16SkhIpOJiZd65ZCF2/8FD5FEjkPt+QPlAAASl4AoAckAAtE06d29xwkZmVhZZY2Ph78XLl+LWbL+cc+NWben4j6fEGbZKbCxwjxo/kfteQPlAAASl4AoAckAAtF2eNWrR0pWrKTfX9F1CLNVevnxFQ0eN4db18/APFEMU20bOUpNZ2HZwbAu8jZu30rxFi0XrN26mC5cui9vAleX9yQcPH5Z5CzswDQIgKAVXAJADAqBt03l406z5CygjI7NMwcZcjYW6+PgEcSHl6k6Gt1Vjkyl8awXTqrXrKTkllYqKyh4E2XFZ8Nu4dTs1atGavAJqiXdJ2TkwjkJoY4GZ7aqyZt0GSk/PMCmAssW4h4wcw31OYHkIgKAUXAFADgiAto/tWNEnYrC4g4VcEy5Y+MzJyaFjP56kBs1acudoCFvsuUmrdrR734EyLfJcWFhIV65do47de/7XAtJvwv4N2/f3/KVLVCB8rDGNfZ5nz18gZy8sEF3eEABBKbgCgBwQACsGFmrCmrSg7bv2UF5e+T8SZlvETfl+FvkHhXDn9jZsp49R4yZQ5N370m5L1Vj4q9+4Gdfv29QNbyyGOWNbbNxzatu5G9cfWBYCICgFVwCQAwJgxeLs7U/9Bg2lGzdvUU5urkUfC7NHqGz7NrZrSLM2Hd74yLc0HFw9xZnCxjY20aRh81Zcf6VVN7wJxcbGGfV1yi8ooCkzZlEVh//bPg8sDwEQlIIrAMgBAbBicnT3omGjx4l3uBIS2fIrxr/v9qbG3oN7GhND+w8ephbtOpbqsevbsPfzTp7+SXqoElt2djaNnfQtVS3D8dm5Dxk1Rnx/0Ji2e+9+chHCtrQ/sBwEQFAKrgAgBwTAis0roDZ179OfVq5dT5H37pn8eJjdIUtNS6Mz587TtJmzqUX7juTg5skdz1S16zWgp09jpIctsV2+eo1qhYZxfRmLPbY29lHwtRs3qUadUK4vsBwEQFAKrgAgBwRAYFhY86sdQs3bdqBvp8+g02fPilucva09evxEXEKFLeYc2qiZeKeOTTqR9l9WYU1blOp8fmls8saylavLdPfvF+wu4NyFiynPiIW1X7x6JXw9mnJ9geUgAIJScAUAOSAAgiHs0W1sXBy9rc2cO98sj3jfpnPPPtJDl9jYu4ds5rO0H1N16dVXnMhS2sYegzdu2YbrBywHARCUgisAyAEBEAyxtgDYf/Aw6aFLbPEJCdSkVVuuH1PVb9KC4p6/kB6mxNa6Q2euH7AcBEBQCq4AIAcEQDDE2gLgsFFjpYcusb16FS+EtuZcP6aqHdqAnsXGSg9TYuvUvRfXD1gOAiAoBVcAkAMCIBhibQGQvWNoTItPSKSmbdpz/ZgqvHlLev7ipfQwJbbWHbtw/YDlIACCUnAFADkgAIIh1hYAu/TsKz10iS0tPZ0iho7g+jFVz/4DKTk5RXqYNza8A1j+EABBKbgCgBwQAMEQawuAbDHnfCNm4bLt31asWWeWWcBsQef5i5eKCzyXtr2Kj8cs4HKGAAhKwRUA5IAACIZYWwBk6wDGPHsmPXyJje19XLdhY64vY9UKbUBXrl6Tdl9iu37zJgVgHcByhQAISsEVAOSAAAiGWFsA9AyoRad+OiM9fImNrRv4/ey5ZVqXsKrOhSZNmU45OTnS7ktsu/cdwE4g5QwBEJSCKwDIAQEQDLG2AGjv7E5LVqwyak9e1hISEsr0Ll69Rs3E/YSNaQUFhWLwxF7A5QsBEJSCKwDIAQEQDLG2AMj0HjCIkpKTpafw1vbw0RNxhxNj7gSyO3+NW7ale/ejpN29tcXGPae2XbpxfYJlIQCCUnAFADkgAIIh1hgAawTVFffYNfYuYHFxMd2LekDDx4wjjYsH16+UvZMbDRw+km5H3qWioiJpdyU2dm5sP2RnPP4tdwiAoBRcAUAOCIDwa9V0LuTg5kWDho8q1dZncxctIa2rZ7mEQHaM+cLx2D6/xjYWzFLT0ujwsePUrkt3cvL0oepC0GN3BRn233Ue3uLaffsOHqbklBSjgyZrbPbxhG+ncOcOlocACErBFQDkgAAIjE9gHerRdwBt2LTFqAWP8/Ly6Mat2zR7/kIxPHnWqMX1bU5eNWsbdX6GWrEQ7NhWcafOnKWtO3aKTp7+iV6+ihf/v7K0R0+ekrYUdxnB/BAAQSm4AoAcEAArNlffGjR01Fg6cfIUZWZlkamtuPg1JSYm0ZFjx8V9e529/bhjmQsLm+yxrrU1tk7huMm4+ycXBEBQCq4AIAcEwIqJPU5t0qotnT5zVtw1w5THnYYa6yclJZWO/3iKWrTrZJFHwzVD6tHV69fNds7maOxcjp88Td41g7jzhfKBAAhKwRUA5IAAWPF41gikGXPmUUZGJlmyscfDs+YtJJ9A84eiTj16U2xsnFWEQHYO0Q8fUov2nbjzhPKDAAhKwRUA5IAAWLH41Q6hnXv2UlZ2NpVHy8nNpQOHjlBIg7LvyPFrbF3Ab6fPEEOm3C0nJ5eGjhpjkbudUHoIgKAUXAFADgiAFYdXQG06/uNJKjBiT1tzNDYz9satW+QfFMKdU1k4unvR+k2bqUim9wHZnT+26PPSFavFQCo9PyhfCICgFFwBQA4IgBVDrdD6dPrsOdkmT7CwxPbmDWvSwqw7ZDh5+tLq9RvKNIHFlCYuK5OaSrMXLBKCqDd3XlD+EABBKbgCgBwQAG2fk5cvbd+5W5ylKmdjdwLZ5BBz3wn08K9JcxYspMzM8guBbE3BCd9NJb0QQKXnA/JAAASl4AoAckAAtH2Tpkyj3NxcsoaWn19Aa37YYNa7gAxbvJotZyOu5VdcbJHJIaxP1vejx4+pT8RgPPa1MgiAoBRcAUAOCIC2rXm7juKjSmtrvQYM5M7VHGqFhtHGLdvEhZ7NGQJZ8Hv+4gUtX72W/GsHc8cF+SEAglJwBQA5IADaLne/ANp/8JDR+9mWR7ty7Zq4np/0nM2B7cTBAuaefQcoKTm5TEGQBT92V3Hztp3UuWcfqqpz4Y4H1gEBEJSCKwDIAQHQdvWOGETJySlkSmOhiWHv7bE9gS9duUpHjp+g02fOiY9Ac/PyyvSoNTsnh6Z8P9OiS6e4+tSgxq3a0KKly+nJ0xjxHUgWhn8571+f+y//m/1/7N/kCf82Kjqa5ixcRA2atRQnm0j7B+uCAAhKwRUA5IAAaJtY+Pnx9E9kSmMhKDYujjZt204t2nU0GNLY4s5TZ8ymazdumPx+4e3IuxRUvyHXtyWwz6FmcD0aPGI0LV25mg4eOUpnz1+gi5eviM4I/33/ocO0aPlKihg6Qlwv0dzvKYJlIQCCUnAFADkgANqm5m07mLQ0Cgt/Z86dp7adu5VqkgN7jLtgyTLKMuFY+QUFNHjkaK7P8sJCoYObJzm4eiLs2QAEQFAKrgAgBwRA27RkxUoytrHwd+zEj0bflWMBiu3KkZ6eYfQjYbYwtbQ/AFMgAIJScAUAOSAA2h525+7xk6dkTGPh78dTP1FAnVCuv9Ko7uRK3077njIzjdtfmL2Xxx5XS/sDMBYCICgFVwCQAwKg7Qlr2oLS0tLJmMaWimnTuRvXlzFcfWuICz0b27r26sv1BWAsBEBQCq4AIAcEQNvDFkRms2yNaWwChDmWOOnQtYfRj4HnLlrC9QNgLARAUAquACAHBEDbw2a5FhQUUGkbW+qldceuXD+mqK53FWf3GtOOHDvO9QNgLARAUAquACAHBEDbwmaz7tq7z6i7cGzJF5/AOlxfpmAza1etWy89RInt6vXrpZpxDFASBEBQCq4AIAcEQNtS3cmNDh87TsY0th6em695JmKwADpm4mTpIUpst27fIWdvP64vAGMgAIJScAUAOSAA2hZHd286ftK4iRhHj58QApg/15ep+g4aIj1EiS3y7j3yrFGL6wfAGAiAoBRcAUAOCIC2RePiQUdP/EjGtFNnzpp1KZaho8dKD1Fiu30nklx9A7h+AIyBAAhKwRUA5IAAaFvYO3gHDh8hY1rUg2jyCqjN9WUK9gh47sLF0kOU2K7fvEVaV0+uLwBjIACCUnAFADkIAdBJCIC3pIMpKNeaHzZSUVERlbaxWcBNWrbl+jEFewfxyrXr0kOU2NiexdJ+AIwVHNZoOhkY4wCsDVcAkIMQAB2EwfOadDAF5fpu+kzKy8sjY9rKteu5fkwR2qip0cdevX4D1w+AsYQAOIkMjHEA1oYrAMhBCIDV1Br9BelgCsrVpVcfyszKImMaWwqmVmgY15cx2OPnDVu2Srt+axsxdjzXF4Cx6jRoNJIMjHEA1oYrAMhh5569X6o1uh+lgykol7OXH718+YqMaeyRMXt30LNGINdfabAFoFmQS0lNlXZdYisUjutfO4TrD8BYwWGNepCBMQ7A2nAFADkIAfAvKo1ur3QwBWU7cuwEGduysrJoxZp1QoD05forCZv40b1Pf3r46LG0y7e2+w8eiHcOpX0CGCu4QaNwMjDGAVgbrgAgh517936o0uo2SAdTULaIocPJlMZC4Kat28W7iNI+DWHhr0/EIHoWG2fU7iO/tDkLFnF9ApgiOKyROxkY4wCsDVcAkENxcbHdsNFjpwsDaIF0QAXl8g4MEhdYNqUJPxP06PETGj95CrurIu7SUVXnIvbLAp+Dmyf51Q6mTj1605Hjxyk3N9ek8MdCY1iT5ty5A5ggJyJi4N/IwBgHYG24AoBcRowZ30Ot0WcaGFRBoao7udL0WXMoLz+fTG3svcDoh49ox569tHDpcpom9Mfu2K3fuInOXbhIWdnZ0g8pdWNLz6z9YQM5untx5w5gLJVWH5mcnPIpGRjfAKwNVwCQixAAg4QAmCAdVEHZQhs2pTuRkWSuxu4MmqvFxj2nVh07c+cMYAohAO4UAuDHZGB8A7A2XAFALoOHjvxL5eqOj6SDKijfoBGjKCMzk6ypsSA5beZs7lwBTPT6a61+aFJyyrtkYHwDsDZcAUAu27Zts9O5eR02MLCCwmldPWjX3v1kTe3y1euk9zRupjFACTK6DIiol52Tw41tANaIKwDIKTCk/ggDAyvYADaRI/KeaRNCzN1inj2jtp26cucIUAY3Dx456kgGxjUAa8QVAOTUpVd/e2EgzTUwuIINaN6mA925e8+s7/EZ09gsYRb+evaLEGcSS88PwETFX1bVrN574OAnZGBcA7BGXAFATi9fxf9BpdWfNTDAgg1goatj917irF45WmJSEvUfPIyqYtFnMCtdRlBoWO9bt25xYxqAteIKAHISAuBvvrbXjxEG1df8IAu2gIXAdl26U7QJO3aUpT1//oIGjxiNHT/A7FRa3eNx306pTgbGNABrxRUA5PT69Wu7bbt2ewt/UUdLB1mwLbVCw2jn3n2UaeHZwXl5eXTi1E8U3qwlHvuCRYSEN15VUFDAjWcA1owrAMhtz779f1BrHNcLA2uRdKAF28J295g09Xt6EB1t9vcCi8X3/WJp8fIV5OEfyB0bwEzyQ5o0CyADYxmANeMKAHKLj4+369S9VwuVVp9sYLAFG8O2d2vYrCUtWbGKkpNTyByNbQu3ftNmat6uI2lcPLhjApjRTz+eOfN7MjCWAVgzrgBgDRauWvVbe2f3EwYGW7BRLAj6BAbRd9/PpAsXL1Hc8+fiNm9vuzPIZvbm5OTQy1fxdPX6DZq7cDEF1Qv///sGA1iKSqvLDKwb2iIjM7MSGRjHAKwZVwCwFnVC64cJg2yedNAF2+fo5kVNW7ejcZOn0Io162jvgYN05tx5unzlGt28fZuuXL1G585foIOHj9Ka9Rto8rTvqW2XbuTk5cf1BWAhxUIA3H/42PEvpGMXgBJwBQBrceTo0c9UWv1BAwMvVCDsTp6Ltz/51w6hwLphVCesIdUS/rNGnbrk5htA1fSu3McAlIPkHn36t0tITHxHOnYBKAFXALAWKampdoFBwYEqje6ZgcEXAEA2GhePzcvWr/+tdNwCUAquAGBNIu/d+7he42ZT1dgdBACsx6vFy5Y7SMcrACXhCgDWZuz4775Wa/Q3DQzCAADlreDr6vqxGRkZ70rHKgAl4QoA1iYvL8+ua+9+ASqtPsXAYAwAUF4K3f1rbjj500+fs0XrpWMVgJJwBQBrlJyc8v43DvqxwgCcaWBQBgCwPI3+xndTZzlLxycAJeIKANYoPz/fbvqsWX9XaR03CANxATcwAwBYlC6nZnCD+lFRjzDrF2wCVwCwVmyvzXmLF3+hcXY7IgzIr/kBGgDAEnSpAcGhfZKSk9+TjksASsUVAKzdvIWLqwuD8iU1QiAAWJhKq08Pb9Zy7IOHDz+VjkUASsYVAKxdfkFBpemz5tRg7+OoEQIBwIICQ8OmR0U//KN0HAJQOq4AoAQFBQXvzF+0VK9xdj+jRggEAPN6LfyBmR4QHDo1OTnlQ+n4A2ALuAKAkixYvLSaMFifUGNiCACYi0YXH96s5bDoh4/w2BdsFlcAUJKCgkK772fPEUKg7gdh4M7jBnIAAOOkBIU2aP3gQfQn0vEGwJZwBQClYbODFy9e/ElIg0YjhcE7QVBsYFAHAHgjlfAH5FdVNT/51Qn2T0lNxVIvYPO4AoBS5eXnv9O1V7+GKo3+tDCg50sHeAAAQ9hMX8+A2jOGDh/51b1797ixBcAWcQUAJYtPSHy3ZZt2Vf5dpfp3wsCeIx3oAQB+pUhwrbqjvt3ZCxd/Jx1PAGwZVwBQuqysLLuXL1++H9ywkZ+bb8ABYYBPNTDwA0DFVSh4HhLeaMyyVav+kZKS8g729oWKhisA2JJjJ05+pnFy6ajW6C+q8VgYoKJ7rdLqE6rrnFf1GTDQRzpeAFQkXAHA1hw7ftxu9tz59t9oHccLF4CXBi4KAGD7ilUa3fm69ZvVO3Ls2B9TUlK4sQKgIuEKALaIzRROSk5+v//gwWq/oJBNKq0ukV0QDFwkAMCWaPQFDq5eN0PCGvU6d/7iX9PTMypJxweAiogrANi6R4+ffBhcv0GDL6va71Rj7UAAW8X+wHtSxd5h7pr1G7+SjgMAFR1XAKgIbt++bbd7375/fKV17C9cJO7952IhvYAAgCLpCtni8BHDhtc8cODgR9LffwBAAIQKLiEx8b2lK1b/b1D9hpOEC8cL9c+zAw1cUADAyrH9e7O+qqo5Fxga1jgxMenj7JwcPO4FeAOuAFBR9eoX4feNVr9WuIiw3UReG7jAAIB1KlJpdLdq1A6OGDBw0OePHz/mfr8B4L9xBYCKis0K3H/w4J9CGjYKV2l1F9R4LAxg/TT6ZLXWcd6ipctdL1++jC3cAEqJKwBUdKmpqZXOnD//ea36Yf0dXD3vsFmE3EUHAORULPxepn1VVXtw6KixrvEJCR+ymf7S32UAeDOuAAD/Z836DZVVTq7zVRrdU/Giw1+IAKBc6QpUWt2xJm3ad4gYOAjbtwGYiCsAwH/bc+TIxwOGDKut1jpu/nl2ofSCBADlQxfr6OYxavf+A18/fPIEj3sByoArAAAvKyur0qv4+N/VDKnf/KuqmksqjT5bjYkiAOWB3XmP13t4L163YZN9QkLC+9LfTwAwHlcAgDd7+vSpXZ/+A/7hFxg6RK3R3fnPxUl6wQKAsmN/YKUJdvcdODh0165dWNIFwIy4AgC83cWLV99duGS5h1rjtEi4QKUYuHgBQFlo9LeatGzbYfe+/f/IyMD2bQDmxhUAoHTYrMMXL199NHTUGK+qOuejao0uQ63V4bEwgOkKVRr9Y1ffmpOuXr/xz9TU1Helv3cAYB5cAQCMN3PW7N81a9W+q1qjP4llYwBMoXuldfNYOXTkJN3589dxxw/AwrgCAJjm8eOn7+zavU/l6OE5TriYxfEXOAAwgP3BdHj42PGNDx09+qn09woALIMrAEDZvHz16oO1P2zUObp5rFRrdIlqTBQBkGKvSuQJfyjd9woI7Nard58/ZGdnY1kXgHLEFQDAPDZt2lSpd7+IsMoapwPCxS79Pxc96YUQoMJRafUPaoXWnzxy9JivkpOTud8dALA8rgAA5pORkVlp+669XzRt1a6rcOGLlF4IASqYzMoa3cYVa9b5X7l27QPp7wsAlB+uAADml5yS8p63r++XLr7+01RaXYxaoysycHEEsEXsznf2N3qXsy6e3qErV636fWFhIfc7AgDliysAgOWcv3Kl0sBRo120Lp5r1Rp9goGLJYAN0bEJHldatu80eMrs2Z9Jfx8AQD5cAQAsb/+hI58NHzO+hXBxPKH+eRakgYsngKKleNYInLZ9125tTGzse9LfAQCQF1cAgPKRlZX1Tq/evf/s7hvQR6XVP1JrdflqTBQBZXut1uhSHN29dtQKDvG+fz/qQ+nPPQBYB64AAOUrJTXVbuCo0apadetNFy6ejw1cVAGUIFut0Z/uN3BI8+27d2OCB4CV4woAII8rV6/+dsXqtYHChXSbeDHlL7AAVkml1T1q27nroG3bd1XOy8vDLh4ACsAVAEA+hYVFdjt27vpD7ZDQRlV1LpeFi2uuGo+FwToVqbW6eFffGsuateilSk5JeV/68wwA1osrAIB1mDpr9h9btOs4UqXR3RQUGrgAA8glzdnbf8ugESNr3Lpz5zfSn10AsH5cAQCsx7Nnsb/ZvG2Hk2dArdnqn3cTkV6IAcqT8IeI7uJf/vFF11179/9Z+vMKAMrBFQDA+ty9/+BjD+/6AQ5uXvuFCzCCIJQrlbhUke6ld83aw6ZOm/bFw4cP3ysqKuJ+TgFAObgCAFivHXv2fNgnYlAb4YJ8Qbgw50gv1AAWEFenQaNFA4cNc8jNy+N+JgFAmbgCAFi3vPz8SkNHjvrmf76sPFKt1T01cMEGMIc84Q+Nw44tW4XcuHX7E+nPIQAoG1cAAOuXkZFh9/Dhow9at21XzcXb7wchCCYLF+xiAxdxAGPlV9O73nIPqNVx5959f4tJSOB+/gBA+bgCACjL7cjI9wcMGRbk4u2/U7h4Zxq4oAOURqFao49q07HLtDnzF/9F+nMGALaFKwCAMu05cOhvf/H17yNcyK+rxTXauAs8wJvkVtHqF3fv1cf75atX2MUDoALgCgCgTMXFxXZRz2J/893UqV96+Nccp9Lok1Tish3cxR7gZxpdlqOb12n3moH1ox8++iQlJYX7uQIA28QVAED58vPz7foNGuYSFNZwlRACX3IXfqjo8tVa3Y3+g4Z2PXDw8KfSnx8AsH1cAQBsx/Wbtz4LDApuoNLoT6o1bC03LghAxcK2FXzxlaPTd5O+n6GT/rwAQMXBFQDAtsTFxVXasWfv/7j51+hVTe8SpRYX9eWCAdg0XbFKq8t09vLd26l7D13048cfZefmcj8rAFBxcAUAsF0z5y34+xdfqeYKoeCxGhNFKgaNLverqvYHAkNCGz589Pi30p8JAKiYuAIA2C42UWTx0qUfdujTt2ZlB/0qNe4G2rJitVZ3r5pWN2T12nVfXL58mft5AICKiysAgO1LTEmxe/Dw4Weufn7Nta6el4SwkKv++f0waYgA5WF3dlPd/GrMnDlnbrWHDx++L/3+AwBwBQCoWA4ePvonB2e3fmqt7o4ay8Yo2WuVVpf4L2e3LR169/ORfp8BAH6NKwBAxbNz5067ydOnu1V2dJqt0uoTWJgwEDDAehVX1urOB4U3arF0564/v0pN5b7HAAC/xhUAoGLKzsmxi4qO/l37Lj09dB4+x4QgmKPWIAhaM7bQdzW962MX7xrDDx459mXs8+eVpN9XAABDuAIAwKMnTz6q17hZ6ypa/XGVVpcvDR4gM404wSO2ms5pyeIVK7+Wfv8AAN6GKwAAMPfv37dbv3HTl9Uc3MYKoeORGo+FrUWBSuO4pdeAiHqbNm/+SPp9AwAoDa4AAPBrUVHRv50xe57e2ct/qRA+0tXi8iJcKAHLeq3W6PO1rp53/OoEt78XFfWn5JQUPO4FAJNxBQCAN+nUvVeQyt5hrxBIUsVQwgcVMD+2i8ddz1p1Rp48/dPn0u8JAIApuAIAwJskJibarVqz9vPQRk06qrW6q2qEQItSafVJKq3jsumz53gfO3v2Hen3AwDAVFwBAOBtYuPi3j145Kja3tn9W5W9Y5xag23lzEajf63S6PMq2zv+1KN/RODd+/c/zcvL474HAABlwRUAAEprz549dh06da1mr3NZJ4SXl2rcESwbjS5fba8/W69Ri+6dOnXGBA8AsBiuAABgrE2bN3/Sa8DApiqtfh9bm44LNvB2Gn2s3sN30qo1P3xz//5DPO4FAIviCgAApkhOSXkn8u69z71qBvWubO/4+D9BEHcES8a+PhnV9a4bFy5Z5hn14OGH0q8rAIAlcAUAgLKIiYmxa96y1T89a9b+VqXVPfxPyJEGn4rutYotqaNxPNaha496W7ZswZIuAFCuuAIAgDkcP3XqvWmz5tQUws4PgjQDIajCUmn0Nxs2b9171Zo1X2RkZHBfOwAAS+MKAADmwmav3o68+6ce/QY0qKJ1uq7W6AvUFfWOoEZfrNLoEuxd3OeePH3mm7i45+9Jv14AAOWFKwAAWMLo0WM+qdeo6SCVVndNCEQsCPIhyTYJgVeXqHXx2NCtVx/9hQsX8LgXAGTHFQAALOV+VNS7y1avcXDy9p0pBKN4A2HJ1uSrtPrjEUNHtN28ffvvpV8PAAC5cAUAAEu7FxX1u/mLlwVWdXRhy8Zkq23rsTD7XIqEz+tFUP3wiFt3Iv8nNTXtXenXAABATlwBAKC8LN248d3Wnbo2U2t15wRZBsKUAuke+wUFz2rfv/+Xqenp3OcMAGANuAIAQHnKzMystGzVqq8btmg1VKXRPeADlUJo9Blqe8ftcxYsrP3TuXMfSD9PAABrwhUAAOTwLDbuA61O71BN77ZGCFPpao1OCY+FXwvnWajWOt36UlW11dx58/9aWFjIfW4AANaGKwAAyOnChavvdO7a10fr4rlTrdUliSGLD15WQJev0uhuhDVpMXLs2GmfSD8PAABrxhUAAKzBxq07/jBg6PD2Kq3jfiFw5fABTDYskD71rBk4acnyVQ6PnjzFen4AoDhcAQDAWqSkpr57/eatv9eqGx5eTe96Qq3R56i0+iIDoczS2NZthVUcnJ5Vd3Ift3z1Oqf7Dx5g314AUCyuAABgjS5fvvZex669ndp07jZNCGSXVVpdvKXDoEq886i7H1AndFuH7r06Tpg4HY96AcAmcAUAAGuWm5tbacnylV8uXr6ikVfNWhPVGv0RQazAPGFQo2fL0VwWgt/KoaPH9hGO43bh4uWPpOcBAKBkXAEAQCnuRUW9f+3GzS8EmrrhzepVd3KdWM3JbYvgVlWdS7pKq8sXwhxTIO5DLO5FrGPb0LH/zK/i4JRd3cktVvj3J6s5uc6trnfruvaHjV5Cf19fu3Hjs/T09HekxwQAsAVcAQDAFly/c6dSmx49/tCxe88qHbv1dOzQtacH07FbD5eO3XvZd+ze/V/jZ836jfTjAAAqAq4AAAAAALaNKwAAAACAbeMKAAAAAGDbuAIAAAAA2DauAAAAAAC2jSsAAAAAgG3jCgAAAABg27gCAAAAANg2rgAAAAAAto0rAAAAAIBt4woA8P82ikfxKB7Fo3gUD28MABn+2DLnewm6AAAAAElFTkSuQmCC;clipPath=inset(0% 24.33% 0.3% 22.33%);" vertex="1" parent="J-4PL1bRExIhTpd28Z0a-49">
          <mxGeometry x="223.1" y="4.38" width="40.46" height="42.62" as="geometry" />
        </mxCell>
        <mxCell id="J-4PL1bRExIhTpd28Z0a-65" value="&lt;span style=&quot;font-size: 20px;&quot;&gt;&lt;b&gt;Roles&lt;/b&gt;&lt;/span&gt;&lt;br style=&quot;font-size: 14px&quot;&gt;&lt;div&gt;- Store Cache&lt;/div&gt;" style="html=1;shadow=0;dashed=0;shape=mxgraph.bootstrap.rrect;rSize=5;strokeColor=#6C767D;html=1;whiteSpace=wrap;fillColor=#ffffff;fontColor=#212529;verticalAlign=bottom;align=left;spacing=20;spacingBottom=0;fontSize=14;" vertex="1" parent="J-4PL1bRExIhTpd28Z0a-74">
          <mxGeometry x="305" y="474" width="270" height="130" as="geometry" />
        </mxCell>
        <mxCell id="J-4PL1bRExIhTpd28Z0a-66" value="Redis" style="html=1;shadow=0;dashed=0;shape=mxgraph.bootstrap.topButton;rSize=5;perimeter=none;whiteSpace=wrap;fillColor=#1ba1e2;strokeColor=#006EAF;fontColor=#ffffff;resizeWidth=1;fontSize=18;align=left;spacing=20;" vertex="1" parent="J-4PL1bRExIhTpd28Z0a-65">
          <mxGeometry width="270" height="50" relative="1" as="geometry" />
        </mxCell>
        <mxCell id="J-4PL1bRExIhTpd28Z0a-68" value="" style="shape=image;verticalLabelPosition=bottom;labelBackgroundColor=default;verticalAlign=top;aspect=fixed;imageAspect=0;image=data:image/png,iVBORw0KGgoAAAANSUhEUgAAAoAAAAFoCAYAAADHMkpRAABdQElEQVR4XuzdB5xTVd4/fiyr23+7/312n322mKGTYehVepdeFAFBFBABGypWsGFFkSYqKNgLKCiiKFiQjgUpokJueqbPZPpkkkkmyXz/95xZ1vGeEMKQ3JyZ+ZzX6/3a5zng5CYzc+6Hc8/5niZE1AQAAAAAGg+hAwAAAAAaNqEDAAAAABo2oQMAoCHxZ6afF0h3XaT6teq3tfxGdbE/w3VByFsh/HcAAA2Z0AEAUF/5jh+9uGzr+/8u/fD9zqqhqit/6Nr8+pPGlEWmVMNjptSU5YoxZaWSmrJC/b+XmFIveejHtpfcnL3kwWnq3x2t6lm69f2WZZ9s/X/arw0A0JAIHQAA9Unxxrd+n7t40UDV7Y4xQ15QjIYdatg7pqQastSg51NVq+gMgurfL1T/u5NqQNxrbt98g/r1HlRdnvvQokvCfr/wugAA9ZnQAQAgq+pgsEm4ouKCkKf81/ZxI/o6x1+2wtyt7SGTMYWFPY8qHCHc1QULjZWm1BS3+rUtjrFD33aMGz6pdMcnf1Nf/1dhf6VwbQAA9YnQAQAgo4rvDv3O/cyybibjv+9Ww9mhCKFND7kmo+FF51XjhngO7PvfUFnp+drrBACoD4QOAACZeH849mv3syv6K907rFADmFkVihDM9MRmBwtOpqZsyll013XFmzf+WXvNAACyEzoAAGSRfsN1rewjBz1vMhqsipGt0xPCWDJVq9dUZO6Wti191tUjKg4fukh7/QAAshI6AACSJhRqEvrh+K/yHlncTOmcer8pNaVIDVlsxi+WjRzJYUypNhlTvErHVttswwZfWvXTj7+jggLxvQEASEToAABIlrItm/6W+/c/36AGv2/VcFUlhC3Jqded62z698eLb5jdMVhcdKH2/QEAyELoAADQm+/IoYty7rl9mKVHu/fUIFWqDVb1jN+UajiSOXfGnUUvPPd77XsFAJCB0AEAoJdQWemvskeOaG3t3Xm9GpxyleRv8Igfo8Fj7tR6d/qAPiO9n336h+pwWHj/AADJInQAACRaqLjogvLPd7R0TRp7hxqWsoXw1LBUqDaUfvTBpZUnf/yN9rMAAEgGoQMAIJFK3nr1N1kLbp6jhqLdSs1JHdrA1FApzvHDH3Y//XirYFHRedrPBQBAT0IHAEC8VVdXN6n45uvznFdN7GrumvquyWgoUmTe2ZsY7P16VUedl4+ckbts2QXsc9F+VgAAehA6AADiKeC0X1S+87N2itHwghp+yiIEo8YoqH4ee/IW3zfae/S7PyEIAoDehA4AgHioKnSfV/Dy2hTXFSNuVVINxyOEIEhNyVfaGtYVvbSmm+/QVxdoP0MAgEQROgAAztkDD5yXMX3S5JOpl+xUw1+ZqrE97j0LhrDqe8fwfvf5pkz6OxUViZ8nAECcCR0AAHXBypwEXM7fupc90cOa1uxdxWgorwk32sADIhaQDX5L60t+cowbNkX9HP8cKi/DRhEASBihAwDgbHmPHTu/+J230pQ2hqcUY4Mv65JofqVNyrvZd982qvSjj1BIGgASQugAAIhZbm4T363z/2ofNfQmNbgcVBpSIefkYjOn6aa0VmuK7r3LSFu3ip89AMA5EDoAAM6kOhBoEvJ4LnJOHDPU1vJfuxQj392LdX7xZkypUlpf8oOjZ8fbKg7s+2vY68VjYQCIC6EDAOB02Do/7949v8ldeEcvpc0lLyuphoAQWiBBDEdtA3teUbFvz1+DubnC9wYA4GwIHQAAp1O88a1mllaGxxWjwazUPKaMEFQgUUyphhKljeG1rBuuGxosLrpI+/0BAIiV0AEAoOU99M3vMq6bNt3SLW2fwjYpRAgnoJugGgSdrqsuX+5+dvn/ar9XAACxEDoAAJiq4uImPtPJPzoG9R9s7tByjxo82ONerPOThTElqKQ1s1k6pN5S+v7mSypdLuF7CABwOkIHAECwqPBX6XfM73mibfNVatgoFsIHyCSghsEvTcOHjPMeOfQn7fcSACASoQMAGreCtc/9f5nXX7tYSTX8qIaLqgiBA+SU4xg16OXsO2/rHiwtOV/7fQUAqE3oAIDGp9rtbuL5YvufHMP6TFI6tPpWMRp8EQIGyK/KZEzJsQ7s9Wj+onv/L5ybeyEFAsL3GwBA6ACAxsX30w+/L2nbepApNeVDNUBURggVUP+E1O/n8Zz/+8vc8hfW/Ev7PQcAEDoAoHEIFhacn7fkkQ6OscOeNhlTXBFCBNR/5Upa84/ynnx0hGfPrl9rfwYAoPESOgCgAauublIdCjXJfvqhix0TRtxqMhpOKKkGzPo1bNVqwE+39u/+gm3qqBah8rImFA6LPxsA0KgIHQDQMPFTPF5a99fcv/9lkhoKvlNQyLkxKrG2+Mci75VXNA0WuC/U/owAQOMhdABAw1NxcP9FhS88108NAG+b1BAQIRhA48HqOe7Nuu3G6wvffPUv2p8VAGgchA4AaDhCRUVNcubMNtiG9nlCMRpMEcIANE7VijGlUGnf4oOsG6/vXb5jB8rGADQyQgcA1H+hstLzA07H/9jHDJ6n3uhtplRDQEk14BQP0DCE1Z+PPHNn45qy7dvSqnKyf6X9WQKAhknoAID6rXTrB3/OvvvWieoNfrtS87gvwo0fQOC0Del7S+kHm5oFMtMxIwjQwAkdAFA/ufftOy/z4Qc6K6nNX1dv5jkKzu2Fs+c1GQ2fpc+86hrH2rW/0f6MAUDDIXQAQP0Srqg437Nv9z+Uvt0eOpna1KwYU0IRbuwAsWK7w4t+6tTmvdwlD3cIecp/xUoHaX/uAKB+EzoAoH4I5uScV7F3z/9ZB/S61pSaYo5wIwc4VwUnUlOWFb3xaqfK77/HY2GABkToAAD5BZ968tdZ864br7RJ2aTepD0RbtwA8RJWjIaj9oF9bqxY8tg/SFGEn0cAqH+EDgCQW8HKpw3OFv9er96Ys1R43At6qFZDYKmtxT8/zRhz2aiQx4PZQIB6TugAAPlUOq3nFW9+p4WpY+v7lLRmmSYjTvGApGAbiwLqz+Hbmbfd2NV78sffhv2Vws8rAMhP6AAAiZjNTbwvr/vryWHdr1KMhq8VzPiBHMKm1BTnj2n/ftS9amkabdsm/uwCgNSEDgCQQ7C4+ILsSeMH2Zv/Y6Mp1VAQ4SYMkGx+c5tLvs7u2mFW+c7P/qj9GQYAeQkdAJA81VVVTYJ5eb/Kvv+uFNvAnqvVGywLfsEIN14AWVSbjClllh7tPzMP7T0kkJX521B5ufCzDQByEToAIHmK1q1tobRuukBJNVj4MV3izRZAZn6TsemzGXOv616Vk/1r7c83AMhD6AAA/ZXv/vL3eUsenai0bbpTvYn6ItxYAeoJQ1D1U+bcGYvdz628RPuzDgByEDoAQB/V4XCTYEnJ+Y4pYzpYB3R/22RMyVNwfBs0FMYUr9K+xTfOyWMmlHz8wcU4TQRALkIHACResMB9ken2W1v/mNb8KfVm6RVungANR0AxGj799tJul/mVk7/X/i4AQHIIHQCQWIWvv/KPrFvn3WpKTfnOhA0e0GgY3PahfZ4sXL+mcyDdeaH29wIA9CV0AEBilH/yyYWZN1w3zNSuxefqDbFUvEECNHh+NQh+75o87t68hx76g/Z3BAD0I3QAQHxVOR0XlzX9d1dz5zZvKcaUIvUGiHV+0JhVq78HflNa80PZ7VtP8D+z6s/hQOA87e8NACSW0AEA8RHITL+gZMumNrYhfRaqN73cCDdCgMauzJRq2FjwwrPDvF8duFj7OwQAiSN0AMC5y1z56B9cM6660ZSask9VGeHGBwA/s9sH93rCvfDu1lVWK2YDAXQgdABA3bAyF6F16y7KG9Sn98n2zT811azzw+NegDNjvyeVShvDD/bBvW8JFhb+LlxZiSAIkEBCBwCcPe/3Ry8seu2lS08aDesUbPAAOFe7M2+cNa5i3+6/qEFQ+H0DgHMndABA7Px2e5P8VSuaWgb1usuUmmJSMOMHEA/VJqMhX/3fV/Iee6hv6SefnK/93QOAcyN0AEBsQuVlFzrGD59qMjbdqxhTPOymFeFGBgB1F1KZLL27Plj+6Sf/q/0dBIC6EzoA4PTY4yjfTz/8IWP+9X3NHVp+rN6cqhQEP4BEqlaMhpDSrrli6dJmbuWJH/4WzM/F+kCAcyR0AEBkBQcONMlftbTbydRLViiphhx+YxJvVgCQMGoQTDVszrp+2tjA2jV/JJ9P+D0FgNgIHQAgKv/807+eGNz3VlOq4ZiC49sAksgQVmWkG/7+Ut4j96dqf1cBIDZCBwDUCJWVNQmkp//BMaTnBEv3dgcUo6ECp3gASCOotGvusA3qdU/x22/8uyo//wLt7zAAnJ7QAdDoeTxNAlve/13GdTP6KW1SXuM3GvHmAwByCKu+Uzq3u9a77cO/0YkT4u80AAiEDoDGzv34g60z/v23p9WbilWp2YWoveEAgGyMKWW2Fv96M3fcyGF+px3HygGcgdAB0BhVB4NNyrZ98HvXpHEzlfYtvleMBhzfBlDPmFJTgiZjSqZ91MC12Xfe8r/q7/V51eGw8PsOAAiAAE0qT574k6OZYYJ6AzmoYMYPoEEwpRqyzK0MCwpXLmsa9leikDSAhtAB0FgEnPaLi9Y939s2uPdz7PGR9gYCAPVepRoEd+Uve+Lq8i8+/aN2DABozIQOgMYg/+FF/+OaNOZxJdXAjm9jxZy1Nw4AaDjyrf27vZE1d3b3gN2O2UAAQgCERiQc8J9fsH7dX82XdrnWlNbspBr+AgqKOQM0Buz3PKQYUwrM3dJWW66/7pJgUeFF2jECoDEROgAaoooDe39XsOaZcabUlI/UG4Evwg0CABoHNQwajmfOufbmkvc2GcL+ShwrB42S0AHQkFTaLOdnPXBXR9vAHqvVQT8rws0AABqnMpMx5dPsO2+bULZp06+0YwdAQyd0ADQE4Urf+SfuvefPtkG97jelGizqYI/HvQCgVa2GwFxL93avlVzarX3o2FEEQWg0hA6A+izs8zWp2LPrfzPnzZympBoORxjwAQAicVs6tXnMs3dXy4DLiWPloMETOgDqq7wvvjgv99EH+6sD+QbFmFIcYYAHAIiG1QHdk3HN5JmBxQ/+iQIBYZwBaCiEDoD6qHT7J3880a/HgpOpKeb/DOLagR0AIBbsbGG3s9n/bcq7745/a8cagIZC6ACoTwIO2/mlf/vLpUpas+0mY0qVCev8ACA+2FjiyE75x9W+5Uv/GA74hfEHoD4TOgDqC+/h737jHN6XHeFmjTB4AwDEQ+GJ1EuWFb689h/aMQigPhM6AOoD34/H/2AfNfg2xZjiUjDrBwCJ5VM6tX6n8LX1Bu1YBFBfCR0AsvNbLX+y9ur4tCnVUK4g/AGADkypKVXmTm12Fr70QudwIIDj5KDeEzoAZOY7fvTv1r5dn1VqFmoLgzQAQEIZDd8UrF09UDs2AdQ3QgeArLxHvvubY9SgFQqOcgOAJDKlphwreuOVNO0YBVCfCB0AMqq0W35vHdzrEaXmsa8wIAMA6IVVGzB3Sf286LWXWleHw8J4BVAfCB0AsvGbTlyodGy9UB14g9qBGAAgSdgylB0Fa1e3rK6qEsYtANkJHQAyqTx06DzHkL7jFaOhKMIADACQTIGTxpR1ea+t+b127AKQndABIJPC1au6mtoYDqkBELt9AUBGXvOIPjdqxy4A2QkdADJg62pKtr73L0vHVptMRhztBgDyMrVtmpl11y0DQqWl52nHMgBZCR0AMgh7vRecSE1ZpA6ufu1gCwAgmbDS5pLPSja80VQ7lgHISugAkEH+qqdTTakp2REGWgAAGXlcUy+/pyo359fa8QxARkIHQLIVr1p1sbl9q40RBlgAAJm5LOMHdNKOaQAyEjoAkimYl3te5twZ0xRjSkGEwRUAQGrmjq03VR47dqF2bAOQjdABkExlH235pzqIblVw1BsA1EdGQ3nmrOn9tGMbgGyEDoBkqcrPPc82auAkU2pKsTCoAsTAOWksua6aIPQD6McQMvdsv6Hkg81YCwhSEzoAksWz68u/mIyG7eogipp/UCeOccPIb7NQxcF9lDl/LlkH9CClbVPh78UsrTlZe3cm55Vj1K89XPxzAFG1+o/YjNwHF44OeTzCOAcgC6EDIFlsvboNUgdPX4QBFSA2atgreW8jsRbyesmzfy/l3Hs72Qb3Ev9uNO1bkEsNfbmPPEBlOz4mv8tBmbfMEf8eQGShk6nNnvMc3P8H7TgHIAuhAyBZLP26vhRhIAU4K67J46g6GKRTLVRWSp4DahB84B4yd0kV/n5t5o6tKWPWNCrZtIH8ZhOFfV7+NfwOW81sYoT/BiAyw08VB/e1045zALIQOgCSIffBu/+ppDVF3T84Z+ZOral8906q3arDYQp7K8h79DBl3XQ9WXp2+PnRcFoz9f9vTxnzZpFn/x4KlZZQdSj0i/++dMvmc3uUDI1RyNqn87ywz3c+RRjzAJJN6ABIhsxb5t5oSk3xRhhEAc5a1m03/Hf2TtvClZXk2buLshbcTI6xwyhn4R3k2bebwrVmDbUtUw2N2tcAOBN1TNsT9novpghjHkCyCR0Aeqv46sDF9mF9Nygo/QJxYh/en7yHD1G0xh4N+44fo5DHo/2jX7RgUSFZ+nQRXgMgBt6CtasvoQjjHkCyCR0Aeit66cW2itFwOMLgCVA3HVpS0UtrhUe5dWml27byTSHCawDEwDl++EyKMO4BJJvQAaCr0tImRYvumqoOlIXagROgzto2pey7b6VgYSGdSwsH/JQ1f6749QFiZB/a9/0qu/080o59AEkmdADoqerbby7MvORvD6gDZUg7cALUhbl7Gl8DWLZjG4W8FXQuza+c5OsEta8BELPWhh/d9y/8H4ow/gEkk9ABoCff0cN/UVINbwmDJsBZsqjBL3vBzVS+83MKuvP5zt9zbWz9X8Ha1erXbie8HkAsTEZDRu7iRX0pwvgHkExCB4Ce1ADYXDEaDmkHTYBYmLu1JfuoQVTwzHLyO+18h288gt+pVl1dTdVVVeS3min3gXvINqQPX1+ovQ6A01EDYIkaAOdQhPEPIJmEDgA9qQGwg2JMydUOmgDRsDp+mTfPoeINb1BVbk5cQ9/pGisuXXnyJ8pfvoScE0aoQbCVcF0AWqZUQ8A5Y+oTlRkZwvgHkExCB4CeXDfMZMe/BbWDJkAk5q5tKWv+PCr9+EMKFrjZFB3p3cJVVeT78TgVvrSWXBPHCNcI8EuG6pPGZq8Wf7j1NxRhDARIFqEDQE8njIZrxAETIIJ2zSnzptlUsmUzn4kLFRdRqLyMwhUVNY9+qwK87Et1deJnA1nwZDuEq/JyqXDdGrIN66deH0rFQGQmo2Fr6Yfv/40ijIEAySJ0AOhJHRgXagdLgJh0bMWDV/o1kyj7ntvJveppKn77NSrb/hE/2cN7+FseFKtysvhu4Hg9JmbrAsM+H5+BDKQ7+WuUffwhOa8YJV4jQCoPgLvUANicIoyBAMkidADoyZRqWK4dLAHOWYeWZO3XjRzjLqOMuTMo96GFfKbOs+fLsyoOHfb7+RpD3/GjVL7zMyp5921yP7+S8h6+n5eaSb92Cn8N28CePJAK1wHAGFO+Lf1wSxpFGAMBkkXoANCTGgBfFAZLgERQA5p9xEAe5k7XwoEAVRzcR+7nVlL2nbfw2UU2s2cfPoCs/bvXlINp11z82gDRHVMDYGeKMAYCJIvQAaAnU2rK6xEGS4DEYCeEqMHudOf/+s0mck0ez/+e8N8mmhosrQN6kH3kQDJ3MYp/DvWXMeUnNQB2pwhjIECyCB0AelIHx3eFwRIggWwDLyXPri/4Wr7ajW0eKftse1KKPtuH96fcR+4nz/695LdbqXD9GkqfMYXMndsIfxfqIWOKqezDLZdqxz+AZBI6APSkIACC3tKa8TWBodISqt1ClT7KX/6k+PcTiK1TzH3sQfIePUwhT/l/r4WVmmEbTEo/2EzOqybwa9b+t1CPIACChIQOAD0pCID1nrlja16Yma2Rc145hrLvvo3ylz1JhWtXU9HrL1Hxxjf5/xa+/CI/Vi3/qcco+675lDFzKjlGDa5ZW9erI5m7puoWdCx9upDvyCGq3VhJF+flI4W/G2/mDq3IOrgX5a9cSn6bhe8o1s5Gnmpsw0qwoICfa5w+fRJZuqUJXw/qAQRAkJDQAaAnBQGwXjJ3akOO0UMo65Y5VPjCc+TZu5ufv3u2jZVmYcHL+923VPLeO5S7eBEPOmwtXKLDYM6iO39xLeW7vhD+TjyZO7Yi56Sx5F61lAIu5y9eO5YW9ldS6YdbKHPeLLKqAVb79UFiCIAgIaEDQE8KAmD9ooaYrFvmUtGbr5FP89gyHq06HKJAZgYv11Lw7EpysNp6CQqCbK1fIDvzv6/NZi61fycu1Ot3XD6SCl9dT36LiResrmtjM4Ws/mDZpx9T1oKbsUawvkAABAkJHQB6UhAA6wc1+GVcdzWVf/kFBQsL+Lm4iW6sBp/f5aDizRtrzt5NQPkV9+oVNaGqqJBsA3oKf35O1OBnHz2EF6f2O+1q8KvSvsU6N7ZhpaqwkDy7dlLm3JnYNSw7BECQkNABoCcFAVBubZuS4/IRVLZ9Gz/6LFktVOGhotdeIvuwvnGdEWQlVyrNJirZsomUOM2mWbqnkWvKBCp+6zV+RF2iG1snyGZjM+fPUUNs4h+dQx0gAIKEhA4APSkIgPJq34Iy584g34/HSYYWDgap4qv9vDxKvGYD2SNU9+plvDag0vYcg1OHlpQxaxoVb3iDAlmZcTt6LtYWqqjg5W1yH1xI1r7dxOuD5EEABAkJHQB6UhAA5dS2KWVcfw1VWsy6B5lojc12VSomck29QrzmOrIN6U2W3uewqSKtGTknjqbid9+iQIaLr2NMWquuplBpKVV8fYCvaTR3x65hKSAAgoSEDgA9KQiAUnKMGaoGrZOnLU+SzMauye+wk+XSjsJ164mVZGFlY0o/3krBslIeTmX5vNh1sDWUlSd+pJwH7+WldtiMrvY9gE4QAEFCQgeAnhQEQCkVvPAsydxYwHGvXi5ctx7YhouM66dT8duv12yIkST0na6xGVzvoa958WuUj0kSBECQkNABoCcFAVBKlSd/IpkbC13eY0f0DTTtmpNr6uVUvOltqsrKkOrReLTGPquq3BwqeG4lWft2Fd/XuWrbNDFftyFBAAQJCR0AelIQAKXEZrZkb36Xk1yTxgrXnijW3p2oYN2amlk/ycMfC32sVA+71uJ33iL7qMGJKRWT1pxvFHI/87T4Z/AzBECQkNABoCcFAVBKlTYzSd3YOkCLmRwjBwnXnmjspBJWiJnNqrF1f7I1FvzY5p2iV9eTY+wwPkOnfQ/xwI4AzLrtRn6SCyt5o/1zqAUBECQkdADoSUEAjIo94mS7VBN1Ez+dojdeJpkbm+Eq++QjXnpFe+16YKeIZN44i0o2b6RQeZn28pLSWBgNOB1U9PIL5JwyIaH1AM3q5559963kV1+PBU4EwDNAAAQJCR0AelIQAKNyThxDha+/TNZBcT6l4gycU8ZTVV4eydpY2Em/ZpJw3Xqz9OxAmXOuofKdn1G40qe9TN1asLycb9xhu5IT8qi3NvUfI/lPPUpV+Xk1j5rV7wUC4BkgAIKEhA4APSkIgFG5Jo+nSpuFyj7fzsOG9s8Tpn0LyrnvLqpy50u3yzVc4aGCZ1eI15xMac3U79VY/mg4yD4zHR4N8zIvZhMVvPic+g+ESxM+S8xm/ZxXjuU/i7WPtUMAjAECIEhI6ADQk4IAGBULgH67lRcXLnrzVbJf1k/4O4nCTsnIXbyQqrKzSIpWXXNmb+ELz5LlUh3D8Flg6+Iyb5pNpVs2UzA/MTOo1YEA36VduPZZcowenPDgx1h7d+azfn6rRdgAgwAYAwRAkJDQAaAnBQEwqlMBkDV2rqxn7y6+CUGPmz7HjjebO4O8hw/pMqsVrQXSnZRz7wJ9Z0LriBWpzrjuaj4jyM4xjlcLuBzkXr6EP+rVZf1ju+aUfu0UKvtsO4W9FdrL4Q0BMAYIgCAhoQNATwoCYFS1AyBr7GYbLC4m9zPLyNave9zOxI2K1Xnr351yH3mAnw4S9nqFWaBEtbC/kgKZGVT0yjqyDe2jz/uNI3O3trx2YOm2DyhYVHTWIZqf6OHzkd9mofyVS2tO9NAj+LVvSfYRA3gJmTOVvUEAjAECIEhI6ADQk4IAGJU2AJ5q7KbrO36MchbdSda++hVDZjNbeWoQLP9suxpKrBQO+LWXds6tOhTkpUW8335N7lVLyc5Kveg145lA6bOmUsmWTRTISI8pCLLg5/3+KH/0ytf4RfiacZfWjOzD+1PeEw+rwTtde0kRGwJgDBAAQUJCB4CeFATAqE4XAE+1UFkplW3fxh/T6TIz9B/sMSyb2cp95H4qee8d8h07ol5L3cuhhKuqeDAq/2IHuVc+RZnzZpJtcC/hdes7NiOYMXMqFW1447TFtsPBKvIePUx5Tz7Cz2TWfo1EMXc2Uu7iReT95qAaPr3ayzptQwCMAQIgSEjoANCTggAY1ZkCIGvs8VwgO4uKN75J9hEDE1r/TdC2KVl6tOdhjRUdTp8xhbLvmq+Gl0ep8OUXqVgNOiXvvUul27by9XClH75Pxe++TcVvvMKPJstTA0fmTdeRc9JYfu38aDcdg2xM2OfZvgXfBau0ayH+eR2wOoKuqVdQyfubKFRawr+HrJ6e32Gj3IfvJ9ugXvp9DurrsO9b+Z6dFCwt5ZttzqYhAMYAARAkJHQA6ElBAIwqlgBYu4U8HnI/u4Ico4fUBJYIXxOiUMMeD7TD+pLzyjGUeeNsPiPJNkGwkiv8yLOOrcX/7hzYRw6kotde4sGPvbb2zxPF3DWVz+KWffYJX2tZ18aCa9HrLwtfH2pBAAQJCR0AelIQAKM62wDIGnuE6PvpB3IvW0K2IX2Erwm1tGtOtoE9eRDKufs2cq9eTiXvv0sV33zFj3pjj6ZPtUC6i8+UCV+jvlHfs3PSGCp86YW4lPhhAbBw/RrxdeBnCIAgIaEDQE8KAmBUdQmApxrbrcvKt+QsvIMs3doKX7tRYpscRg6irPk38EfQ5V9+Tr7vj1DAYadQSfFpN2ewwsfFG9/is2bC16xH2AwjmyFmu4rDgYD2bdap8QC4DgEwKgRAkJDQAaAnBQEwqnMJgKzxMiJ+P98xnH3HzWTp1alB7KiNxtypNX+ffF3i6CGUOX8eFaxdTZ7dO6kqN5cHY/aZsOAS6ykn7Mxb5xWjhNeqF1gZn0G9eFFvHvxqzWrGoyEAxgABECQkdADoSUEAjOpcA2DtFlZv1GWffkJZt86rCYIRXq/eadecn1LhnDCCMuZey4+vY2GPr9kznaCwxxNzyIvW2NcUXrsesPbrRtl33kLe776Ne/A71RAAY4AACBISOgD0pCAARhXPAMga223Kzvct2/ExZcyapu+O4Xjo0IrvFmZlYtzLn6TiTRvIs2cnVf70A68dyB9rxiHw1W6BrAyy6VWHL146tKTM+XN5EGaPthPZEABjgAAIEhI6APSkIABGFe8AeKrxIJifT6Vb3+cbAthjU+1rJ03bpjWPcbu34xs0Mq6fTvnLlvB6h5UWhW/OCBYXUbjSF/WEing0tvYvb8kj9eaxOfvc2O7lmuBXcto1jfFs7DOqrzOkukEABAkJHQB6UhAAo0pUAKzdQuVlVPLu2+prjZNik4OlRzvKe/g+8h0/GreNCnVp7NGx58De+rGTumNrSr9mMpVs2nBOBbnr0qrV75F7xVPiNcHPEABBQkIHgJ4UBMCo9AiArPFi0k4HFb26nlxXTRCuQ1dpzfjmDfeqpyngcmgvVbfGZhlz779L7sfkac3JMWEEFbzwHPkzXHF//B1LYxtq2IkwwrXBzxAAQUJCB4CeFATAqPQKgKcam81h9e4Knn+GrAN6CNejJ3PHVuS8ciwVv/MWn6XUs9XM/u0hq8SbZSzd06iAlXSxKPxM5nhsdqlLY2cWZ94yR7g+qAUBECQkdADoSUEAjErvAHiqsTBRlZ9HBWueIfvoIfodS3Ya7BpKtmymoHpNeqxrC5WXk2v6lcJ1JB0rXD2kD+U++gBVZWXy71Oygt+pxjYVsd3GwrXCzxAAQUJCB4CeFATAqJIVAGu3ypMnKP+px8g+anByH4e2b0GZN8yikq3vUbCwQHuZcW3s7GLZNn5Y+3alnIcWkvfQN/yxqwyNXUfhS2uFawUNBECQkNABoCcFATAqGQIgW1cW9nnJe+wo5T/9BFm6JvdUEVbDkNX8qziwNyGbRNgu46Svg6zF3KkNZc2fQ+U7P9f9UXi0FlJ/Joreep0sajDVXjNoIACChIQOAD0pCIBRWQf3ovIvdujy2PNMjT1qDFX6qPLEj5Sz6E6y9u+e1BlBS88OlHXzHKr49msKecrjsgGCrYEseH4VD13a19ObWQ3aLIh69u9R358n4SVvYm18eUBeDuUvfYyvQ9ReN0SAAAgSEjoA9KQgAJ6RY/xw8ny1n2RqrPiv98ghyr7nNrIO7JnUx6XmLkbKefBe8h46tyDIgo336GFyjBkqvIaezJ3bUPrMq3hpHrYWUabGHvmyzyhj7gzhuiEKBECQkNABoCcFATAm7Kgzn3rjla2xgFK+8zPKUYOguVsSHw2rAdQ2rC/lLl5E3sOHtJcZUwtVVFDe44uTN6upvgfHuOFU9PrLFMhwSTPjxxoLx8ECNxWuX8NL9CipyQv89RICIEhI6ADQk4IAGDPH+Mv442C27i3ZOz9rNxZU2HFjFQf3Ufo1k5K7Y5jtkh3Ui/KeepQCTjufqYz1s/IeO0KWnu3Fr5loavCz9utO7udWkt9m4SdryNL4LuNgFVUc/pZc0yZKUSi8XkIABAkJHQB6UhAAzwo7Hi1/2RMUyEiXaoboVAtXVlL5ri8oY95MvkZPe/16YptF8p58lCpNJ/h1RWthb0XN2cgRvk7CqGHVPqwfL6LMzjGWrYX9lfxxb859d/HH0sL1Q+wQAEFCQgeAnhQEwLPXtik/H7d02wf8tIpYZ7j0bMGSYr6GLWP2dDU8GMX3oCPH2GFU8NxKHgQjbqZRP7/SD7foep2WPl0o99H7yfvt19KUdDnV2M8Tmz0teH4l2UcMEK4d6gABECQkdADoSUEArDNrn86Uft00Kt36XkLKoZxrY2ErkJVJJe+/y48r016/nswdW5NjXE0QDLrdv7jOgMtJ6TOmCP9NQnRoyWdH+c5enc/sjaWxdZDs5BXX1Mv5SSzC9UPdIACChIQOAD0pCIDnTr1Ru64aT2Xbt/FTGWSbEawOhyiohp3it18j58TRfNeu8B70wk/S6M2PuvNbLRQsLqaCVU8nfN0iK+mSfu1k8uz+kkJer1TfI76Gs7REDaV7yXnFKFLaJ/azaJQQAEFCQgeAnhQEwLgxd2pNmXNn8I0iwaKiOpdDSVhj9eOys6jo5RdrgkaCQ9eZ2If3p9yH7iVbAs88ZjOPrmlXUNFrL1GorFT7iSS9scfPnr27KPve25O7i7uhQwAECQkdAHpSEADjztq3C2XfcQt5dn0h56PhcJh8J36kgrWr1RA2QLj+hsI2uDcVvbqOn+TCdiNL1dTvgd9mpbwlj/CzhZNZx7FRQAAECQkdAHpSEAATI60ZWS7tSFm33UC+H76nsM8n12NH9VrY7BPbzZy/bAlZ+3UlpV0L8X3UN+rnbu3XjdcTZI+Y2ckiMjW2LpPtOObhe8RAfr6y8B4g/hAAQUJCB4CeFATAhLP0aMdLeVR8dYCf6StbYzOCfDbqyUfJPmqwcP31hbVvV8q++1by/XhcuhI9/92Q89478f+MWehlxwJq++FnCIAgIaEDQE8KAqBubINrCiT7jh2hcJVcM1OsscfV7BSP3IfvI2sC1+XFG197OW8mlW37gJ/ZK1tjoZ/txM6Ycy2Zu8S/kHPGddMoY/bVQj/UggAIEhI6APSkIADqq30Lsl/Wn/KXPEzBfPmKD7NHw6HyMvJ+9y1lL1zAd+0K70EiLKiWbtnEH6tGrDGYxMaux/f9Ub4MgC0H0F57PDjGXUbeI99R5s3XC38GtSAAgoSEDgA9KQiAUbGdmYm6ebOTMtzPLKNK00kpixEzpwIMe7wqzUaFtGZ8/Zx79QoKFhVKtbaSNbbe03f8GGXfOZ+URJ3goQZzduwfW1/KytogAJ4BAiBISOgA0JOCABiV86rLyb3q6YSFQBaqHGOGUsGa1TXn0Eo2i8VaqLycyj/fQVnz5/J6esJ70JGlV0fKWbiAP0aXbWcvO0O48uRPajBdzh/3a689btKaq6H8Rv5arLQPC5wIgGeAAAgSEjoA9KQgAEaVPuMqHszYCRbaP4urDi3JOWU8Fa5fI2UxadbYY9bSLZt5XT3dHw2rr+e6+koq/eRDCpUUay8t6Y2F5MK1q8l5+QheGFy4/jhh5zuzXduB7Kz/vjYCYAwQAEFCQgeAnhQEwKhYAGTBh91k3c8/w2egEvkolB3/ZbusPxVv2lATBINV8hSUZo+FQyF+ekfph++TfdQgMndK0CPOU9q35PX8ije8zl9XphlSttM4WOCmkg/e44W1E3l0G9vowh75eg7spXBl5S/+gYAAGAMEQJCQ0AGgJwUBMKpTAZA1duMt2/ExuaZP4o/htH83rtiM15QJVLzxTV6rT7bGAgj7XApffJ7PXCaihqD9sn6U98TimkfjMpV1Ud97sLCAyj79hDJmTk1sLT/158AxegifgWazjJEaAmAMEABBQkIHgJ4UBMCoagdA1njNPKuFFxpm9f20fz/e2Lm96bOnU+kHmylUXPTf65ClsRnKSovCAwrb3ay9/rowd0vj9fwqvvmKb3CQqYX9leT58nO+wYPPBke4/ngxd0+j3Ece4KV5op0ogwAYAwRAkJDQAaAnBQEwKm0APNXYbAw76i19+pWkdEjco79TLD3bU8aMKVT2+Q4eBqSaEaOa2VG2KSH/qUfVYNSZ79TVvoeo2jblNfIyb5pNnv17pQq7fEe0GnT9atDNWnAzP+rvrN/f2WjfglzTJvLHvawkz5nWgyIAxgABECQkdADoSUEAjOp0AfBUC1f6qGTzRnJMGM7XaWn/+0TIuP4aKv/iUwq63dIFQdYCWVmUv/Qxck4czUvdaK+/NvbnTvWzy7n/Hl5yRpr1jv9pLNh6j9QUx7Z0T+yML1/nN30SlW59n0IVFdpLOW1DAIwBAiBISOgA0JOCABjVmQIgayyEVZoVXtPPPnKQ8DUSge0Gzbr1Birf+RmFzyIs6NXCwSD5XU4q3fYB5T/9BH9kyk7rYOE144ZZlH3PbZS/7An+52yNX7iqSvslktpYiZlK0wkqYN/TYX2Fzz+u0pqp/4AYwc8HZsfFnW1DAIwBAiBISOgA0JOCABhVLAHwVGNHflWe+IlyFt3J1+5pv1YiWAf2oOy7buXrxGSri3eqsUfWrGBzVU4OVWVnUVVuDgVLiqU8Do+1YHERFTz/DA9l5gQ/3meFxt0rl/KwyYuB12EGFAEwBgiAICGhA0BPCgJgVGcTAHljhXnVG7nv+FHKWnATWft0Eb5m3PH1c0bKuv2mmpMhPOVnXDeG9svGwjOrrVe88Q2yDeuT2DqH6vfL2q8bL2jNNhSx1z6X7xcCYAwQAEFCQgeAnhQEwKjOOgDWamzHaNln2ynzxtlkubSD8LUTwdK3K+U9+gBVfLU/6s5RtJ8bq7dY/M5b5Lp6YmJLuqjYzvGsO24mz/49fH1hPBoCYAwQAEFCQgeAnhQEwKjOJQCyxtYHVuXlUelHH1DGdVcLXz8h2jblJVnynnyU/MpJKTeKyNDY2klW15GFJ3PXVPFzjCc1WKZfO5lKP3iPPw6PZ0MAjAECIEhI6ADQk4IAGNW5BsBTjZ+god74ize9XbO2rKMOO4bV0GEb2ofylj5GgcwMqmZr7s7hUWNDaOxRKwtMbM1kxpxrydKjfUJPdmElgtjJLiVbNlEV27Udiv86TQTAGCAAgoSEDgA9KQiAUcUrANZu7BSJojdeJueksQk9N7Y2W/8eVPDCs+Q3naDqRvpomM34VXx9gHLvu4vMnRN9hF0LclwxigrWPMMfMSeyIQDGAAEQJCR0AOhJQQCMKhEB8FRjhYUL1qwm5/jhiS0sfIoaStiZtezUDjYj2Fgam32tPHmC8h5/iOxD+4ifS5zZBvei/BVP8des1qG8DQJgDBAAQUJCB4CeFATAqBIZAPmO4cpKXgfP/cxyMie40PAprOCwa/I4Kt7wOgXLyrRX1XAaO7O3wE0Fz68kx9ihid3ZqzJ3NvISQN4j3/GSQHo1BMAYIACChIQOAD0pCIBRJTQA1mpsbRqrkZe/7HGyjxpESlpiw8optqF9qWTTBv7astYRPNvGZt1YQeWiN18la9+uwnuOK1bSpU9XHsD8ygntpejSEABjgAAIEhI6APSkIABGpVcAPNXCoSCv5Zf7yP1kH8pOoEjgBoVT2regjFlTeSkUPd9rIhov6bLxTUq/ZnLCS7qwncNZt91AZds/plCFJ2kbbMJeL6XPnCpcH9SCAAgSEjoA9KQgAEaldwA81VigqPjmK8pdfB+ZuyS4RMl/sB2xLEiUf/oJhXw+7SVJ3VjNQ8/e3f/Z2ZvgR+lpzfgjdFbSpSo/75yKOMejeQ99U7ObWXud8DMEQJCQ0AGgJwUBMKpkBUDWeMmSSh9V/nicn/tr6d1Zl80i5q5t+fsu+/JzCpaWSF1HkH0+vmNHKOv2G8ncM7EhyNyxFTnGDuMzpWxtIdtckszGz6C2WvhuY+21ggYCIEhI6ADQk4IAGBUr3luVk03Jbux4Oc+BvfzcXysLghGuNe7aNeenVpTv3kkhFgSTPNNVu4UDfqo88SO5Vz1N5kTP+LGSLuOHk/uZp/mMnwyNhz+LQhnXT09sHcOGAgEQJCR0AOhJQQCMyja4N5Xv/Czpsz2nWqislMo+/pCybp6j26Nh64AelH3vAqr49is1eSV/NpAVVGb19ZyXj0j4Oj+2wYMFP9+Px3nolKX5rWbKnDcz4e+/wUAABAkJHQB6UhAAo2vblBzjhpHv+DFpZsD4qSKFheT58jNyTRmvhoCW4nXHW1ozsg66lNfS8ztsuu8YrnkcXknlu74g11WX85IrwjXGi/o9Z+sI2Wyr7/ujupZ0idbYZ8B2OHsO7OMzkokua9OgIACChIQOAD0pCIAxsY8cyGddZFsPx0JR6db3KH3WNLLoVEfQ0qcz5T/9BPltVl1mxdjj74pD31D27TeR0imxR+hZ+3ShrFvnkffoYWlmfVljR8jx3eEPLUz8ucUNEQIgSEjoANCTggAYM9e0iXw9HNt4IFVjBY/zcqmElT9Rr5FtVtBeeyI4rxxDhevXkN/pSEgwZgHMb7fyI+zYmcba148ncxcjZd40m0o/2kIhj0d7KUltbN1h0duvk2PcZcJ1Q4wQAEFCQgeAnhQEwNi1bVpzzNfKpWpIKCfZGg9MDjsVvfUa2UcPFq8/Adg6ROeVo6lk8wZekDheLeTzUtEr68h15diEn9trHzOESrd9SFW5OXLN+rHHvXt2UcbcGWTpniZcN5wFBECQkNABoCcFAfDspTXj5UBKt22lYGFBQma/6tr4OjE1xLCAWvjSWn6diQ5QXIeW5Jw0lsp2fExVrERKHdZLssfJAZeTF3Lms10JXOPGZkmdl4/kp4UEi4qk+R7ytY7eCvL9cJyybruRf67aa4c6QAAECQkdAHpSEADrjD02zJo/l+8SDqk3bdkaCzUsUBW8sJqcE0frU0OQfSa3zKGyTz7im0VYgeaoJ2Sof8Y+O7a+rfDF58g5YWRir1MNlY4xQ3n5mEBGuvZqktvU75fvh2OUv2wJ2Qb2FK8d6g4BECQkdADoSUEAPGdW9Wad++C9vCBxWOfdsbG06mAV+VjNvNXLyD4ssWvpTrH07MB36+YsvIOKXn+Zyr/8Qv18DpPvpx942PMe+U7t+5wK1z1PWXfc8p9drYktaWLt3Ynylj7GN3jwYCpRY8XGi156QZfPoVFCAAQJCR0AelIQAOOjXXOy9u9OOYsXUSAzkweMujwGTVQ7VUbFb7eRe9VSsvTqpE/QaNuUl2xhgZDtsLX27Vqjd2feZ2a7ehNZyJiXdGnPz+ytPHmCl3SR5fvCZmiDJcVU8t47fIZWl0f1jRUCIEhI6ADQk4IAGHe2AT2o4LmVfLaLLeSXrbEA5DebeE0/+8hBiQ1gSWTp1ZGyFtxEFV/t16VcTayNff5s7WjZ59spY9ZU4brrBAWho0MABAkJHQB6UhAAE0O9ITsnjOAnVgTSXVKcoKFtbEbQe/gQ5T5yP5+VE95DPWXu1IYyrr+GSj7YzE9OkamxDTqe3Tsp+46bycpmYSNc/9liZzdnzLlW6IdaEABBQkIHgJ4UBMCEYmGElTIpevMVCpWXSfP4sXZj11Xx9QFeAFnRqYZgotgv608lm9/h5zfLUtKF78xW/wHANsXkPnJfzQaPOM665j32EC+Zo+2HWhAAQUJCB4CeFATA6FgpkjitlbMO6U0l779LVdmZuh+lFmtjGyQy5s3k6/XiGVISqn1LXsuvYO1qNczKVZ+RPXpm6y7zljzM1zwK134u1LCeqYb2Knc+Fb/1mvjn8DMEQJCQ0AGgJwUBMCpW+Nl5xai41aRj9efSZ1xFxRve4Cc8SNdYWZayUir7+EPKmj9P+o0J1gHdKX/pY3yXs0yhmpfgcdqp8OUXa35+Ilz7OenUmnIWLuCFv9n7RgA8AwRAkJDQAaAnBQEwKlYsuHjzO+SYMEL4s3PBTnbImD1dDVpbKVQh19FjrLHHliyglnywiVyTxyW2Nl8dsN3DLKB69u7mO3tlauwUk+J33ibXlPH8pBTttZ8rFsoLnl/FS8ewwM4edSMAngECIEhI6ADQk4IAGBWbvWGzS76TJ8g+vH/cH4uyEimuaVdQ+Rc7KFRaIs26tVONXU+w0M0DjX30EN3OGT4dFvwc6vek/ItPKezxSHWCB9/Z++kn5Jp6RUJmTtnXTL96IlXs38M38Pz3tREAzwwBECQkdADoSUEAjIoFwErTCX6D935/lNJnTEnM8VztmlPm/Dn8KDV+vJyEm0UCOdnkXrmUHy8Xr3WRMWPH77ETPJ5bSUG3W3tpyWvskXlJCZ+JzLxhVsI20dgv60cF655T37u4bAABMAYIgCAhoQNATwoCYFSnAiBr7EZbaVEo58F7ExMCU9lpFZ0p85breamQ2rM8srSw30++40f5cWWWnu2F608ENuuXu3gR+dQAzl5flsZ+Htju6ZxFd/Ii4NrrjgdW4iX7jluo4sDe084OIwDGAAEQJCR0AOhJQQCMqnYAZI3NzIVKS6n43bfJOqhXwtbGsbp87PQKVqcvXOmTbkYwXFFB3u++5evwLGpI0V5/XLBaipPHUfln2ykoST0/XtIlWEUBl4NyH32gJvjFaYPQL6jvna07Ze89VFIc9VE3AmAMEABBQkIHgJ4UBMCotAHwVGNBIOCsCQE2FgQj/LdxoQaBrDvnU8W3X/PdubIFQbYDlc2CZbLSMb3jVNi4Yys1/Ayn4o1v8RqFsjQW/CpP/kTuFU+RJVGFszu05OcBF65fE/PmIATAGCAAgoSEDgA9KQiAUZ0uAJ5q7DGtZ9cXlHnz9Xxnr/a/jxfrgB6U89C95Nm/R6pyJ6ca28BS+sFmyrzxOjJ3MQrXHxO2zm/sMHKvXk6VykntSySt8ZIuGS4qfOXFuO8Gr43NJrpXPEmVZ1nSBgEwBgiAICGhA0BPCgJgVGcKgKyxgMBKppR+vJVcV00QvkbcqAHJNqQ3P7rNbzVHfSyYjMaCSFVuDpV9tp3SZ15FSofYN0SwHdYF69aQ36zwR96ytHAgQMUb3yTX1AkJKenCsN292afOLK5DSRsEwBggAIKEhA4APSkIgFHFEgBPNRbI2CaF4nfeIufEUXWfCTuTtk35qRK5D93LZ8p4aJDo0TB7TM0+B3YCBgsmbC0jK93CdvH+1+UjKOP66byeXcXhQxRiJV1Os8lB78a+jzUlXT7maxATssZPZenRTg3KU8n77VdUrQbNuj7eRwCMAQIgSEjoANCTggAY1dkEwFONPzLMyqDC9WvJeeWYhG0UYdhJJe5VS2t2yFZVaS9Fmsauja1hZCVT2CYaNrMmY2NHyZV9voMyb5mTuBm/jq35DGnxO2/yz+RcGwJgDBAAQUJCB4CeFATAqOoSAE81to6LredyP7OMbEP7CF87btiO0bHDeGmWQGaG9jLQYmgsoHoPfUM5i+5IWEkXxj5yIBW9+SoFXE41uMW+zi9aQwCMAQIgSEjoANCTggAY1bkEQNb449DKSvI7bJS/fAlZenVK2CNFtoPUPmoQFb7wHA+CZ7ORoDG2/z6qdjn4ubqsBqOSloDvjfr9Zms3C55dQX6ng6rjPFOLABgDBECQkNABoCcFATCqcw2AtRsLHKyMCNvEYR8+IO7HytXGTo4oeutVNXjaefkStF82FsJ8x4/xk02s/RJU0iWtGdmH9eNFrP1Ou/YS4tYQAGOAAAgSEjoA9KQgAEblvHwEf4wbzxb2+cj77df8RBE+6xThdeOiQytyXX0lFb26nqrycrWX0TgbW5+Z7qSCtavJMe6yxMz4qdgpKbkPLaSKg/sTfqILAmAMEABBQkIHgJ4UBMCo2No6NlOUiMY2AHjUgJA5f27CzpBlzN3akmvKeCr75CMKe7113m1anxs/waXCQ8Ub3iDn5LG89Ir2c4qLds0pY+Y0Nfjt45td9PisEQBjgAAIEhI6APSkIABGlcgAWLt5jxyizHmzyNqnS+IeDatf1zFxNJVsfY+C7nzp6ggmorFwxN5r2faPePkZ4TOJE1YEPGP21VS+Z6fu5xUjAMYAARAkJHQA6ElBAIxKrwDI6vixY8/YLF3W7TeSuXOCaggy7Hi5+fOodNtWChYV6jJLlYzGZjv558lKunRNTEkXNnObPv1KKnrjZQqWFGsvQZeGABgDBECQkNABoCcFATAqx9ihvMaeXo2FsSp3PpV+uIVcV09M3I5hFVt/mDFvJpXv3dWgdgyzQOQ7fpRy7r2drP26Ce87XmxD+qjB7xUKOJO70YZtaCl48Tnh+qAWBECQkNABoCcFATAq+4gBVHHoG9K7sRATKi6mso8/JOfE0QkrSqykNiVz9zTKvGk2P4qMrVuT6VSRs2m8pItF4SekWPqwki4JKMDdvgXZhvWj/BVPUVV2lhTBme0wtg3qJV4r/AwBECQkdADoSUEAjIqdtOHZt5uS2dijxcJX15Nr+pVk7tRauMZ4MXdtS9l330YVXx/kJ2LUl8ZCmN9upcL1a9Tv16XC+4qLtk15Lb+8xx/ix+/Jsn6SzRZn3TpPvF74JQRAkJDQAaAnBQEwKjY7VvrRFkp2YyEn4LBT8RuvkGP0EOE644kFHVbCxHv4kDRB53SNnYPMTtZwTbsiYeHY3KMd5Sy6U/2HwC4K+xNb0uVsWrCggPKWPJKw992gIACChIQOAD0pCIDRtW1K+Usf4yVEZGhsvReb7SpY8wwPaglbI9iuBVkH9ODvPZDh4mvcZNkscup0lYqvD1DG3GvJ0i1NvP44MLMNHtdMVl/nK16yR5YwzNeJ5mRTzr0LErtZqCFBAAQJCR0AelIQAM/IcmlHKnl/kxTrvWo3Vtw5f9kT/Pg3dgyc9rrjhZ2Nm7/qaX6KSbyPMTvbFg74yffDMcq++9aE1fJjdRPTZ0+vqZuY4CLOZ9vC6j9EKg7sI+eEEcJ1QxQIgCAhoQNATwoCYExYfb6S99+lkNdLMjU2M8d2Kec//QQ//k173fHkvHwkFb70At90wDap6NnY7Bs737hw/VpyjB4sXFtctG9Brslj+RF6sp2cwmb92OfuXvEk2QYmaJ1jQ4YACBISOgD0pCAAxoyFQPfq5Xx3rmwtXFFBvh++p5z77yZz93bCtceLuYuRnJPUkPT6yxQOBLSXkbBW/sWnlD59UsLq+VkHdKfCdc+R32aWbqaXhe3y3TvJeeUYrPerKwRAkJDQAaAnBQHw7KQ1I9fkcVRx6GseumQqmcJmidgjWrZLNZedM6yGmoSUQmHaNSfnFaOp/NPtFCopjvv6QL7Oz+sl79HDlLXg5sQ84mYlXQb3prwnFlNVYQEPWvF+H+fS+JnRhw8lvjB4Y4AACBISOgD0pCAA1omldxdyL1tSsy5Oshkj3sJhXr4mZ+EdZBvYU7j+eLF0b8dLx3gO7uOBLR6NBbFK0wnKX/4kL8Ojfc14YBtc8h65nwfMcJLXNWobe/9+q4XczyxP6PeuUUEABAkJHQB6UhAA68zcoSU5rxhFha+8yI9xk62x2axQSQl59u+h7Lvmk7lj4h4f2ob1pdzFi8j73bd1fjTM1/llZVLBC8/yx8yJ2OHMHmGzunmePV9SyCPHzu7aje02Ln77dV7Whs1Qaq8f6ggBECQkdADoSUEAPGdsN6rrqsup7LNPeNFmmR4jssauJ6gGi4r9eylz3kyy9GgvvIe4UAObpVcn/hoV+/bwc4bZ6RzRPg82e8qKTvsdNspftoRsQ/skZJ0be4TK1hB6du+UqqQLa+xaWJkhz4G95Jo8PoGnvjRiCIAgIaEDQE8KAmD8tG9BGbOvIc/eXRQsLpJqfeCpxgJZ+e4vKf36a3hYE95DvKQ1J8e4YeRe8RSVf/k5+Y4dIb9Z4efm+m1WqvzpB6o4uI+KX39ZDYyz+KNk4WvEAQtTrmsmUfHGt6Qr6cJa2FvBf16yFtyUsLI2kIIACFISOgD0pCAAxh3bLZx97wI+21TXx6GJbHxGsMBNpVvfp8wbZpG5fQI2WNTCgo19eH/+WJfNwrmmXq6Gw8vI0ruz8Hfjib1G0ZuvUCDdpXvZmjM1NvPJQjDbgGLFOr/EQwAECQkdAHpSEAATI60ZL6Ccs/BO8tss/DFftEehyWgsFAXz86h0y2ZyjB3GTz0R3kc9ZGHlelY8RZVmU9ILV/+isV3aPHwXkPuZZeQYNRjr/PSCAAgSEjoA9KQgACacpXsa3yDhO3ZUqrNkaze2Dq/kvXfIOWV8/XwUqQZu24Ae/HP2Z6Rr317SGwuibCaSzUha+3UTrx8SCwEQJCR0AOhJQQDUDdvg4H5+lRRHqp2u8V24a58l55VjSUnwo+F4YZtasu+8hcp3fUHhKvkeubPH7UVvvUbpV0/kO8e11w86QAAECQkdAHpSEAD11bEVOS8fQe5nV/BdsjI2tm7Rb1GocP0asvbtKr4HibDTMco+38FDVnW1PDt7WQv5fFT++aeUMW8mmbulCdcOOkIABAkJHQB6UhAAk6N9S7Jd1p8fqcbOuJVuRvA/p4oEMlyU/+SjfPYyEXX56kT97NiaRVYvj62nk6qkC6u96Cmnim8OUsbs6TUlXRrI2sp6DQEQJCR0AOhJQQBMLjUcsGLSRW++qgbBdKnCzKnGNov4fvqBr6/jJ3MkK9Cor2sb0ofyljxMAZdTe5lJb+wklIqv9lPuQ4sSdmYx1BECIEhI6ADQk4IAKIeOrSnjuqupeOMbFCwslG7HMGss4LATNLIXLtD9kSbbmJJ953zy7N1N4Uqf9tKS29Tvld9iptyH7yP7Zf2SF5Dh9BAAQUJCB4CeFARAqVjUYMXq5ZV9toMXCeYzghKFQX5qRWkpeb85SOnTJpK5YyvhPcRV+xZkHzOEyj7fTiF2yopEM6RsZjSQncXXc9pHDpTnETmIEABBQkIHgJ4UBEA5tWtB6ddMprKPP6SqvFySsbFNDmU7PqIMdqpIvGcE05qTc+IoKnz5RQpJdqoKK+JcU9LlVbIN7i1eO8gHARAkJHQA6ElBAJSauWtbypw/l8o/287PsJWxVeXn8Q0Z7DzkeJQ5sQ26lPKeeJgqTSekO8GD7TYu3vAGpc+4ipQ4vFfQCQIgSEjoANCTggAov7ZNefHgLDUIer46QDI2Nivmt9uo6JV1ZB/WV3wPMWA7Ztk6Ou9331DI49G+RFJbdSDA1x+y4MfqDmqvHSSHAAgSEjoA9KQgANYv7VtQ1u03UMXXBylUWiLVZhF2LXyNYEUFlWzZTJk3zSb7yEH8bGRzF+Mv18ip74NtJLEN6kWuKeP50WhVWRlUHQrK857YsW3qZ+zZs4tv0GEbdYTvB9QPCIAgIaEDQE8KAmC9ZOndmXLuu5M8B/dT2CfZrtj/tDA//szJH18Xvbae3MufpLzHH6K8JxaTe/Vy/tjYe/gQ31QiW2Mhlpd0eXAhSro0BAiAICGhA0BPCgJgvWa7rB/lPXwf+Y5/zx/Dop17Y2sPcx9aSDb2KDutmfCZQz2EAAgSEjoA9KQgANZ/7ZrzI9tyFy+kgNNB4cpKeR6j1pPGj79z2il/1dNkG9ADJV0aGgRAkJDQAaAndXB8Wxgsod6y9u9G+cuWkPfoYf4IFi1645tXHHYqWLuabJfVbfMK1APGlBOlH27pSRHGQIBkEToA9GRKTXlZGCyhfktrRo7Rg8m9egX5rWbpSqnI0NgMaVV+Lj+LOf2aSTi9o+H7QQ2A3SjCGAiQLEIHgJ5MxpRnIwyW0ACwUzocY4dRwZpVFCoq4jt0G/ujYfb+2cxo2aefkGvyeLJ0ayt8btAgHVYDYEeKMAYCJIvQAaAnxWh4OMJgCQ2MtX93KnxlHfkdNqquClBjbMGiQir74lNKv3Yy1vg1PgfUANiGIoyBAMkidADoSUk13BBhsISGqH0Lfs5w4fo1VJWVKdXxaolsYZ+XKr46QNl33Yoizo2VMWWHGgD/RRHGQIBkEToA9GRu1Wy8MFhCg2bu1JqfM1y88U1eTLqhNva41282Ue7i+2pKukT4LKDReLfswy1/pghjIECyCB0AevLs3d1NHRzLIwyY0MDxNYLjhlHJ1vcoWFjQIOoI8jV+fj/5XQ5yP/M0WS7tSEoaHvc2ciGlZ6dny7788nyKMAYCJIvQAaAn39HDbdQB8qcIgyY0Fu1bUPqsaVTy/rtUlZNN9bmxWn6FL60lx+gh2NkL/2Hw5D286E6KMP4BJJPQAaAnNQD+UzGmbBcHTWhs2Pq4jLnXUtmOjylUXk71qQXLSql06/uUfu0UMuPMXvgFgzvv4fuuoAjjH0AyCR0AevIe+e53SivDSnWgrBYHTmiM2GPTzDnXkmf/Hgr5vNKWjuGPewN+qvjmIGXMm4ENHhCRKdVgy31kkZEijH8AySR0AOjqxIkmhb27zzalpni0Ayc0cm2bUvaCm8lzYB/fLCJNEGTBz+fjp53kPrQIJV0gKlP31H357756AWnHPoAkEzoA9Fb4yroBagC0agdOAIbVEMy5/y6qOLifwhJsFAmku/iZvfaRA7HOD87IMWH4kxRh3ANINqEDQG8Fr6z7mxoAv9QOnAD/ldaMbEP7UN7jiyngciSlhmC4spLKtn9ErqmXY50fxMw+fvgAijDuASSb0AGgt+pQqEnmTbMfUYwGv3bwBPiFtk3J2rcruVcu5cWkq6uqKNEt7PVSxdcHKWP2dFI6tBSvCeC0DI7QlCm/pQjjHkCyCR0AyZB5y5weJqOhWBxAASJzTZnAi0lX5eUkZH0gq0tYaTpJ7lVLyXJpJ+H1Ac7MsFL9B8SFFGHMA0g2oQMgGbxHvrtI6Z52UBxAAU6Pl46Zcw2V7/4yroWk2ePeotdfIeeVY8iMWT+om5KClUuHqz+XwngHIAOhAyBZrH26zlX/xRyKMJACRMVKx2QtuIm8Rw5RyFNepxnB6nCYQqWl5Nm3m9JnXkXmzkbhdQBiVK0YUz6pOLDv3xRhrAOQgdABkCyZd93xL1OqAaeCQJ2Zu7Wl7Ltv4zUE2akiscwKsqPbAi4n3+CReeNsMndB8INzZSh1jh52o99kOo8ijHUAMhA6AJIlkO66WGnd9EF1AA2KAypA7Kx9ulDm3BnkXvEUlX36CfmOHSG/1UJ+p4P8ZhP5jh8lz95dVPz2a5T76IM1J3h0SxO+DkAdVCttLjlU8OyKFtoxDkAmQgdAsoT9/iYFzz3Tw5Sa8gMfRMWBFeDstG/Bw6BtSB+yjxhA9pGDyD68Py8pw+oLshlDpW0z8b8DqCOT0RBwTh6/KJiXe752jAOQidABkEzlBw9eYBlw6SJ1IPVqB1YAANmZ2jY9kffUY3/Qjm0AshE6AJIt9+EHm5lSU77TDqwAAJKrtHRue712TAOQkdABkGyVZnMT+5C+0yMMrgAAMvuo5O23/k87pgHISOgAkEEwP//XJqNhszqgoiwMAMiump1nXvTq+iHVoRB2/kK9IHQAyIBtCMmYfXVXJdVwnA2uEQZcAAA5GFM8tuH97/V8+/XF2rEMQFZCB4AsqvJyL8q86bq56gDrFgZcAABJWPp0+ch76Ju/ascwAJkJHQAyyX31ld+f6NDmGXWQrdIOugAASVatpBpsjvFj07RjF4DshA4A2RQ+t+K3SrtmH6mDbTjCAAwAkAws/Dlck0aNDJWVYt0f1DtCB4CM3EsfS1MH230KQiAAyMCY4k6fPvEGv9P+G+14BVAfCB0AMgp7Ky7If/KRfuqge0zBphAASK5qx9hhdwUyXL/XjlUA9YXQASCr6nC4iXv18q7mDq1YkWiEQADQnSnVUGwfPfjB6mAQj32hXhM6AGTnXvFkd3Ug/lrB42AA0A/7R2ee6+qJ9wQyM/6oHZcA6huhA0B2Yb///Pylj/dUB+PPVcEIAzUAQJwZCp2Txs31O+z/TzsmAdRHQgdAfRCurDw/b/mT/zZ1aPmSYjT4xMEaACAOjOo/Mo0pFvvY4SODxcW/0o5FAPWV0AFQn+Q+/9SvMmZOXawO1A71X+h4JAwAcWNKTamwN//n5uwJY7sECwqw5g8aFKEDoL4JuvN/nXXL9aPVALhTwSNhAIgLQ6FtQI9FFetf/DeZTMK4A1DfCR0A9VGwwH1B5djR/7KmNntcMaaUKTUbRLBTGABiZzRUqwJKu2Z7fuja4bLKEz+hxh80WEIHQH0WzM8/L/Pqq7qq/3LfqA7o+cIADwAQmV9Ja3Y8/ZrJc0o/eO932rEFoKEROgAaAs+uL/6U367NNCXVsJcP7OJgDwDAsKcFru87GpdnP7G4g3YsAWiohA6AhqJ6377z3C8+0+pE23/eowbBdAWPhAHgl0Imo2Fz+ozJ/UsO7P9D0OsVxhGAhkroAGhIqoPBJqGy0gtzFt5psA3tu95k5I+FQxFuBADQOFQrxpQKy6UdD9hHDZ0YyEz/XdiH4AeNj9AB0FBV5eZelHPF2BH25v9815SaUhLhxgAADZqBzfj9aOvV7c7yTz/5P+0YAdCYCB0ADZrJ1MS78e2/2/t3maneCI6gdiBAo8Bm/QrU3/ln3aue7lWxaxdq+kGjJ3QANAZVmekXFG/a2MLSo+NipV3zDDYzEOGmAQD1W7X6u+2zGA2fZ82f189vt/0hXFkpjAcAjZHQAdDYuJctaXUircVb6s0iW6nZEai9iQBAfWM0eE2pl+x1XDFiVnDWjF9rf+8BGjuhA6Axynvl5T9k3TBzonrj+EBB2RiA+s5u7dd9YcG6Z1v6bAoe9wJEIHQANFbBvNzzvd998w9rr443mFJTXBFuKgAgtwrFmPJG0Wsv9fL99MPF2t9xAPiZ0AHQ2FUHg+d59uz6h613l8fUm4lFwWNhAJmx+p4l5rbNduaNuax39bp151dXVwu/1wDwS0IHANTwfvzx+fkPP9hbaXPJBvUG445w4wGA5AqYjCkHM2ZOu6Vw6VN/0f4OA8DpCR0A8LPqUKhJ2fZtf826/abJJqNht4Ii0gCyKLT27/Zw2Y6PUwMZ6b/S/u4CQHRCBwCIQh7P+VVTr/qzrW/XBSZjis2UmhJQcLQcgN54PT9L17QNR8eN6lrpdGKdH0AdCR0AcHpVOTnnZS24rbVtWJ/lSqrBHuEGBQCJUa60bfpl9h3zx5Rt23aR9ncTAM6O0AEAZ1bx9f5fF657fpiSeslmNQiWR7hZAUB8hEyphu+zbp17e/GG1w3a30UAqBuhAwBiUx0MNsnd+PbfjvXsNE1pm3JcDYJBBY+FAeLDmBJWjAaP0r7lqpyZ17YKFhbgcS9AHAkdAHD2cpc8+BvnlaMfMKUaTio16wPFGxoAxCrfNqDnhoxrJncLut3na3/fAODcCR0A/397dx4dVXXAcXxYBUVQaZXNzANCyHtAkICIYVNLSKSEzQWpAkcRsQot1cpWURTrBqiAHi16RMEVSw8ugFYoEnIoQZSDJnlvss1knUnIxmSSCZmFvgf9w86NlgNZZvn+8TnI7yCZmXfn3B9vuRcXptFe2rFs47rR+VMnvaJPYI4mJjUAv8zYheebsjh5Tu2B/T0Cv2MAmo8QALg47qyM7lrC6Fv1iWyfrrGJSQ7A/zJunSjIHNJv2ck3Xx3kT0sTvlcAmpcQALh43tradjVf7e6Rm5J4j+W6wcc0WXI3MekBkc6jypIjd/KEN0ofX3at13mqo3FvbeD3CUDzEwIAzevk5pf6Fl179fOqYlb/+6BI4CQIRBxVkarzBvb5qPSOGcmNZQ6WdQFamRAAaGYej6lx27tdbEsXjs8YEvW6PvHVBU6GQATxqbJ0LC9h9Ly6j97vdcZiEb8zAFqcEABoGZ6aKlODNa97duK4KZaRSppeBOtVlo1BxDB7tbhoW86YEaur//7xgMbCwg6B3xEArUcIALQ8V1pqj6KEkQ9aYqOOaDwogvDm02SpOHNY9LvlL78QE/hdANA2hABAK9m921T58rqhlhhpnT5J2s5OlOLkCYSyBi1W2lm8aMEsxztbuwnfAQBtRggAtB5/Y6Op/mh6t+LHlk5QFWmHSglE+LDmjItfWPdtem+P3c5izkCQEQIArc/v85n8Xm+73FlTpmcMHXhQkyVjf2HuD0SoMbZv03LGjXyq9tA3vfQxLYx1AMFBCAC0HbfDYbK9tL5vXtItj+ol8HuNEoiQYS7T5KjtjrVPjnHt3csZPyDICQGAtld//HjHqg+3j9In1s16EawQJ1sgOKiK5NXtL/3zkjuce7/oaZzNDhzPAIKPEAAIDsbls8YyR9eydX9N0OKiP1MVM5eFESyMcdigj8ns/PHXL2mcd88VPlctZ/2AECIEAIJP1bp1nQrunXO/Jkcd1BQzC0mjbcnm7LzJ418oWvbQoNMOuzBeAQQ/IQAQnBrt9vZV722NyUtJXKbKUr4wKQMtTZacqiJ9VPHW679x/TutS+AYBRA6hABAcDtdYLvk1ABzvDYseps+GddoXBZGizL7jT2s1SH9j9mlvrPdb/7tV36vRxiXAEKLEAAIDc7U1PYF986daImP/VyTpWpx4gYuWoMmmzNsd6asqFy/ljN+QBgRAgChpWrb21eVPLJ4iaaYD+sT9ukmJnHgAphL81MmrT+5ccPIRoedfXuBMCMEAEKPp7KiU+1982Pz+/derclm47JwExM6cF6Mf0TszbhpXKJbzbw8cKwBCA9CACBEud0mn9PZMee25GE5E67frilmh8bWcjh/9ZYRsUesU5NmO7/6srvX5RLHGICwIQQAQl/dkbRL7U+umGEZpXyhT+wsG4Nf4tFlFP1+wTMVW17rFTiWAIQnIQAQPqp2fBCVpUQvVRXpR42zgQgkm2stMVGb7A8/mOA5WX5J4PgBEL6EAED48Hs8pgartXPZ2tXROWNHPK+euz/QKxQBRBK/Kkt1llHKgbxJYyeftuZ381ZXC2MHQHgTAgDhySiDhbNnJOQP6POBJktlRhFoohwgvJ3OHhyVVpQwakHt4UPdA8cIgMghBADCWEGBqX7jyz0LE2++S5PN+7Vz938FlgSEH+Pyf16WMvC5qo0bYs/s2SOODQARRQgAhL9Gi6Xdqc93DdSG9F+hKlJxE4UB4UKWvFqs+b2S5X9KqDt27DLjTHDgeAAQeYQAQGTw+/0mv89nqnhjcz+rMmCjpphLNO4PDBNnt2+ryY3uu882a0qyfpzbGcc7cAwAiFxCACDy+F58oUPx4gdStFjpY71AGNvKcX9gyDL7dOm2qTcvqfvLyl5nCguF4w0AQgAgMnnKy9s5v9zTO3da0hxVkU6IxQIhoEwvfxuqd7x/XcMPx9m+DcDPEgIAkc1TXdXelX64nzY2fnWm0j9H5UGRYGec8avRhsfsKN/w3GhPuaOL3+sVjisA/JQQAICh4uhRk3XVsjgtPnaLXjKM+wO5LBxcjONRq9tXuODueWWbN3HGD8B5EwIA+KmaXZ90K3182e2qLH2ml436JooI2oCqSBbr9KSl1R9uG+Apc7QPPG4A8EuEAAACeU+dau/OyrzGdvvU+ZosFWqK2XPuSVOxmKAFyZJPk81VlrhBW5z/+uewxqKCzoHHCgDOhxAAwM8x7i0rmj+3V17ShGf0IqKeXWMusKSgpVRaRsg7S+b+7sb6Awc44wfgoggBAPw/rm/TO53ctGGsZUTsVqOYNFFW0HwaVFk6WPLYHxZVbd/aI/BYAMCFEAIAOF+uTz7uWXb1FXdoijlN42nhZqcqUkX+gN7Lau+/L9pTWdkx8PMHgAslBABw3rxek9/pbGff+OzluSm3LFJls0Uvg+7AIoPzp55b1qUkZ+Lot6yzZgz21dZ2ONPQIH72AHARhAAALoTP7TbZn1ipWG+bsl6VpVyNZWMuhNMySvmHfc3KW+vSD3cJ/IwBoLkIAQBcDHdWxmU1Y66fqMVGfaKxbMz58miy9N138cMeqty5o0/gZwoAzU0IAOCiFRebXAf398ybMPJObXjMUU3msvDPMJbTqbSMi19d+uwTkruwsBO7eABoDUIAAM2p8u23rixcOG+FXnQy9MJzuokSFImM9fxK8lMS3y5esjCe0gegtQkBADQ3n8vVoWjFozdkDo1+RS8/9iYKUSRpzFKkPbkpyTPrTxxnWRcAbUIIAKAleKqrTa7vv+thmz55gl6CUrWzT7sK5Sic+TXFbLUMkf5Ys/szc0NurvAZAUBrEQIAaEl+v9/kzsrsapszc45lzPBDWvg/KGI84FFgu3Pas5VvvnaN8f4NgZ8LALQmIQCA1lKzc4c5d2jM03pB0vSiFG7byhnL4FRkx5jfLVm8KNHX0MD2bQCChhAAQGuq27fvEsfa1eO12KgtemFyNVGkQlW6bdaUWa4v9/zaW14uvG8AaEtCAACtzeeuN3nKyy4tmD/nppyYfqmqIjm1EFxIWn/dpy2xUVm5N8Y9UvftkV7emup2ge8VAIKBEABAm6mvN7kX3Htl/vTkh1VZOqSGzv7CPv212rSRQzdWLXlw8JmvvxbfGwAEESEAgLZWf+JE+6oPtitq3KC1mizla8F8NlCWnHpZ3Vb6xIrf1nz6adfA9wIAwUgIACBYuC1q17JNG0Zo8bGvaEr/Cu3cGcG2LoPGzzfO+Lkt1w1OzZ89LdGtZl7ldZ7ici+AkCEEABCMipY/EmWdmfyMKpvT9QJ2soli1hrq9Z+vZY8b8Y5twdyJ7mxLp8DXCQChQAgAIFg15Fg6lG/eMKB880t3q7K09dz2cuaGJopaMzMX6T9vV9HiB5brP/vGmi92dQ58bQAQSoQAAIKdsZBybVrqla60g3HWObNm6uXsNb2ondC5xfJ2QYxdSmyqIu1QY6WHnfu+usGVltqnsczRMfC1AEAoEgIACCW+Brex13AnXdeKV9f3sU5PujV/RtJy64ykrdYZyd9kDZV+0AuiRVXMuXqhy9dkyaqXO6v+33l6lp2lmDNzJiUc1f/8Tv3/W2udnnxPwV3Thup/36W6zrr27NwBINwIAQCEk6IXV3cpXbOqr/2pVdH2NauGOdasGq7/Gqf/frB9zUpz0dMru7vUH3mAA0BEEQIAAACENyEAAABAeBMCAAAAhDchAAAAQHgTAgAAAIS3/wCY8u+52bx2NgAAAABJRU5ErkJggg==;clipPath=inset(0% 23.33% 0% 23%);" vertex="1" parent="J-4PL1bRExIhTpd28Z0a-65">
          <mxGeometry x="226.9000000000001" y="6.9199999999999875" width="38.1" height="40" as="geometry" />
        </mxCell>
        <mxCell id="J-4PL1bRExIhTpd28Z0a-83" style="edgeStyle=orthogonalEdgeStyle;rounded=0;orthogonalLoop=1;jettySize=auto;html=1;startArrow=classic;startFill=1;strokeWidth=5;" edge="1" parent="1" source="J-4PL1bRExIhTpd28Z0a-43" target="J-4PL1bRExIhTpd28Z0a-74">
          <mxGeometry relative="1" as="geometry" />
        </mxCell>
        <mxCell id="J-4PL1bRExIhTpd28Z0a-43" value="" style="html=1;shadow=0;dashed=0;shape=mxgraph.bootstrap.rrect;rSize=5;strokeColor=#6C767D;html=1;whiteSpace=wrap;fillColor=#ffffff;fontColor=#212529;verticalAlign=bottom;align=left;spacing=20;spacingBottom=0;fontSize=14;" vertex="1" parent="1">
          <mxGeometry x="628" y="40" width="702" height="720" as="geometry" />
        </mxCell>
        <mxCell id="J-4PL1bRExIhTpd28Z0a-44" value="Application Servers" style="html=1;shadow=0;dashed=0;shape=mxgraph.bootstrap.topButton;rSize=5;perimeter=none;whiteSpace=wrap;fillColor=#008a00;strokeColor=#005700;resizeWidth=1;fontSize=18;align=left;spacing=20;fontColor=#ffffff;" vertex="1" parent="J-4PL1bRExIhTpd28Z0a-43">
          <mxGeometry width="702" height="50" relative="1" as="geometry" />
        </mxCell>
        <mxCell id="J-4PL1bRExIhTpd28Z0a-59" value="&lt;span style=&quot;font-size: 20px;&quot;&gt;&lt;b&gt;Roles&lt;/b&gt;&lt;/span&gt;&lt;br style=&quot;font-size: 14px&quot;&gt;&lt;div&gt;- provide Client Session&lt;br&gt;&lt;/div&gt;&lt;div&gt;- websocket support&lt;/div&gt;" style="html=1;shadow=0;dashed=0;shape=mxgraph.bootstrap.rrect;rSize=5;strokeColor=#6C767D;html=1;whiteSpace=wrap;fillColor=#ffffff;fontColor=#212529;verticalAlign=bottom;align=left;spacing=20;spacingBottom=0;fontSize=14;" vertex="1" parent="J-4PL1bRExIhTpd28Z0a-43">
          <mxGeometry x="46" y="114" width="270" height="150" as="geometry" />
        </mxCell>
        <mxCell id="J-4PL1bRExIhTpd28Z0a-60" value="Session Server" style="html=1;shadow=0;dashed=0;shape=mxgraph.bootstrap.topButton;rSize=5;perimeter=none;whiteSpace=wrap;fillColor=#60a917;strokeColor=#2D7600;fontColor=#ffffff;resizeWidth=1;fontSize=18;align=left;spacing=20;" vertex="1" parent="J-4PL1bRExIhTpd28Z0a-59">
          <mxGeometry width="270" height="50" relative="1" as="geometry" />
        </mxCell>
        <mxCell id="J-4PL1bRExIhTpd28Z0a-23" value="&lt;span style=&quot;font-size: 20px;&quot;&gt;&lt;b&gt;Roles&lt;br&gt;&lt;/b&gt;&lt;/span&gt;- Route Request to Server&lt;br style=&quot;font-size: 14px&quot;&gt;&lt;div&gt;- Request Authentication&lt;/div&gt;&lt;div&gt;- Serve Passport&lt;/div&gt;" style="html=1;shadow=0;dashed=0;shape=mxgraph.bootstrap.rrect;rSize=5;strokeColor=#6C767D;html=1;whiteSpace=wrap;fillColor=#ffffff;fontColor=#212529;verticalAlign=bottom;align=left;spacing=20;spacingBottom=0;fontSize=14;" vertex="1" parent="J-4PL1bRExIhTpd28Z0a-43">
          <mxGeometry x="46" y="308" width="270" height="160" as="geometry" />
        </mxCell>
        <mxCell id="J-4PL1bRExIhTpd28Z0a-24" value="Gateway Server" style="html=1;shadow=0;dashed=0;shape=mxgraph.bootstrap.topButton;rSize=5;perimeter=none;whiteSpace=wrap;fillColor=#60a917;strokeColor=#2D7600;fontColor=#ffffff;resizeWidth=1;fontSize=18;align=left;spacing=20;" vertex="1" parent="J-4PL1bRExIhTpd28Z0a-23">
          <mxGeometry width="270" height="50" relative="1" as="geometry" />
        </mxCell>
        <mxCell id="J-4PL1bRExIhTpd28Z0a-41" value="&lt;span style=&quot;font-size: 20px;&quot;&gt;&lt;b&gt;Roles&lt;br&gt;&lt;/b&gt;&lt;/span&gt;- Manage User&lt;br&gt;- Support SSO" style="html=1;shadow=0;dashed=0;shape=mxgraph.bootstrap.rrect;rSize=5;strokeColor=#6C767D;html=1;whiteSpace=wrap;fillColor=#ffffff;fontColor=#212529;verticalAlign=bottom;align=left;spacing=20;spacingBottom=0;fontSize=14;" vertex="1" parent="J-4PL1bRExIhTpd28Z0a-43">
          <mxGeometry x="382" y="514" width="270" height="140" as="geometry" />
        </mxCell>
        <mxCell id="J-4PL1bRExIhTpd28Z0a-42" value="User Server" style="html=1;shadow=0;dashed=0;shape=mxgraph.bootstrap.topButton;rSize=5;perimeter=none;whiteSpace=wrap;fillColor=#60a917;strokeColor=#2D7600;fontColor=#ffffff;resizeWidth=1;fontSize=18;align=left;spacing=20;" vertex="1" parent="J-4PL1bRExIhTpd28Z0a-41">
          <mxGeometry width="270" height="50" relative="1" as="geometry" />
        </mxCell>
        <mxCell id="J-4PL1bRExIhTpd28Z0a-26" value="&lt;span style=&quot;font-size: 20px;&quot;&gt;&lt;b&gt;Roles&lt;/b&gt;&lt;/span&gt;&lt;br style=&quot;font-size: 14px&quot;&gt;&lt;div&gt;- provide OAuth2.0&lt;/div&gt;&lt;div&gt;- provide Passport&lt;/div&gt;" style="html=1;shadow=0;dashed=0;shape=mxgraph.bootstrap.rrect;rSize=5;strokeColor=#6C767D;html=1;whiteSpace=wrap;fillColor=#ffffff;fontColor=#212529;verticalAlign=bottom;align=left;spacing=20;spacingBottom=0;fontSize=14;" vertex="1" parent="J-4PL1bRExIhTpd28Z0a-43">
          <mxGeometry x="46" y="514" width="270" height="150" as="geometry" />
        </mxCell>
        <mxCell id="J-4PL1bRExIhTpd28Z0a-27" value="OAuth Server" style="html=1;shadow=0;dashed=0;shape=mxgraph.bootstrap.topButton;rSize=5;perimeter=none;whiteSpace=wrap;fillColor=#60a917;strokeColor=#2D7600;fontColor=#ffffff;resizeWidth=1;fontSize=18;align=left;spacing=20;" vertex="1" parent="J-4PL1bRExIhTpd28Z0a-26">
          <mxGeometry width="270" height="50" relative="1" as="geometry" />
        </mxCell>
        <mxCell id="J-4PL1bRExIhTpd28Z0a-88" value="" style="group" vertex="1" connectable="0" parent="J-4PL1bRExIhTpd28Z0a-43">
          <mxGeometry x="366" y="311" width="290" height="160" as="geometry" />
        </mxCell>
        <mxCell id="J-4PL1bRExIhTpd28Z0a-86" value="&lt;span style=&quot;font-size: 20px;&quot;&gt;&lt;b&gt;Roles&lt;br&gt;&lt;/b&gt;&lt;/span&gt;- For My Service..." style="html=1;shadow=0;dashed=0;shape=mxgraph.bootstrap.rrect;rSize=5;strokeColor=#6C767D;html=1;whiteSpace=wrap;fillColor=#ffffff;fontColor=#212529;verticalAlign=bottom;align=left;spacing=20;spacingBottom=0;fontSize=14;" vertex="1" parent="J-4PL1bRExIhTpd28Z0a-88">
          <mxGeometry x="20" y="20" width="270" height="140" as="geometry" />
        </mxCell>
        <mxCell id="J-4PL1bRExIhTpd28Z0a-87" value="Service Servers..." style="html=1;shadow=0;dashed=0;shape=mxgraph.bootstrap.topButton;rSize=5;perimeter=none;whiteSpace=wrap;fillColor=#60a917;strokeColor=#2D7600;fontColor=#ffffff;resizeWidth=1;fontSize=18;align=left;spacing=20;" vertex="1" parent="J-4PL1bRExIhTpd28Z0a-86">
          <mxGeometry width="270" height="50" relative="1" as="geometry" />
        </mxCell>
        <mxCell id="J-4PL1bRExIhTpd28Z0a-84" value="&lt;span style=&quot;font-size: 20px;&quot;&gt;&lt;b&gt;Roles&lt;br&gt;&lt;/b&gt;&lt;/span&gt;- For My Service..." style="html=1;shadow=0;dashed=0;shape=mxgraph.bootstrap.rrect;rSize=5;strokeColor=#6C767D;html=1;whiteSpace=wrap;fillColor=#ffffff;fontColor=#212529;verticalAlign=bottom;align=left;spacing=20;spacingBottom=0;fontSize=14;" vertex="1" parent="J-4PL1bRExIhTpd28Z0a-88">
          <mxGeometry x="10" y="10" width="270" height="140" as="geometry" />
        </mxCell>
        <mxCell id="J-4PL1bRExIhTpd28Z0a-85" value="Service Servers..." style="html=1;shadow=0;dashed=0;shape=mxgraph.bootstrap.topButton;rSize=5;perimeter=none;whiteSpace=wrap;fillColor=#60a917;strokeColor=#2D7600;fontColor=#ffffff;resizeWidth=1;fontSize=18;align=left;spacing=20;" vertex="1" parent="J-4PL1bRExIhTpd28Z0a-84">
          <mxGeometry width="270" height="50" relative="1" as="geometry" />
        </mxCell>
        <mxCell id="J-4PL1bRExIhTpd28Z0a-69" value="&lt;span style=&quot;font-size: 20px;&quot;&gt;&lt;b&gt;Roles&lt;br&gt;&lt;/b&gt;&lt;/span&gt;- For My Service..." style="html=1;shadow=0;dashed=0;shape=mxgraph.bootstrap.rrect;rSize=5;strokeColor=#6C767D;html=1;whiteSpace=wrap;fillColor=#ffffff;fontColor=#212529;verticalAlign=bottom;align=left;spacing=20;spacingBottom=0;fontSize=14;" vertex="1" parent="J-4PL1bRExIhTpd28Z0a-88">
          <mxGeometry width="270" height="140" as="geometry" />
        </mxCell>
        <mxCell id="J-4PL1bRExIhTpd28Z0a-70" value="Service Servers..." style="html=1;shadow=0;dashed=0;shape=mxgraph.bootstrap.topButton;rSize=5;perimeter=none;whiteSpace=wrap;fillColor=#60a917;strokeColor=#2D7600;fontColor=#ffffff;resizeWidth=1;fontSize=18;align=left;spacing=20;" vertex="1" parent="J-4PL1bRExIhTpd28Z0a-69">
          <mxGeometry width="270" height="50" relative="1" as="geometry" />
        </mxCell>
        <mxCell id="J-4PL1bRExIhTpd28Z0a-21" value="&lt;span style=&quot;font-size: 20px;&quot;&gt;&lt;b&gt;Roles&lt;/b&gt;&lt;/span&gt;&lt;br style=&quot;font-size: 14px&quot;&gt;&lt;div&gt;- reverse proxy to Application Server&lt;/div&gt;&lt;div&gt;- provide Web Page&lt;/div&gt;&lt;div&gt;- provide TLS&lt;/div&gt;&lt;div&gt;- provide static Resources&lt;/div&gt;&lt;div&gt;- other Security Settings...&lt;/div&gt;" style="html=1;shadow=0;dashed=0;shape=mxgraph.bootstrap.rrect;rSize=5;strokeColor=#6C767D;html=1;whiteSpace=wrap;fillColor=#ffffff;fontColor=#212529;verticalAlign=bottom;align=left;spacing=20;spacingBottom=0;fontSize=14;" vertex="1" parent="1">
          <mxGeometry x="318" y="310" width="270" height="190" as="geometry" />
        </mxCell>
        <mxCell id="J-4PL1bRExIhTpd28Z0a-22" value="Nginx" style="html=1;shadow=0;dashed=0;shape=mxgraph.bootstrap.topButton;rSize=5;perimeter=none;whiteSpace=wrap;fillColor=#1ba1e2;strokeColor=#006EAF;fontColor=#ffffff;resizeWidth=1;fontSize=18;align=left;spacing=20;" vertex="1" parent="J-4PL1bRExIhTpd28Z0a-21">
          <mxGeometry width="270" height="50" relative="1" as="geometry" />
        </mxCell>
        <mxCell id="J-4PL1bRExIhTpd28Z0a-5" value="" style="shape=image;verticalLabelPosition=bottom;labelBackgroundColor=default;verticalAlign=top;aspect=fixed;imageAspect=0;image=https://storage.googleapis.com/sy34-ghost/2021/07/3630px-Nginx_logo.png;clipPath=inset(17.96% 30.33% 19.9% 29.67%);" vertex="1" parent="J-4PL1bRExIhTpd28Z0a-21">
          <mxGeometry x="223.5" y="4.4399999999999995" width="38.95" height="41.56" as="geometry" />
        </mxCell>
        <mxCell id="J-4PL1bRExIhTpd28Z0a-28" value="" style="html=1;shadow=0;dashed=0;shape=mxgraph.bootstrap.rrect;rSize=5;strokeColor=#6C767D;html=1;whiteSpace=wrap;fillColor=#ffffff;fontColor=#6C767D;verticalAlign=bottom;align=left;spacing=20;spacingBottom=0;fontSize=14;" vertex="1" parent="1">
          <mxGeometry x="70" y="330" width="200" height="160" as="geometry" />
        </mxCell>
        <mxCell id="J-4PL1bRExIhTpd28Z0a-29" value="Client" style="html=1;shadow=0;dashed=0;shape=mxgraph.bootstrap.topButton;rSize=5;perimeter=none;whiteSpace=wrap;fillColor=#e51400;strokeColor=#B20000;resizeWidth=1;fontSize=18;align=left;spacing=20;fontColor=#ffffff;" vertex="1" parent="J-4PL1bRExIhTpd28Z0a-28">
          <mxGeometry width="200" height="50" relative="1" as="geometry" />
        </mxCell>
        <mxCell id="J-4PL1bRExIhTpd28Z0a-1" value="" style="dashed=0;outlineConnect=0;html=1;align=center;labelPosition=center;verticalLabelPosition=bottom;verticalAlign=top;shape=mxgraph.weblogos.android;fillColor=#A4CA39;strokeColor=none" vertex="1" parent="J-4PL1bRExIhTpd28Z0a-28">
          <mxGeometry x="20.00000000000003" y="60" width="67.60000000000001" height="80" as="geometry" />
        </mxCell>
        <mxCell id="J-4PL1bRExIhTpd28Z0a-2" value="" style="dashed=0;outlineConnect=0;html=1;align=center;labelPosition=center;verticalLabelPosition=bottom;verticalAlign=top;shape=mxgraph.weblogos.chrome" vertex="1" parent="J-4PL1bRExIhTpd28Z0a-28">
          <mxGeometry x="102.4" y="62.30000000000001" width="74.8" height="75.4" as="geometry" />
        </mxCell>
        <mxCell id="J-4PL1bRExIhTpd28Z0a-71" style="rounded=0;orthogonalLoop=1;jettySize=auto;html=1;entryX=0.002;entryY=0.51;entryDx=0;entryDy=0;entryPerimeter=0;strokeWidth=5;" edge="1" parent="1" source="J-4PL1bRExIhTpd28Z0a-21" target="J-4PL1bRExIhTpd28Z0a-43">
          <mxGeometry relative="1" as="geometry" />
        </mxCell>
        <mxCell id="J-4PL1bRExIhTpd28Z0a-82" style="rounded=0;orthogonalLoop=1;jettySize=auto;html=1;entryX=-0.002;entryY=0.539;entryDx=0;entryDy=0;entryPerimeter=0;strokeWidth=5;" edge="1" parent="1" source="J-4PL1bRExIhTpd28Z0a-28" target="J-4PL1bRExIhTpd28Z0a-21">
          <mxGeometry relative="1" as="geometry" />
        </mxCell>
      </root>
    </mxGraphModel>
  </diagram>
</mxfile>
